<svg width="1920" height="411" viewBox="0 0 1920 411" fill="none" xmlns="http://www.w3.org/2000/svg">
<g clip-path="url(#clip0_45_1914)">
<path d="M-647.037 644.768C-140.391 329.299 1173.15 -112.358 2374.16 644.768" stroke="#C2AEFD" stroke-width="0.324947"/>
<path d="M-647.037 -255.826C-140.391 59.6429 1173.15 501.3 2374.16 -255.826" stroke="#C2AEFD" stroke-width="0.324947"/>
<path d="M-658.41 635.02C-151.764 319.551 1161.78 -122.106 2362.78 635.02" stroke="#C2AEFD" stroke-width="0.324947"/>
<path d="M-658.41 -246.078C-151.764 69.3912 1161.78 511.048 2362.78 -246.078" stroke="#C2AEFD" stroke-width="0.324947"/>
<path d="M-647.037 623.647C-140.391 308.177 1173.15 -133.48 2374.16 623.647" stroke="#C2AEFD" stroke-width="0.324947"/>
<path d="M-647.037 -234.705C-140.391 80.7645 1173.15 522.421 2374.16 -234.705" stroke="#C2AEFD" stroke-width="0.324947"/>
<path d="M-647.037 610.649C-140.391 295.18 1173.15 -146.477 2374.16 610.649" stroke="#C2AEFD" stroke-width="0.324947"/>
<path d="M-647.037 -221.707C-140.391 93.7625 1173.15 535.419 2374.16 -221.707" stroke="#C2AEFD" stroke-width="0.324947"/>
<path d="M-647.037 600.9C-140.391 285.431 1173.15 -156.226 2374.16 600.9" stroke="#C2AEFD" stroke-width="0.324947"/>
<path d="M-647.037 -211.958C-140.391 103.511 1173.15 545.168 2374.16 -211.958" stroke="#C2AEFD" stroke-width="0.324947"/>
<path d="M-647.037 589.528C-140.391 274.058 1173.15 -167.599 2374.16 589.528" stroke="#C2AEFD" stroke-width="0.324947"/>
<path d="M-647.037 -200.585C-140.391 114.884 1173.15 556.541 2374.16 -200.585" stroke="#C2AEFD" stroke-width="0.324947"/>
<path d="M-647.037 579.779C-140.391 264.31 1173.15 -177.347 2374.16 579.779" stroke="#C2AEFD" stroke-width="0.324947"/>
<path d="M-647.037 -190.837C-140.391 124.632 1173.15 566.289 2374.16 -190.837" stroke="#C2AEFD" stroke-width="0.324947"/>
</g>
<defs>
<clipPath id="clip0_45_1914">
<rect width="1970" height="410.417" fill="white" transform="translate(-25)"/>
</clipPath>
</defs>
</svg>
