<svg width="150" height="25" viewBox="0 0 150 25" fill="none" xmlns="http://www.w3.org/2000/svg">
<path d="M0.000398636 19.318V1.43H5.8504C7.3584 1.43 8.58907 1.508 9.5424 1.664C10.5131 1.80267 11.2757 2.06267 11.8304 2.444C12.3851 2.82533 12.7837 3.354 13.0264 4.03C13.2864 4.706 13.4511 5.564 13.5204 6.604C13.5897 7.644 13.6244 8.90067 13.6244 10.374C13.6244 11.8473 13.5897 13.104 13.5204 14.144C13.4511 15.184 13.2864 16.042 13.0264 16.718C12.7837 17.394 12.3851 17.9227 11.8304 18.304C11.2757 18.6853 10.5131 18.954 9.5424 19.11C8.58907 19.2487 7.3584 19.318 5.8504 19.318H0.000398636ZM2.9384 16.822H5.5904C6.56107 16.822 7.3584 16.8047 7.9824 16.77C8.62373 16.718 9.1264 16.5967 9.4904 16.406C9.8544 16.198 10.1231 15.8687 10.2964 15.418C10.4697 14.9673 10.5737 14.3347 10.6084 13.52C10.6604 12.688 10.6864 11.6393 10.6864 10.374C10.6864 9.10867 10.6604 8.06867 10.6084 7.254C10.5737 6.43933 10.4611 5.80667 10.2704 5.356C10.0971 4.888 9.81973 4.55867 9.4384 4.368C9.0744 4.16 8.5804 4.03867 7.9564 4.004C7.3324 3.952 6.54373 3.926 5.5904 3.926H2.9384V16.822ZM17.4866 19.318V0H20.2426V7.696H20.4246C20.6326 7.29733 20.91 6.968 21.2566 6.708C21.6033 6.43067 22.0366 6.22267 22.5566 6.084C23.094 5.94533 23.744 5.876 24.5066 5.876C25.4426 5.876 26.1966 5.98 26.7686 6.188C27.358 6.396 27.8 6.71667 28.0946 7.15C28.3893 7.58333 28.5886 8.12067 28.6926 8.762C28.814 9.40333 28.8746 10.1573 28.8746 11.024V19.318H26.0926V12.116C26.0926 11.2493 26.058 10.5647 25.9886 10.062C25.9366 9.542 25.8153 9.16067 25.6246 8.918C25.434 8.658 25.148 8.49333 24.7666 8.424C24.4026 8.35467 23.9086 8.32 23.2846 8.32C22.5913 8.32 22.0366 8.40667 21.6206 8.58C21.222 8.75333 20.9186 9.01333 20.7106 9.36C20.52 9.70667 20.39 10.14 20.3206 10.66C20.2686 11.18 20.2426 11.7867 20.2426 12.48V19.318H17.4866ZM36.3549 19.526C35.4536 19.526 34.6909 19.4047 34.0669 19.162C33.4602 18.9193 33.0009 18.5207 32.6889 17.966C32.3769 17.394 32.2209 16.6227 32.2209 15.652C32.2209 14.6293 32.3422 13.8233 32.5849 13.234C32.8276 12.6273 33.2436 12.194 33.8329 11.934C34.4222 11.674 35.2542 11.544 36.3289 11.544C36.5022 11.544 36.7536 11.5527 37.0829 11.57C37.4296 11.57 37.8196 11.5787 38.2529 11.596C38.7036 11.596 39.1456 11.6047 39.5789 11.622C40.0296 11.622 40.4369 11.6307 40.8009 11.648V11.024C40.8009 10.348 40.7576 9.81933 40.6709 9.438C40.5842 9.05667 40.4022 8.77933 40.1249 8.606C39.8649 8.41533 39.4836 8.294 38.9809 8.242C38.4782 8.19 37.8282 8.164 37.0309 8.164C36.6496 8.164 36.1989 8.18133 35.6789 8.216C35.1762 8.23333 34.6822 8.25933 34.1969 8.294C33.7116 8.32867 33.3389 8.372 33.0789 8.424V6.24C33.7896 6.10133 34.5696 6.006 35.4189 5.954C36.2682 5.88467 37.1176 5.85 37.9669 5.85C38.9549 5.85 39.7782 5.91067 40.4369 6.032C41.1129 6.15333 41.6589 6.344 42.0749 6.604C42.4909 6.864 42.8029 7.202 43.0109 7.618C43.2189 8.034 43.3662 8.53667 43.4529 9.126C43.5396 9.698 43.5829 10.3567 43.5829 11.102V19.318H41.0349L40.9309 17.602H40.7749C40.4802 18.1567 40.0816 18.5813 39.5789 18.876C39.0936 19.1533 38.5649 19.3267 37.9929 19.396C37.4209 19.4827 36.8749 19.526 36.3549 19.526ZM37.5769 17.29C38.0102 17.29 38.4002 17.264 38.7469 17.212C39.1109 17.1427 39.4229 17.0387 39.6829 16.9C39.9602 16.744 40.1769 16.536 40.3329 16.276C40.4889 15.9813 40.6016 15.6433 40.6709 15.262C40.7576 14.8807 40.8009 14.43 40.8009 13.91V13.442H37.0049C36.4329 13.442 35.9909 13.4853 35.6789 13.572C35.3842 13.6587 35.1849 13.8407 35.0809 14.118C34.9769 14.3953 34.9249 14.82 34.9249 15.392C34.9249 15.9293 34.9856 16.3367 35.1069 16.614C35.2282 16.874 35.4796 17.056 35.8609 17.16C36.2596 17.2467 36.8316 17.29 37.5769 17.29ZM48.7705 19.318V8.372H46.1185V6.058H48.7705V2.21H51.5265V6.058H54.6205V8.372H51.5265V19.318H48.7705ZM61.6411 19.526C60.7225 19.526 59.9685 19.422 59.3791 19.214C58.8071 18.9887 58.3651 18.6593 58.0531 18.226C57.7585 17.7927 57.5591 17.2553 57.4551 16.614C57.3511 15.9727 57.2991 15.2187 57.2991 14.352V6.058H60.0551V13.26C60.0551 14.1267 60.0811 14.82 60.1331 15.34C60.2025 15.8427 60.3325 16.224 60.5231 16.484C60.7138 16.7267 60.9911 16.8827 61.3551 16.952C61.7365 17.0213 62.2391 17.056 62.8631 17.056C63.5565 17.056 64.1111 16.9693 64.5271 16.796C64.9431 16.6227 65.2465 16.3627 65.4371 16.016C65.6451 15.6693 65.7751 15.236 65.8271 14.716C65.8791 14.196 65.9051 13.5893 65.9051 12.896V6.058H68.6871V19.318H66.1391L66.0351 17.55H65.8531C65.6625 17.966 65.3851 18.3213 65.0211 18.616C64.6745 18.9107 64.2238 19.136 63.6691 19.292C63.1145 19.448 62.4385 19.526 61.6411 19.526Z" fill="#4B0081"/>
<path d="M79.2094 19.526C78.5681 19.526 77.8574 19.5087 77.0774 19.474C76.3147 19.4393 75.5607 19.3873 74.8154 19.318C74.0874 19.266 73.4201 19.2053 72.8134 19.136V16.718C73.4374 16.77 74.0874 16.822 74.7634 16.874C75.4567 16.926 76.1154 16.9693 76.7394 17.004C77.3634 17.0213 77.9007 17.03 78.3514 17.03C79.2701 17.03 79.9894 16.9867 80.5094 16.9C81.0294 16.8133 81.4454 16.6747 81.7574 16.484C81.9654 16.3453 82.1127 16.172 82.1994 15.964C82.3034 15.756 82.3641 15.5133 82.3814 15.236C82.4161 14.9413 82.4334 14.6207 82.4334 14.274C82.4334 13.806 82.4161 13.416 82.3814 13.104C82.3467 12.792 82.2687 12.5493 82.1474 12.376C82.0261 12.2027 81.8354 12.0813 81.5754 12.012C81.3154 11.9253 80.9774 11.856 80.5614 11.804L76.2974 11.31C75.4654 11.206 74.7807 11.0327 74.2434 10.79C73.7234 10.53 73.3161 10.192 73.0214 9.776C72.7441 9.36 72.5534 8.866 72.4494 8.294C72.3454 7.722 72.2934 7.08933 72.2934 6.396C72.2934 5.23467 72.4494 4.316 72.7614 3.64C73.0734 2.964 73.5154 2.45267 74.0874 2.106C74.6767 1.742 75.3701 1.508 76.1674 1.404C76.9647 1.28267 77.8487 1.222 78.8194 1.222C79.4954 1.222 80.1887 1.248 80.8994 1.3C81.6101 1.33467 82.2774 1.38667 82.9014 1.456C83.5427 1.508 84.0714 1.586 84.4874 1.69V4.056C84.0541 3.98667 83.5427 3.926 82.9534 3.874C82.3814 3.822 81.7834 3.78733 81.1594 3.77C80.5354 3.73533 79.9547 3.718 79.4174 3.718C78.5161 3.718 77.7881 3.76133 77.2334 3.848C76.6961 3.91733 76.2801 4.03867 75.9854 4.212C75.6387 4.40267 75.4307 4.67133 75.3614 5.018C75.2921 5.34733 75.2574 5.76333 75.2574 6.266C75.2574 6.85533 75.2921 7.31467 75.3614 7.644C75.4481 7.956 75.6301 8.17267 75.9074 8.294C76.2021 8.41533 76.6441 8.51067 77.2334 8.58L81.4974 9.074C82.0347 9.126 82.5201 9.21267 82.9534 9.334C83.3867 9.438 83.7681 9.62 84.0974 9.88C84.4441 10.14 84.7127 10.5127 84.9034 10.998C85.0247 11.2407 85.1114 11.518 85.1634 11.83C85.2327 12.142 85.2847 12.4887 85.3194 12.87C85.3714 13.234 85.3974 13.65 85.3974 14.118C85.3974 15.106 85.2934 15.9293 85.0854 16.588C84.8947 17.2467 84.6174 17.7753 84.2534 18.174C83.9067 18.5553 83.4734 18.85 82.9534 19.058C82.4334 19.2487 81.8614 19.37 81.2374 19.422C80.6134 19.4913 79.9374 19.526 79.2094 19.526ZM92.392 19.526C91.4907 19.526 90.728 19.4047 90.104 19.162C89.4973 18.9193 89.038 18.5207 88.726 17.966C88.414 17.394 88.258 16.6227 88.258 15.652C88.258 14.6293 88.3793 13.8233 88.622 13.234C88.8647 12.6273 89.2807 12.194 89.87 11.934C90.4593 11.674 91.2913 11.544 92.366 11.544C92.5393 11.544 92.7907 11.5527 93.12 11.57C93.4667 11.57 93.8567 11.5787 94.29 11.596C94.7407 11.596 95.1827 11.6047 95.616 11.622C96.0667 11.622 96.474 11.6307 96.838 11.648V11.024C96.838 10.348 96.7947 9.81933 96.708 9.438C96.6213 9.05667 96.4393 8.77933 96.162 8.606C95.902 8.41533 95.5207 8.294 95.018 8.242C94.5153 8.19 93.8653 8.164 93.068 8.164C92.6867 8.164 92.236 8.18133 91.716 8.216C91.2133 8.23333 90.7193 8.25933 90.234 8.294C89.7487 8.32867 89.376 8.372 89.116 8.424V6.24C89.8267 6.10133 90.6067 6.006 91.456 5.954C92.3053 5.88467 93.1547 5.85 94.004 5.85C94.992 5.85 95.8153 5.91067 96.474 6.032C97.15 6.15333 97.696 6.344 98.112 6.604C98.528 6.864 98.84 7.202 99.048 7.618C99.256 8.034 99.4033 8.53667 99.49 9.126C99.5767 9.698 99.62 10.3567 99.62 11.102V19.318H97.072L96.968 17.602H96.812C96.5173 18.1567 96.1187 18.5813 95.616 18.876C95.1307 19.1533 94.602 19.3267 94.03 19.396C93.458 19.4827 92.912 19.526 92.392 19.526ZM93.614 17.29C94.0473 17.29 94.4373 17.264 94.784 17.212C95.148 17.1427 95.46 17.0387 95.72 16.9C95.9973 16.744 96.214 16.536 96.37 16.276C96.526 15.9813 96.6387 15.6433 96.708 15.262C96.7947 14.8807 96.838 14.43 96.838 13.91V13.442H93.042C92.47 13.442 92.028 13.4853 91.716 13.572C91.4213 13.6587 91.222 13.8407 91.118 14.118C91.014 14.3953 90.962 14.82 90.962 15.392C90.962 15.9293 91.0227 16.3367 91.144 16.614C91.2653 16.874 91.5167 17.056 91.898 17.16C92.2967 17.2467 92.8687 17.29 93.614 17.29ZM104.935 19.318V8.372H102.309V6.058H104.935V4.446C104.935 3.59667 104.995 2.90333 105.117 2.366C105.238 1.81133 105.437 1.378 105.715 1.066C106.009 0.754 106.391 0.528667 106.859 0.39C107.344 0.234 107.933 0.138666 108.627 0.104C109.32 0.0519998 110.135 0.0259997 111.071 0.0259997V2.106C110.343 2.106 109.753 2.132 109.303 2.184C108.869 2.21867 108.531 2.29667 108.289 2.418C108.063 2.53933 107.907 2.73 107.821 2.99C107.751 3.23267 107.717 3.55333 107.717 3.952V6.058H111.071V8.372H107.717V19.318H104.935ZM119.334 19.526C118.207 19.526 117.271 19.4567 116.526 19.318C115.78 19.162 115.182 18.9193 114.732 18.59C114.281 18.2433 113.943 17.81 113.718 17.29C113.492 16.7527 113.345 16.1113 113.276 15.366C113.206 14.6033 113.172 13.7193 113.172 12.714C113.172 11.518 113.232 10.4867 113.354 9.62C113.475 8.75333 113.726 8.04267 114.108 7.488C114.489 6.916 115.078 6.5 115.876 6.24C116.69 5.98 117.774 5.85 119.126 5.85C120.183 5.85 121.05 5.93667 121.726 6.11C122.402 6.266 122.93 6.51733 123.312 6.864C123.71 7.21067 123.996 7.66133 124.17 8.216C124.36 8.75333 124.482 9.40333 124.534 10.166C124.586 10.9113 124.612 11.7607 124.612 12.714V13.598H115.954C115.954 14.378 115.988 15.0107 116.058 15.496C116.127 15.964 116.283 16.328 116.526 16.588C116.786 16.8307 117.184 17.004 117.722 17.108C118.276 17.1947 119.022 17.238 119.958 17.238C120.356 17.238 120.79 17.2293 121.258 17.212C121.743 17.1947 122.237 17.16 122.74 17.108C123.242 17.056 123.693 17.0127 124.092 16.978V19.136C123.71 19.2053 123.251 19.266 122.714 19.318C122.176 19.3873 121.613 19.4393 121.024 19.474C120.434 19.5087 119.871 19.526 119.334 19.526ZM121.96 12.116V11.622C121.96 10.842 121.908 10.2267 121.804 9.776C121.717 9.308 121.561 8.96133 121.336 8.736C121.128 8.49333 120.833 8.33733 120.452 8.268C120.088 8.18133 119.628 8.138 119.074 8.138C118.38 8.138 117.826 8.19 117.41 8.294C117.011 8.38067 116.708 8.554 116.5 8.814C116.292 9.074 116.144 9.438 116.058 9.906C115.988 10.3567 115.954 10.9547 115.954 11.7H122.428L121.96 12.116ZM129.386 19.318V8.372H126.734V6.058H129.386V2.21H132.142V6.058H135.236V8.372H132.142V19.318H129.386ZM143.166 24.674C142.664 24.674 142.135 24.6567 141.58 24.622C141.043 24.6047 140.523 24.5787 140.02 24.544C139.535 24.5093 139.102 24.466 138.72 24.414V22.256C139.344 22.2733 139.882 22.2907 140.332 22.308C140.8 22.3253 141.216 22.334 141.58 22.334C141.944 22.3513 142.265 22.36 142.542 22.36C143.478 22.36 144.215 22.2993 144.752 22.178C145.29 22.0567 145.688 21.8487 145.948 21.554C146.208 21.2593 146.364 20.852 146.416 20.332C146.486 19.8293 146.52 19.188 146.52 18.408V17.602H146.364C146.191 17.9833 145.931 18.3127 145.584 18.59C145.255 18.85 144.813 19.058 144.258 19.214C143.721 19.3527 143.054 19.422 142.256 19.422C141.338 19.422 140.584 19.318 139.994 19.11C139.422 18.8847 138.98 18.564 138.668 18.148C138.374 17.7147 138.174 17.1773 138.07 16.536C137.966 15.8947 137.914 15.1493 137.914 14.3V6.058H140.67V13.208C140.67 14.0747 140.696 14.768 140.748 15.288C140.818 15.7907 140.948 16.1633 141.138 16.406C141.329 16.6487 141.606 16.8133 141.97 16.9C142.352 16.9693 142.854 17.004 143.478 17.004C144.172 17.004 144.726 16.9173 145.142 16.744C145.558 16.5707 145.862 16.3107 146.052 15.964C146.26 15.6173 146.39 15.184 146.442 14.664C146.494 14.144 146.52 13.5373 146.52 12.844V6.058H149.302V17.758C149.302 18.9887 149.233 20.0373 149.094 20.904C148.973 21.788 148.704 22.5073 148.288 23.062C147.89 23.6167 147.283 24.024 146.468 24.284C145.654 24.544 144.553 24.674 143.166 24.674Z" fill="#6FB018"/>
</svg>
