<svg width="97" height="74" viewBox="0 0 97 74" fill="none" xmlns="http://www.w3.org/2000/svg">
<path opacity="0.37" d="M37 9.48906e-05L44 17.6001C32.2667 21.6001 26.4 26.6001 26.4 32.6001C31.7333 32.6001 36.1333 34.5334 39.6 38.4001C43.2 42.2668 45 47.1334 45 53.0001C45 58.8668 42.9333 63.7334 38.8 67.6001C34.8 71.3334 29.5333 73.2001 23 73.2001C15.8 73.2001 10.1333 70.7334 6 65.8001C2 60.7334 2.38419e-07 53.8668 2.38419e-07 45.2001C2.38419e-07 33.7334 3.2 24.1334 9.6 16.4001C16 8.53343 25.1333 3.06676 37 9.48906e-05ZM89 9.48906e-05L96 17.6001C84.2667 21.6001 78.4 26.6001 78.4 32.6001C83.7333 32.6001 88.1333 34.5334 91.6 38.4001C95.2 42.2668 97 47.1334 97 53.0001C97 58.8668 94.9333 63.7334 90.8 67.6001C86.8 71.3334 81.5333 73.2001 75 73.2001C67.8 73.2001 62.1333 70.7334 58 65.8001C54 60.7334 52 53.8668 52 45.2001C52 33.7334 55.2 24.1334 61.6 16.4001C68 8.53343 77.1333 3.06676 89 9.48906e-05Z" fill="#AC8AC5"/>
</svg>
