<svg width="30" height="30" viewBox="0 0 30 30" fill="none" xmlns="http://www.w3.org/2000/svg">
<path d="M17.25 30C24.4665 28.9079 30 22.6463 30 15.0845C30 6.75332 23.2845 0 15 0C6.7155 0 0 6.75332 0 15.0845C0 22.6463 5.5335 28.9094 12.75 30V19.6098H10.5C9.90326 19.6098 9.33097 19.3714 8.90901 18.9471C8.48705 18.5228 8.25 17.9472 8.25 17.3471C8.25 16.747 8.48705 16.1715 8.90901 15.7472C9.33097 15.3229 9.90326 15.0845 10.5 15.0845H12.75V12.0676C12.75 10.6673 13.3031 9.32447 14.2877 8.33436C15.2723 7.34425 16.6076 6.78801 18 6.78801H18.75C19.3467 6.78801 19.919 7.0264 20.341 7.45073C20.7629 7.87507 21 8.45059 21 9.05068C21 9.65078 20.7629 10.2263 20.341 10.6506C19.919 11.075 19.3467 11.3134 18.75 11.3134H18C17.8011 11.3134 17.6103 11.3928 17.4697 11.5343C17.329 11.6757 17.25 11.8675 17.25 12.0676V15.0845H19.5C20.0967 15.0845 20.669 15.3229 21.091 15.7472C21.5129 16.1715 21.75 16.747 21.75 17.3471C21.75 17.9472 21.5129 18.5228 21.091 18.9471C20.669 19.3714 20.0967 19.6098 19.5 19.6098H17.25V30Z" fill="#B8B8B8"/>
</svg>
