<svg width="211" height="226" viewBox="0 0 211 226" fill="none" xmlns="http://www.w3.org/2000/svg">
<path d="M139.311 139.603C139.332 139.584 139.354 139.566 139.376 139.547L139.311 139.603Z" fill="#EFEDEA"/>
<path d="M84.619 158.386C84.6001 158.365 84.5813 158.344 84.5625 158.323L84.619 158.386Z" fill="#EFEDEA"/>
<path d="M125.547 172.498C125.573 172.487 125.599 172.476 125.625 172.465L125.547 172.498Z" fill="#EFEDEA"/>
<path d="M29.9018 201.525C18.8728 202.353 -6.89622 203.652 1.73854 211.785C4.42676 213.015 8.95142 212.721 11.2388 214.564C17.5093 219.535 23.2827 223.114 33.9006 223.929C51.9289 225.506 70.778 223.835 89.1854 224.051C104.402 224.07 119.855 225.976 135.087 225.988C147.774 226.192 159.645 223.695 172.027 222.514C190.024 221.699 210.842 221.312 210.057 209.908C208.192 199.061 160.35 200.169 147.555 200.457C134.148 200.833 75.0072 197.815 68.7499 198.484C55.5041 199.793 43.0604 200.5 29.9018 201.525Z" fill="#F2F2F2"/>
<path d="M100.972 174.527C95.6721 174.527 96.1666 178.034 92.5233 181.545C88.88 185.059 87.0621 189.388 87.0621 194.532C87.0621 200.332 84.4456 203.827 88.2137 207.051C91.9782 210.275 100.882 212.911 105.936 212.911C110.817 212.911 115.121 211.277 118.845 208.009C122.569 204.741 124.435 200.249 124.435 194.532C124.435 189.388 122.654 185.059 119.095 181.545C115.536 178.034 106.187 174.527 100.972 174.527Z" fill="#5E7ABF"/>
<path d="M160.601 43.4921C155.797 35.3674 148.981 28.9411 140.153 24.217C131.325 19.4929 121.127 17.1309 109.559 17.1309C97.1097 17.1309 86.2166 19.9653 76.8837 25.6265C67.5472 31.2875 60.4452 38.4323 55.581 47.0567C50.7134 55.685 48.2813 64.2001 48.2813 72.6019C48.2813 76.6467 44.3425 79.865 47.4135 83.3319C50.4844 86.8028 59.7286 89.0738 64.1974 89.0738C71.7759 89.0738 76.9225 84.0843 79.637 74.1012C82.5103 64.5749 86.0189 57.3599 90.17 52.464C94.3176 47.5682 100.781 45.1163 109.559 45.1163C117.057 45.1163 123.181 47.5447 127.929 52.3976C132.676 57.2545 135.052 63.2123 135.052 70.275C135.052 73.8942 134.272 77.248 132.719 80.3362C131.162 83.4283 129.249 86.2316 126.976 88.7459C124.702 91.2602 121.014 94.9887 115.91 99.9314C110.085 105.585 105.458 110.461 102.03 114.564C98.5993 118.672 95.8495 123.439 93.774 128.866C91.6984 134.292 90.6642 140.715 90.6642 148.129C90.6642 154.044 87.0678 158.149 89.8917 161.148C92.7155 164.15 101.204 166.002 105.341 166.002C113.298 166.002 118.031 161.411 119.542 152.228C120.424 147.903 121.084 144.881 121.526 143.159C121.963 141.441 122.585 139.719 123.386 137.998C124.187 136.276 125.408 134.378 127.053 132.301C128.695 130.228 130.88 127.823 133.605 125.086C143.375 115.373 150.149 108.466 153.922 104.359C157.696 100.252 160.954 95.3752 163.697 89.7219C166.436 84.0686 167.809 77.49 167.809 69.9822C167.809 60.4481 165.405 51.6168 160.601 43.4921Z" fill="#5E7ABF"/>
<path d="M99.1204 174.445C94.0268 174.445 89.731 176.169 86.2294 179.613C82.7278 183.061 80.9805 187.309 80.9805 192.356C80.9805 198.047 82.7878 202.475 86.4094 205.639C90.0275 208.802 94.2633 210.388 99.1204 210.388C103.812 210.388 107.949 208.785 111.528 205.578C115.107 202.372 116.9 197.965 116.9 192.356C116.9 187.309 115.188 183.061 111.768 179.613C108.347 176.169 104.133 174.445 99.1204 174.445Z" fill="#7693DB"/>
<path d="M153.066 40.9696C148.262 32.845 141.445 26.4186 132.617 21.6946C123.789 16.9705 113.592 14.6084 102.024 14.6084C89.5745 14.6084 78.6814 17.4429 69.3485 23.104C60.012 28.7651 52.91 35.9098 48.0458 44.5342C43.1782 53.1625 40.7461 61.6776 40.7461 70.0795C40.7461 74.1242 42.2816 77.8801 45.3525 81.347C48.4235 84.8178 52.1934 86.5513 56.6622 86.5513C64.2407 86.5513 69.3873 81.5617 72.1017 71.5787C74.9751 62.0523 78.4837 54.8374 82.6348 49.9415C86.7824 45.0456 93.2456 42.5938 102.024 42.5938C109.522 42.5938 115.646 45.0222 120.394 49.8751C125.141 54.732 127.517 60.6898 127.517 67.7525C127.517 71.3718 126.737 74.7255 125.184 77.8137C123.627 80.9059 121.714 83.7091 119.44 86.2234C117.167 88.7378 113.479 92.4662 108.374 97.409C102.55 103.062 97.9226 107.939 94.4951 112.042C91.0641 116.149 88.3143 120.916 86.2388 126.343C84.1632 131.77 83.1289 138.192 83.1289 145.606C83.1289 151.521 84.5409 155.98 87.3647 158.978C90.1886 161.981 93.6691 163.48 97.806 163.48C105.762 163.48 110.496 158.889 112.007 149.706C112.889 145.38 113.549 142.358 113.99 140.636C114.428 138.919 115.049 137.197 115.851 135.475C116.652 133.753 117.873 131.856 119.518 129.779C121.159 127.706 123.344 125.301 126.069 122.564C135.84 112.85 142.614 105.944 146.387 101.836C150.161 97.7292 153.419 92.8528 156.161 87.1995C158.901 81.5462 160.274 74.9675 160.274 67.4598C160.274 57.9257 157.87 49.0943 153.066 40.9696Z" fill="#7693DB"/>
<path d="M32.4187 29.9842C32.4022 29.2472 31.8822 28.7034 31.1463 28.6578C30.6886 28.6296 30.2281 28.6467 29.7692 28.6439C29.6853 28.6431 29.6041 28.6614 29.5659 28.544C29.4686 28.2429 29.3477 27.9506 29.2063 27.6674C29.1606 27.5753 29.1969 27.5253 29.2579 27.4646C29.5522 27.1723 29.8444 26.8776 30.1352 26.5817C30.7162 25.9907 30.7642 25.2362 30.2104 24.6194C29.7357 24.0911 29.2311 23.5861 28.7068 23.1078C28.1085 22.562 27.3686 22.6024 26.788 23.1697C26.4866 23.4644 26.1916 23.7658 25.8978 24.0681C25.8245 24.1439 25.7662 24.1665 25.6619 24.1137C25.405 23.984 25.1423 23.863 24.8657 23.7805C24.7405 23.7432 24.7097 23.6727 24.7113 23.5497C24.7172 23.1201 24.7141 22.6906 24.712 22.2609C24.7113 22.1225 24.7042 21.9844 24.6596 21.8504C24.4745 21.2947 24.0774 20.9948 23.5201 20.8857H21.1566C20.3345 21.0364 19.9142 21.6703 19.9591 22.4204C19.9812 22.7826 19.956 23.1475 19.9662 23.5108C19.9705 23.6648 19.9343 23.7445 19.774 23.7949C19.5321 23.871 19.2954 23.9737 19.0701 24.0916C18.9243 24.1677 18.8428 24.1404 18.7368 24.0273C18.4619 23.7346 18.1767 23.451 17.8895 23.1702C17.2908 22.5847 16.5116 22.5732 15.9081 23.1547C15.4339 23.6112 14.9698 24.0797 14.5152 24.5561C13.948 25.1507 13.9303 25.8872 14.4751 26.5072C14.7571 26.8281 15.0659 27.1268 15.3791 27.4175C15.5032 27.5326 15.504 27.6282 15.4339 27.7563C15.3102 27.9828 15.2192 28.2236 15.1396 28.4675C15.097 28.5992 15.0383 28.6508 14.8906 28.6464C14.4183 28.6329 13.9456 28.6257 13.4737 28.6579C12.8915 28.6979 12.3535 29.1656 12.292 29.7471C12.2037 30.5824 12.2203 31.4254 12.2798 32.2604C12.3271 32.9204 12.8592 33.3861 13.5163 33.4218C13.9744 33.4468 14.4345 33.4404 14.8938 33.4349C15.0254 33.4337 15.0943 33.4622 15.1341 33.5975C15.2124 33.8629 15.3204 34.1187 15.4496 34.3635C15.5075 34.4733 15.4992 34.5447 15.4067 34.6344C15.108 34.9224 14.8182 35.2191 14.5278 35.5158C13.9677 36.0878 13.9164 36.8318 14.4439 37.4308C14.8918 37.9393 15.3853 38.407 15.8655 38.8858C16.495 39.5137 17.2884 39.5101 17.9174 38.883C18.2022 38.5994 18.4866 38.3153 18.7656 38.0262C18.8502 37.939 18.9188 37.9147 19.0354 37.9766C19.2839 38.1083 19.5451 38.2162 19.8137 38.3007C19.9268 38.3363 19.9646 38.3974 19.9634 38.516C19.9579 38.9456 19.9611 39.3752 19.9646 39.8048C19.9709 40.5977 20.5177 41.1749 21.3024 41.1915C21.9909 41.2057 22.6807 41.2054 23.3696 41.1915C24.1562 41.1756 24.7058 40.6013 24.7125 39.8107C24.7161 39.3812 24.7184 38.9516 24.7137 38.522C24.7125 38.4069 24.7416 38.3387 24.8579 38.3026C25.1273 38.2193 25.3869 38.1083 25.6366 37.9786C25.7572 37.9163 25.8312 37.9421 25.923 38.0361C26.2586 38.38 26.5891 38.7315 26.9495 39.0476C27.414 39.4545 28.1242 39.4621 28.5961 39.0631C29.1898 38.5617 29.7318 38.0017 30.2438 37.4185C30.7473 36.8458 30.7103 36.1191 30.1919 35.561C29.8917 35.2377 29.5754 34.9295 29.2591 34.6217C29.1779 34.5428 29.17 34.4797 29.2189 34.3841C29.3505 34.1259 29.4635 33.8586 29.549 33.5813C29.5841 33.4671 29.6416 33.4314 29.761 33.4337C30.1741 33.4425 30.5878 33.4337 31.0014 33.4393C31.8747 33.4504 32.4108 32.7852 32.4206 32.1057C32.4309 31.3987 32.4345 30.691 32.4187 29.9842ZM25.691 31.0469C25.695 32.9024 24.1957 34.4125 22.3427 34.4184C20.5067 34.4244 18.9905 32.9139 18.9858 31.0742C18.9811 29.181 20.4665 27.6661 22.3345 27.6602C24.1851 27.6542 25.6871 29.1698 25.691 31.0469Z" fill="url(#paint0_linear_216_5218)"/>
<path d="M77.5476 116.28C77.5311 115.543 77.0112 114.999 76.2753 114.953C75.8175 114.925 75.3571 114.942 74.8982 114.939C74.8143 114.939 74.7331 114.957 74.6949 114.839C74.5976 114.538 74.4767 114.246 74.3353 113.963C74.2896 113.871 74.3258 113.821 74.3869 113.76C74.6811 113.468 74.9734 113.173 75.2641 112.877C75.8451 112.286 75.8931 111.532 75.3393 110.915C74.8646 110.386 74.36 109.881 73.8357 109.403C73.2373 108.857 72.4975 108.898 71.9169 109.465C71.6156 109.76 71.3205 110.061 71.0267 110.364C70.9534 110.439 70.8952 110.462 70.7908 110.409C70.5339 110.279 70.2712 110.158 69.9947 110.076C69.8694 110.039 69.8387 109.968 69.8403 109.845C69.8462 109.416 69.843 108.986 69.8411 108.556C69.8403 108.418 69.8332 108.28 69.7887 108.146C69.6035 107.59 69.2065 107.29 68.649 107.181H66.2855C65.4634 107.332 65.0431 107.966 65.088 108.716C65.1101 109.078 65.0849 109.443 65.0951 109.806C65.0994 109.96 65.0632 110.04 64.9029 110.09C64.6611 110.166 64.4243 110.269 64.199 110.387C64.0532 110.463 63.9717 110.436 63.8657 110.323C63.5908 110.03 63.3056 109.746 63.0184 109.466C62.4196 108.88 61.6405 108.868 61.037 109.45C60.5628 109.907 60.0987 110.375 59.6442 110.851C59.077 111.446 59.0592 112.183 59.604 112.803C59.886 113.123 60.1948 113.422 60.508 113.713C60.6321 113.828 60.6329 113.924 60.5628 114.052C60.4391 114.278 60.3481 114.519 60.2685 114.763C60.2259 114.895 60.1672 114.946 60.0195 114.942C59.5472 114.928 59.0745 114.921 58.6026 114.953C58.0204 114.993 57.4823 115.461 57.4209 116.043C57.3327 116.878 57.3492 117.721 57.4087 118.556C57.456 119.216 57.9881 119.681 58.6452 119.717C59.1034 119.742 59.5634 119.736 60.0227 119.73C60.1544 119.729 60.2232 119.758 60.263 119.893C60.3414 120.158 60.4493 120.414 60.5785 120.659C60.6364 120.769 60.6281 120.84 60.5356 120.93C60.237 121.218 59.9471 121.514 59.6568 121.811C59.0966 122.383 59.0454 123.127 59.5729 123.726C60.0207 124.235 60.5143 124.702 60.9945 125.181C61.624 125.809 62.4173 125.806 63.0464 125.178C63.3312 124.895 63.6156 124.611 63.8945 124.322C63.9792 124.234 64.0478 124.21 64.1643 124.272C64.4129 124.404 64.6741 124.512 64.9427 124.596C65.0558 124.632 65.0936 124.693 65.0925 124.811C65.0869 125.241 65.0901 125.671 65.0937 126.1C65.0999 126.893 65.6467 127.47 66.4314 127.487C67.1199 127.501 67.8097 127.501 68.4986 127.487C69.2853 127.471 69.8348 126.897 69.8415 126.106C69.8451 125.677 69.8474 125.247 69.8427 124.817C69.8415 124.702 69.8707 124.634 69.9869 124.598C70.2563 124.515 70.5159 124.404 70.7657 124.274C70.8862 124.212 70.9603 124.237 71.052 124.332C71.3877 124.675 71.7181 125.027 72.0786 125.343C72.5431 125.75 73.2533 125.758 73.7252 125.358C74.3188 124.857 74.8608 124.297 75.3729 123.714C75.8763 123.141 75.8393 122.414 75.3209 121.856C75.0207 121.533 74.7044 121.225 74.3881 120.917C74.307 120.838 74.2991 120.775 74.3479 120.68C74.4796 120.421 74.5926 120.154 74.678 119.877C74.7131 119.762 74.7706 119.727 74.89 119.729C75.3032 119.738 75.7169 119.729 76.1304 119.735C77.0037 119.746 77.5399 119.081 77.5497 118.401C77.5598 117.694 77.5634 116.986 77.5476 116.28ZM70.8199 117.342C70.8239 119.198 69.3246 120.708 67.4716 120.714C65.6356 120.72 64.1194 119.209 64.1147 117.37C64.11 115.476 65.5954 113.961 67.4634 113.956C69.314 113.95 70.816 115.465 70.8199 117.342Z" fill="url(#paint1_linear_216_5218)"/>
<path d="M155.274 9.09855C155.258 8.36155 154.738 7.81777 154.002 7.77214C153.544 7.74398 153.084 7.761 152.625 7.75828C152.541 7.75746 152.46 7.77575 152.421 7.65835C152.324 7.35728 152.203 7.06495 152.062 6.78173C152.016 6.68971 152.052 6.63971 152.113 6.57902C152.408 6.28668 152.7 5.99195 152.991 5.69607C153.572 5.10508 153.62 4.35061 153.066 3.7338C152.591 3.20546 152.087 2.70048 151.562 2.22214C150.964 1.67634 150.224 1.71678 149.644 2.28397C149.342 2.57871 149.047 2.88015 148.753 3.18242C148.68 3.25818 148.622 3.28077 148.517 3.22805C148.261 3.09838 147.998 2.97737 147.721 2.89484C147.596 2.85756 147.565 2.78693 147.567 2.66396C147.573 2.23436 147.57 1.80481 147.568 1.37521C147.567 1.23679 147.56 1.09876 147.515 0.964651C147.33 0.40891 146.933 0.109047 146.376 0H144.012C143.19 0.150691 142.77 0.784596 142.815 1.53463C142.837 1.89677 142.811 2.26169 142.822 2.62504C142.826 2.77895 142.79 2.85864 142.629 2.90901C142.388 2.98515 142.151 3.08793 141.926 3.20572C141.78 3.28185 141.698 3.25451 141.592 3.14141C141.317 2.8487 141.032 2.56504 140.745 2.28423C140.146 1.69874 139.367 1.68729 138.764 2.26872C138.289 2.72529 137.825 3.19375 137.371 3.67013C136.803 4.26473 136.786 5.00135 137.331 5.62133C137.613 5.9422 137.921 6.24093 138.235 6.53168C138.359 6.64667 138.359 6.7423 138.289 6.8704C138.166 7.09691 138.075 7.33766 137.995 7.58164C137.952 7.71334 137.894 7.76492 137.746 7.76049C137.274 7.74701 136.801 7.73986 136.329 7.77201C135.747 7.81207 135.209 8.27972 135.147 8.86122C135.059 9.69657 135.076 10.5395 135.135 11.3745C135.183 12.0345 135.715 12.5002 136.372 12.5359C136.83 12.5609 137.29 12.5545 137.749 12.549C137.881 12.5478 137.95 12.5763 137.99 12.7117C138.068 12.977 138.176 13.2328 138.305 13.4776C138.363 13.5874 138.355 13.6588 138.262 13.7485C137.963 14.0365 137.674 14.3332 137.383 14.6299C136.823 15.2019 136.772 15.946 137.299 16.5449C137.747 17.0535 138.241 17.5211 138.721 17.9999C139.35 18.6278 140.144 18.6242 140.773 17.9971C141.058 17.7135 141.342 17.4295 141.621 17.1403C141.706 17.053 141.774 17.0288 141.891 17.0907C142.139 17.2224 142.401 17.3304 142.669 17.4148C142.782 17.4505 142.82 17.5116 142.819 17.6302C142.813 18.0597 142.816 18.4893 142.82 18.9189C142.826 19.7119 143.373 20.289 144.158 20.3056C144.846 20.3199 145.536 20.3195 146.225 20.3056C147.012 20.2897 147.561 19.7154 147.568 18.9249C147.571 18.4953 147.574 18.0657 147.569 17.6361C147.568 17.5211 147.597 17.4528 147.713 17.4167C147.983 17.3335 148.242 17.2224 148.492 17.0927C148.613 17.0304 148.687 17.0562 148.778 17.1502C149.114 17.4942 149.445 17.8456 149.805 18.1617C150.269 18.5687 150.98 18.5762 151.452 18.1772C152.045 17.6758 152.587 17.1157 153.099 16.5327C153.603 15.9599 153.566 15.2332 153.047 14.6751C152.747 14.3519 152.431 14.0436 152.115 13.7359C152.033 13.6569 152.026 13.5938 152.074 13.4983C152.206 13.2401 152.319 12.9727 152.405 12.6955C152.44 12.5812 152.497 12.5455 152.616 12.5479C153.03 12.5566 153.443 12.5479 153.857 12.5534C154.73 12.5646 155.266 11.8993 155.276 11.2199C155.286 10.513 155.29 9.80536 155.274 9.09855ZM148.547 10.1612C148.551 12.0167 147.051 13.5268 145.198 13.5328C143.362 13.5387 141.846 12.0283 141.841 10.1885C141.837 8.29529 143.322 6.7804 145.19 6.77445C147.041 6.76857 148.543 8.28421 148.547 10.1612Z" fill="url(#paint2_linear_216_5218)"/>
<path d="M178.183 20.9453C161.715 20.9453 148.365 30.1031 148.365 41.3999C148.365 46.5568 151.148 51.2674 155.739 54.8652L151.72 64.3878L163.301 59.1284C167.681 60.8621 172.763 61.8544 178.183 61.8544C194.65 61.8544 208 52.6966 208 41.3999C208 30.1031 194.65 20.9453 178.183 20.9453Z" fill="#FFE2A5"/>
<path d="M171.169 41.7891C171.383 40.4591 170.486 39.206 169.166 38.9902C167.845 38.7744 166.601 39.6775 166.386 41.0075C166.172 42.3374 167.069 43.5905 168.389 43.8063C169.71 44.0222 170.955 43.119 171.169 41.7891Z" fill="white"/>
<path d="M180.581 41.7891C180.795 40.4591 179.899 39.206 178.578 38.9902C177.257 38.7744 176.013 39.6775 175.798 41.0075C175.584 42.3374 176.481 43.5905 177.802 43.8063C179.122 44.0222 180.367 43.119 180.581 41.7891Z" fill="white"/>
<path d="M190.003 41.7018C190.167 40.3646 189.223 39.1471 187.895 38.9825C186.567 38.8179 185.358 39.7684 185.194 41.1056C185.031 42.4428 185.975 43.6603 187.303 43.825C188.631 43.9896 189.84 43.0391 190.003 41.7018Z" fill="white"/>
<defs>
<linearGradient id="paint0_linear_216_5218" x1="22.33" y1="20.8857" x2="22.33" y2="37.2936" gradientUnits="userSpaceOnUse">
<stop stop-color="white"/>
<stop offset="0.40562" stop-color="#EFECF4"/>
<stop offset="1" stop-color="#F2F8EB"/>
</linearGradient>
<linearGradient id="paint1_linear_216_5218" x1="67.4589" y1="107.181" x2="67.4589" y2="123.589" gradientUnits="userSpaceOnUse">
<stop stop-color="white"/>
<stop offset="0.40562" stop-color="#EFECF4"/>
<stop offset="1" stop-color="#F2F8EB"/>
</linearGradient>
<linearGradient id="paint2_linear_216_5218" x1="145.185" y1="1.92987e-08" x2="145.185" y2="16.4078" gradientUnits="userSpaceOnUse">
<stop stop-color="white"/>
<stop offset="0.40562" stop-color="#EFECF4"/>
<stop offset="1" stop-color="#F2F8EB"/>
</linearGradient>
</defs>
</svg>
