<svg width="32" height="32" viewBox="0 0 32 32" fill="none" xmlns="http://www.w3.org/2000/svg">
<mask id="mask0_2065_2828" style="mask-type:alpha" maskUnits="userSpaceOnUse" x="0" y="0" width="32" height="32">
<rect width="32" height="32" fill="#D9D9D9"/>
</mask>
<g mask="url(#mask0_2065_2828)">
<path d="M13.767 15.9987C14.1448 15.9987 14.4614 15.8709 14.717 15.6154C14.9725 15.3598 15.1003 15.0431 15.1003 14.6654C15.1003 14.2876 14.9725 13.9709 14.717 13.7154C14.4614 13.4598 14.1448 13.332 13.767 13.332C13.3892 13.332 13.0725 13.4598 12.817 13.7154C12.5614 13.9709 12.4337 14.2876 12.4337 14.6654C12.4337 15.0431 12.5614 15.3598 12.817 15.6154C13.0725 15.8709 13.3892 15.9987 13.767 15.9987ZM9.33366 15.9987C9.71144 15.9987 10.0281 15.8709 10.2837 15.6154C10.5392 15.3598 10.667 15.0431 10.667 14.6654C10.667 14.2876 10.5392 13.9709 10.2837 13.7154C10.0281 13.4598 9.71144 13.332 9.33366 13.332C8.95588 13.332 8.63921 13.4598 8.38366 13.7154C8.1281 13.9709 8.00033 14.2876 8.00033 14.6654C8.00033 15.0431 8.1281 15.3598 8.38366 15.6154C8.63921 15.8709 8.95588 15.9987 9.33366 15.9987ZM18.2337 15.9987C18.6114 15.9987 18.9281 15.8709 19.1837 15.6154C19.4392 15.3598 19.567 15.0431 19.567 14.6654C19.567 14.2876 19.4392 13.9709 19.1837 13.7154C18.9281 13.4598 18.6114 13.332 18.2337 13.332C17.8559 13.332 17.5392 13.4598 17.2837 13.7154C17.0281 13.9709 16.9003 14.2876 16.9003 14.6654C16.9003 15.0431 17.0281 15.3598 17.2837 15.6154C17.5392 15.8709 17.8559 15.9987 18.2337 15.9987ZM22.667 15.9987C23.0448 15.9987 23.3614 15.8709 23.617 15.6154C23.8725 15.3598 24.0003 15.0431 24.0003 14.6654C24.0003 14.2876 23.8725 13.9709 23.617 13.7154C23.3614 13.4598 23.0448 13.332 22.667 13.332C22.2892 13.332 21.9725 13.4598 21.717 13.7154C21.4614 13.9709 21.3337 14.2876 21.3337 14.6654C21.3337 15.0431 21.4614 15.3598 21.717 15.6154C21.9725 15.8709 22.2892 15.9987 22.667 15.9987ZM5.33366 21.332H26.667V7.9987H5.33366V21.332ZM16.0003 26.6654C13.8003 26.6654 11.917 26.5154 10.3503 26.2154C8.78366 25.9154 8.00033 25.5543 8.00033 25.132V23.9987H5.33366C4.60033 23.9987 3.97255 23.7376 3.45033 23.2154C2.9281 22.6931 2.66699 22.0654 2.66699 21.332V7.9987C2.66699 7.26536 2.9281 6.63759 3.45033 6.11536C3.97255 5.59314 4.60033 5.33203 5.33366 5.33203H26.667C27.4003 5.33203 28.0281 5.59314 28.5503 6.11536C29.0725 6.63759 29.3337 7.26536 29.3337 7.9987V21.332C29.3337 22.0654 29.0725 22.6931 28.5503 23.2154C28.0281 23.7376 27.4003 23.9987 26.667 23.9987H24.0003V25.132C24.0003 25.5543 23.217 25.9154 21.6503 26.2154C20.0837 26.5154 18.2003 26.6654 16.0003 26.6654Z" fill="white"/>
</g>
</svg>
