<svg width="32" height="32" viewBox="0 0 32 32" fill="none" xmlns="http://www.w3.org/2000/svg">
<mask id="mask0_2065_2934" style="mask-type:alpha" maskUnits="userSpaceOnUse" x="0" y="0" width="32" height="32">
<rect width="32" height="32" fill="#D9D9D9"/>
</mask>
<g mask="url(#mask0_2065_2934)">
<path d="M4 26.6654V23.9987H7.66667L7.13333 23.532C5.97778 22.5098 5.16667 21.3431 4.7 20.032C4.23333 18.7209 4 17.3987 4 16.0654C4 13.5987 4.73889 11.4043 6.21667 9.48203C7.69444 7.55981 9.62222 6.28759 12 5.66536V8.46536C10.4 9.04314 9.11111 10.0265 8.13333 11.4154C7.15556 12.8043 6.66667 14.3543 6.66667 16.0654C6.66667 17.0654 6.85556 18.0376 7.23333 18.982C7.61111 19.9265 8.2 20.7987 9 21.5987L9.33333 21.932V18.6654H12V26.6654H4ZM27.9 14.6654H25.2C25.0889 13.8876 24.85 13.1431 24.4833 12.432C24.1167 11.7209 23.6222 11.0431 23 10.3987L22.6667 10.0654V13.332H20V5.33203H28V7.9987H24.3333L24.8667 8.46536C25.7778 9.3987 26.4778 10.3876 26.9667 11.432C27.4556 12.4765 27.7667 13.5543 27.9 14.6654ZM22.6667 30.6654L22.2667 28.6654C22 28.5543 21.75 28.4376 21.5167 28.3154C21.2833 28.1931 21.0444 28.0431 20.8 27.8654L18.8667 28.4654L17.5333 26.1987L19.0667 24.8654C19.0222 24.5543 19 24.2654 19 23.9987C19 23.732 19.0222 23.4431 19.0667 23.132L17.5333 21.7987L18.8667 19.532L20.8 20.132C21.0444 19.9543 21.2833 19.8043 21.5167 19.682C21.75 19.5598 22 19.4431 22.2667 19.332L22.6667 17.332H25.3333L25.7333 19.332C26 19.4431 26.25 19.5654 26.4833 19.6987C26.7167 19.832 26.9556 19.9987 27.2 20.1987L29.1333 19.532L30.4667 21.8654L28.9333 23.1987C28.9778 23.4654 29 23.7431 29 24.032C29 24.3209 28.9778 24.5987 28.9333 24.8654L30.4667 26.1987L29.1333 28.4654L27.2 27.8654C26.9556 28.0431 26.7167 28.1931 26.4833 28.3154C26.25 28.4376 26 28.5543 25.7333 28.6654L25.3333 30.6654H22.6667ZM24 26.6654C24.7333 26.6654 25.3611 26.4043 25.8833 25.882C26.4056 25.3598 26.6667 24.732 26.6667 23.9987C26.6667 23.2654 26.4056 22.6376 25.8833 22.1154C25.3611 21.5931 24.7333 21.332 24 21.332C23.2667 21.332 22.6389 21.5931 22.1167 22.1154C21.5944 22.6376 21.3333 23.2654 21.3333 23.9987C21.3333 24.732 21.5944 25.3598 22.1167 25.882C22.6389 26.4043 23.2667 26.6654 24 26.6654Z" fill="white"/>
</g>
</svg>
