<svg width="18" height="15" viewBox="0 0 18 15" fill="none" xmlns="http://www.w3.org/2000/svg">
<path d="M1 6.36328C0.447715 6.36328 0 6.811 0 7.36328C0 7.91557 0.447715 8.36328 1 8.36328V7.36328V6.36328ZM17.7071 8.07039C18.0976 7.67986 18.0976 7.0467 17.7071 6.65617L11.3431 0.292213C10.9526 -0.0983109 10.3195 -0.0983109 9.92893 0.292213C9.53841 0.682738 9.53841 1.3159 9.92893 1.70643L15.5858 7.36328L9.92893 13.0201C9.53841 13.4107 9.53841 14.0438 9.92893 14.4343C10.3195 14.8249 10.9526 14.8249 11.3431 14.4343L17.7071 8.07039ZM1 7.36328V8.36328H17V7.36328V6.36328H1V7.36328Z" fill="#C7B0D8"/>
</svg>
