<svg width="32" height="32" viewBox="0 0 32 32" fill="none" xmlns="http://www.w3.org/2000/svg">
<mask id="mask0_2065_2918" style="mask-type:alpha" maskUnits="userSpaceOnUse" x="0" y="0" width="32" height="32">
<rect width="32" height="32" fill="#D9D9D9"/>
</mask>
<g mask="url(#mask0_2065_2918)">
<path d="M9.86619 23C8.93286 23.7778 7.96064 24.1333 6.94953 24.0667C5.93841 24 5.05508 23.6556 4.29953 23.0333C3.54397 22.4111 3.0273 21.5944 2.74953 20.5833C2.47175 19.5722 2.65508 18.5333 3.29953 17.4667L5.79953 13.3333C5.24397 12.8444 4.80508 12.2556 4.48286 11.5667C4.16064 10.8778 3.99953 10.1333 3.99953 9.33333C3.99953 7.86667 4.52175 6.61111 5.56619 5.56667C6.61064 4.52222 7.86619 4 9.33286 4C10.7995 4 12.0551 4.52222 13.0995 5.56667C14.144 6.61111 14.6662 7.86667 14.6662 9.33333C14.6662 10.8 14.144 12.0556 13.0995 13.1C12.0551 14.1444 10.7995 14.6667 9.33286 14.6667C9.13286 14.6667 8.93286 14.6556 8.73286 14.6333C8.53286 14.6111 8.34397 14.5778 8.16619 14.5333L5.59953 18.8667C5.35508 19.2667 5.2773 19.6611 5.36619 20.05C5.45508 20.4389 5.64397 20.7556 5.93286 21C6.22175 21.2444 6.56619 21.3833 6.96619 21.4167C7.36619 21.45 7.75508 21.3111 8.13286 21L22.1329 8.96667C23.0662 8.18889 24.044 7.83889 25.0662 7.91667C26.0884 7.99444 26.9773 8.34444 27.7329 8.96667C28.4884 9.58889 28.9995 10.4056 29.2662 11.4167C29.5329 12.4278 29.344 13.4667 28.6995 14.5333L26.1995 18.6667C26.7551 19.1556 27.194 19.7444 27.5162 20.4333C27.8384 21.1222 27.9995 21.8667 27.9995 22.6667C27.9995 24.1333 27.4773 25.3889 26.4329 26.4333C25.3884 27.4778 24.1329 28 22.6662 28C21.1995 28 19.944 27.4778 18.8995 26.4333C17.8551 25.3889 17.3329 24.1333 17.3329 22.6667C17.3329 21.2 17.8551 19.9444 18.8995 18.9C19.944 17.8556 21.1995 17.3333 22.6662 17.3333C22.8662 17.3333 23.0606 17.3444 23.2495 17.3667C23.4384 17.3889 23.6218 17.4222 23.7995 17.4667L26.3995 13.1333C26.644 12.7333 26.7218 12.3389 26.6329 11.95C26.544 11.5611 26.3551 11.2444 26.0662 11C25.7773 10.7556 25.4329 10.6167 25.0329 10.5833C24.6329 10.55 24.244 10.6889 23.8662 11L9.86619 23ZM9.33286 12C10.0662 12 10.694 11.7389 11.2162 11.2167C11.7384 10.6944 11.9995 10.0667 11.9995 9.33333C11.9995 8.6 11.7384 7.97222 11.2162 7.45C10.694 6.92778 10.0662 6.66667 9.33286 6.66667C8.59953 6.66667 7.97175 6.92778 7.44953 7.45C6.9273 7.97222 6.66619 8.6 6.66619 9.33333C6.66619 10.0667 6.9273 10.6944 7.44953 11.2167C7.97175 11.7389 8.59953 12 9.33286 12ZM22.6662 25.3333C23.3995 25.3333 24.0273 25.0722 24.5495 24.55C25.0718 24.0278 25.3329 23.4 25.3329 22.6667C25.3329 21.9333 25.0718 21.3056 24.5495 20.7833C24.0273 20.2611 23.3995 20 22.6662 20C21.9329 20 21.3051 20.2611 20.7829 20.7833C20.2606 21.3056 19.9995 21.9333 19.9995 22.6667C19.9995 23.4 20.2606 24.0278 20.7829 24.55C21.3051 25.0722 21.9329 25.3333 22.6662 25.3333Z" fill="white"/>
</g>
</svg>
