<svg width="32" height="32" viewBox="0 0 32 32" fill="none" xmlns="http://www.w3.org/2000/svg">
<mask id="mask0_2065_2821" style="mask-type:alpha" maskUnits="userSpaceOnUse" x="0" y="0" width="32" height="32">
<rect width="32" height="32" fill="#D9D9D9"/>
</mask>
<g mask="url(#mask0_2065_2821)">
<path d="M18.667 27.9987C19.0448 27.9987 19.3614 27.8709 19.617 27.6154C19.8725 27.3598 20.0003 27.0431 20.0003 26.6654C20.0003 26.2876 19.8725 25.9709 19.617 25.7154C19.3614 25.4598 19.0448 25.332 18.667 25.332C18.2892 25.332 17.9725 25.4598 17.717 25.7154C17.4614 25.9709 17.3337 26.2876 17.3337 26.6654C17.3337 27.0431 17.4614 27.3598 17.717 27.6154C17.9725 27.8709 18.2892 27.9987 18.667 27.9987ZM26.667 14.6654C27.0448 14.6654 27.3614 14.5376 27.617 14.282C27.8725 14.0265 28.0003 13.7098 28.0003 13.332C28.0003 12.9543 27.8725 12.6376 27.617 12.382C27.3614 12.1265 27.0448 11.9987 26.667 11.9987C26.2892 11.9987 25.9725 12.1265 25.717 12.382C25.4614 12.6376 25.3337 12.9543 25.3337 13.332C25.3337 13.7098 25.4614 14.0265 25.717 14.282C25.9725 14.5376 26.2892 14.6654 26.667 14.6654ZM8.00033 14.6654H14.667V11.9987H8.00033V14.6654ZM8.00033 19.9987H14.667V17.332H8.00033V19.9987ZM5.33366 26.6654C4.60033 26.6654 3.97255 26.4043 3.45033 25.882C2.9281 25.3598 2.66699 24.732 2.66699 23.9987V7.9987C2.66699 7.26536 2.9281 6.63759 3.45033 6.11536C3.97255 5.59314 4.60033 5.33203 5.33366 5.33203H26.667C27.4003 5.33203 28.0281 5.59314 28.5503 6.11536C29.0725 6.63759 29.3337 7.26536 29.3337 7.9987H5.33366V23.9987H12.0003V26.6654H5.33366ZM18.667 30.6654C17.5559 30.6654 16.6114 30.2765 15.8337 29.4987C15.0559 28.7209 14.667 27.7765 14.667 26.6654C14.667 25.7987 14.917 25.0209 15.417 24.332C15.917 23.6431 16.5559 23.1654 17.3337 22.8987V18.6654H25.3337V17.0987C24.5559 16.832 23.917 16.3543 23.417 15.6654C22.917 14.9765 22.667 14.1987 22.667 13.332C22.667 12.2209 23.0559 11.2765 23.8337 10.4987C24.6114 9.72092 25.5559 9.33203 26.667 9.33203C27.7781 9.33203 28.7225 9.72092 29.5003 10.4987C30.2781 11.2765 30.667 12.2209 30.667 13.332C30.667 14.1987 30.417 14.9765 29.917 15.6654C29.417 16.3543 28.7781 16.832 28.0003 17.0987V21.332H20.0003V22.8987C20.7781 23.1654 21.417 23.6431 21.917 24.332C22.417 25.0209 22.667 25.7987 22.667 26.6654C22.667 27.7765 22.2781 28.7209 21.5003 29.4987C20.7225 30.2765 19.7781 30.6654 18.667 30.6654Z" fill="white"/>
</g>
</svg>
