<svg width="32" height="32" viewBox="0 0 32 32" fill="none" xmlns="http://www.w3.org/2000/svg">
<mask id="mask0_2065_2792" style="mask-type:alpha" maskUnits="userSpaceOnUse" x="0" y="0" width="32" height="32">
<rect width="32" height="32" fill="#D9D9D9"/>
</mask>
<g mask="url(#mask0_2065_2792)">
<path d="M15.9998 29.3346C14.1776 29.3346 12.4554 28.9846 10.8332 28.2846C9.21095 27.5846 7.79428 26.6291 6.58317 25.418C5.37206 24.2069 4.4165 22.7902 3.7165 21.168C3.0165 19.5457 2.6665 17.8235 2.6665 16.0013C2.6665 14.1569 3.0165 12.4291 3.7165 10.818C4.4165 9.20686 5.37206 7.79575 6.58317 6.58464C7.79428 5.37352 9.21095 4.41797 10.8332 3.71797C12.4554 3.01797 14.1776 2.66797 15.9998 2.66797C17.8443 2.66797 19.5721 3.01797 21.1832 3.71797C22.7943 4.41797 24.2054 5.37352 25.4165 6.58464C26.6276 7.79575 27.5832 9.20686 28.2832 10.818C28.9832 12.4291 29.3332 14.1569 29.3332 16.0013C29.3332 17.8235 28.9832 19.5457 28.2832 21.168C27.5832 22.7902 26.6276 24.2069 25.4165 25.418C24.2054 26.6291 22.7943 27.5846 21.1832 28.2846C19.5721 28.9846 17.8443 29.3346 15.9998 29.3346ZM15.9998 26.6013C16.5776 25.8013 17.0776 24.968 17.4998 24.1013C17.9221 23.2346 18.2665 22.3124 18.5332 21.3346H13.4665C13.7332 22.3124 14.0776 23.2346 14.4998 24.1013C14.9221 24.968 15.4221 25.8013 15.9998 26.6013ZM12.5332 26.068C12.1332 25.3346 11.7832 24.5735 11.4832 23.7846C11.1832 22.9957 10.9332 22.1791 10.7332 21.3346H6.79984C7.44428 22.4457 8.24984 23.4124 9.2165 24.2346C10.1832 25.0569 11.2887 25.668 12.5332 26.068ZM19.4665 26.068C20.7109 25.668 21.8165 25.0569 22.7832 24.2346C23.7498 23.4124 24.5554 22.4457 25.1998 21.3346H21.2665C21.0665 22.1791 20.8165 22.9957 20.5165 23.7846C20.2165 24.5735 19.8665 25.3346 19.4665 26.068ZM5.6665 18.668H10.1998C10.1332 18.2235 10.0832 17.7846 10.0498 17.3513C10.0165 16.918 9.99984 16.468 9.99984 16.0013C9.99984 15.5346 10.0165 15.0846 10.0498 14.6513C10.0832 14.218 10.1332 13.7791 10.1998 13.3346H5.6665C5.55539 13.7791 5.47206 14.218 5.4165 14.6513C5.36095 15.0846 5.33317 15.5346 5.33317 16.0013C5.33317 16.468 5.36095 16.918 5.4165 17.3513C5.47206 17.7846 5.55539 18.2235 5.6665 18.668ZM12.8665 18.668H19.1332C19.1998 18.2235 19.2498 17.7846 19.2832 17.3513C19.3165 16.918 19.3332 16.468 19.3332 16.0013C19.3332 15.5346 19.3165 15.0846 19.2832 14.6513C19.2498 14.218 19.1998 13.7791 19.1332 13.3346H12.8665C12.7998 13.7791 12.7498 14.218 12.7165 14.6513C12.6832 15.0846 12.6665 15.5346 12.6665 16.0013C12.6665 16.468 12.6832 16.918 12.7165 17.3513C12.7498 17.7846 12.7998 18.2235 12.8665 18.668ZM21.7998 18.668H26.3332C26.4443 18.2235 26.5276 17.7846 26.5832 17.3513C26.6387 16.918 26.6665 16.468 26.6665 16.0013C26.6665 15.5346 26.6387 15.0846 26.5832 14.6513C26.5276 14.218 26.4443 13.7791 26.3332 13.3346H21.7998C21.8665 13.7791 21.9165 14.218 21.9498 14.6513C21.9832 15.0846 21.9998 15.5346 21.9998 16.0013C21.9998 16.468 21.9832 16.918 21.9498 17.3513C21.9165 17.7846 21.8665 18.2235 21.7998 18.668ZM21.2665 10.668H25.1998C24.5554 9.55686 23.7498 8.59019 22.7832 7.76797C21.8165 6.94575 20.7109 6.33464 19.4665 5.93464C19.8665 6.66797 20.2165 7.42908 20.5165 8.21797C20.8165 9.00686 21.0665 9.82352 21.2665 10.668ZM13.4665 10.668H18.5332C18.2665 9.69019 17.9221 8.76797 17.4998 7.9013C17.0776 7.03464 16.5776 6.2013 15.9998 5.4013C15.4221 6.2013 14.9221 7.03464 14.4998 7.9013C14.0776 8.76797 13.7332 9.69019 13.4665 10.668ZM6.79984 10.668H10.7332C10.9332 9.82352 11.1832 9.00686 11.4832 8.21797C11.7832 7.42908 12.1332 6.66797 12.5332 5.93464C11.2887 6.33464 10.1832 6.94575 9.2165 7.76797C8.24984 8.59019 7.44428 9.55686 6.79984 10.668Z" fill="white"/>
</g>
</svg>
