<svg width="32" height="32" viewBox="0 0 32 32" fill="none" xmlns="http://www.w3.org/2000/svg">
<mask id="mask0_2065_2799" style="mask-type:alpha" maskUnits="userSpaceOnUse" x="0" y="0" width="32" height="32">
<rect width="32" height="32" fill="#D9D9D9"/>
</mask>
<g mask="url(#mask0_2065_2799)">
<path d="M6.66699 22.6654V13.332H9.33366V22.6654H6.66699ZM14.667 22.6654V13.332H17.3337V22.6654H14.667ZM2.66699 10.6654V7.9987L16.0003 1.33203L29.3337 7.9987V10.6654H2.66699ZM8.63366 7.9987H23.367L16.0003 4.33203L8.63366 7.9987ZM2.66699 27.9987V25.332H18.7337C18.7781 25.7987 18.8337 26.2487 18.9003 26.682C18.967 27.1154 19.067 27.5543 19.2003 27.9987H2.66699ZM22.667 17.6654V13.332H25.3337V16.332L22.667 17.6654ZM26.667 31.9987C25.1337 31.6209 23.8614 30.7376 22.8503 29.3487C21.8392 27.9598 21.3337 26.4209 21.3337 24.732V21.332L26.667 18.6654L32.0003 21.332V24.732C32.0003 26.4209 31.4948 27.9598 30.4837 29.3487C29.4725 30.7376 28.2003 31.6209 26.667 31.9987ZM25.7003 27.9987L30.3337 23.3987L28.9337 21.9987L25.7003 25.1654L24.4003 23.8654L23.0003 25.2987L25.7003 27.9987Z" fill="white"/>
</g>
</svg>
