<svg width="32" height="32" viewBox="0 0 32 32" fill="none" xmlns="http://www.w3.org/2000/svg">
<mask id="mask0_2065_2814" style="mask-type:alpha" maskUnits="userSpaceOnUse" x="0" y="0" width="32" height="32">
<rect width="32" height="32" fill="#D9D9D9"/>
</mask>
<g mask="url(#mask0_2065_2814)">
<path d="M6.66667 5.33464V13.368V13.3346V26.668V5.33464ZM6.66667 29.3346C5.93333 29.3346 5.30556 29.0735 4.78333 28.5513C4.26111 28.0291 4 27.4013 4 26.668V5.33464C4 4.6013 4.26111 3.97352 4.78333 3.4513C5.30556 2.92908 5.93333 2.66797 6.66667 2.66797H17.3333L25.3333 10.668V14.0013C24.9111 13.8235 24.4778 13.6846 24.0333 13.5846C23.5889 13.4846 23.1333 13.4124 22.6667 13.368V12.0013H16V5.33464H6.66667V26.668H14.7C15.0556 27.2013 15.4556 27.6957 15.9 28.1513C16.3444 28.6069 16.8333 29.0013 17.3667 29.3346H6.66667ZM22 25.3346C22.9333 25.3346 23.7222 25.0124 24.3667 24.368C25.0111 23.7235 25.3333 22.9346 25.3333 22.0013C25.3333 21.068 25.0111 20.2791 24.3667 19.6346C23.7222 18.9902 22.9333 18.668 22 18.668C21.0667 18.668 20.2778 18.9902 19.6333 19.6346C18.9889 20.2791 18.6667 21.068 18.6667 22.0013C18.6667 22.9346 18.9889 23.7235 19.6333 24.368C20.2778 25.0124 21.0667 25.3346 22 25.3346ZM28.8 30.668L25.2 27.068C24.7333 27.3791 24.2278 27.6124 23.6833 27.768C23.1389 27.9235 22.5778 28.0013 22 28.0013C20.3333 28.0013 18.9167 27.418 17.75 26.2513C16.5833 25.0846 16 23.668 16 22.0013C16 20.3346 16.5833 18.918 17.75 17.7513C18.9167 16.5846 20.3333 16.0013 22 16.0013C23.6667 16.0013 25.0833 16.5846 26.25 17.7513C27.4167 18.918 28 20.3346 28 22.0013C28 22.5791 27.9222 23.1402 27.7667 23.6846C27.6111 24.2291 27.3778 24.7346 27.0667 25.2013L30.6667 28.8013L28.8 30.668Z" fill="white"/>
</g>
</svg>
