<svg width="32" height="32" viewBox="0 0 32 32" fill="none" xmlns="http://www.w3.org/2000/svg">
<mask id="mask0_2065_2806" style="mask-type:alpha" maskUnits="userSpaceOnUse" x="0" y="0" width="32" height="32">
<rect width="32" height="32" fill="#D9D9D9"/>
</mask>
<g mask="url(#mask0_2065_2806)">
<path d="M15.8336 26.668C15.9225 26.668 16.0114 26.6457 16.1003 26.6013C16.1892 26.5569 16.2559 26.5124 16.3003 26.468L27.2336 15.5346C27.5003 15.268 27.6948 14.968 27.817 14.6346C27.9392 14.3013 28.0003 13.968 28.0003 13.6346C28.0003 13.2791 27.9392 12.9402 27.817 12.618C27.6948 12.2957 27.5003 12.0124 27.2336 11.768L21.567 6.1013C21.3225 5.83464 21.0392 5.64019 20.717 5.51797C20.3948 5.39575 20.0559 5.33464 19.7003 5.33464C19.367 5.33464 19.0336 5.39575 18.7003 5.51797C18.367 5.64019 18.067 5.83464 17.8003 6.1013L17.4336 6.46797L19.9003 8.96797C20.2336 9.27908 20.4781 9.63464 20.6336 10.0346C20.7892 10.4346 20.867 10.8569 20.867 11.3013C20.867 12.2346 20.5503 13.018 19.917 13.6513C19.2836 14.2846 18.5003 14.6013 17.567 14.6013C17.1225 14.6013 16.6948 14.5235 16.2836 14.368C15.8725 14.2124 15.5114 13.9791 15.2003 13.668L12.7003 11.2013L6.86698 17.0346C6.80031 17.1013 6.75031 17.1735 6.71698 17.2513C6.68365 17.3291 6.66698 17.4124 6.66698 17.5013C6.66698 17.6791 6.73365 17.8402 6.86698 17.9846C7.00031 18.1291 7.15587 18.2013 7.33365 18.2013C7.42253 18.2013 7.51142 18.1791 7.60031 18.1346C7.6892 18.0902 7.75587 18.0457 7.80031 18.0013L12.3336 13.468L14.2003 15.3346L9.70031 19.868C9.63365 19.9346 9.58365 20.0069 9.55031 20.0846C9.51698 20.1624 9.50031 20.2457 9.50031 20.3346C9.50031 20.5124 9.56698 20.668 9.70031 20.8013C9.83365 20.9346 9.9892 21.0013 10.167 21.0013C10.2559 21.0013 10.3448 20.9791 10.4336 20.9346C10.5225 20.8902 10.5892 20.8457 10.6336 20.8013L15.167 16.3013L17.0336 18.168L12.5336 22.7013C12.467 22.7457 12.417 22.8124 12.3836 22.9013C12.3503 22.9902 12.3336 23.0791 12.3336 23.168C12.3336 23.3457 12.4003 23.5013 12.5336 23.6346C12.667 23.768 12.8225 23.8346 13.0003 23.8346C13.0892 23.8346 13.1725 23.818 13.2503 23.7846C13.3281 23.7513 13.4003 23.7013 13.467 23.6346L18.0003 19.1346L19.867 21.0013L15.3336 25.5346C15.267 25.6013 15.217 25.6735 15.1836 25.7513C15.1503 25.8291 15.1336 25.9124 15.1336 26.0013C15.1336 26.1791 15.2059 26.3346 15.3503 26.468C15.4948 26.6013 15.6559 26.668 15.8336 26.668ZM15.8003 29.3346C14.9781 29.3346 14.2503 29.0624 13.617 28.518C12.9836 27.9735 12.6114 27.2902 12.5003 26.468C11.7448 26.3569 11.1114 26.0457 10.6003 25.5346C10.0892 25.0235 9.77809 24.3902 9.66698 23.6346C8.91142 23.5235 8.28365 23.2069 7.78365 22.6846C7.28365 22.1624 6.97809 21.5346 6.86698 20.8013C6.02253 20.6902 5.33365 20.3235 4.80031 19.7013C4.26698 19.0791 4.00031 18.3457 4.00031 17.5013C4.00031 17.0569 4.08365 16.6291 4.25031 16.218C4.41698 15.8069 4.65587 15.4457 4.96698 15.1346L12.7003 7.43464L17.067 11.8013C17.1114 11.868 17.1781 11.918 17.267 11.9513C17.3559 11.9846 17.4448 12.0013 17.5336 12.0013C17.7336 12.0013 17.9003 11.9402 18.0336 11.818C18.167 11.6957 18.2336 11.5346 18.2336 11.3346C18.2336 11.2457 18.217 11.1569 18.1836 11.068C18.1503 10.9791 18.1003 10.9124 18.0336 10.868L13.267 6.1013C13.0225 5.83464 12.7392 5.64019 12.417 5.51797C12.0948 5.39575 11.7559 5.33464 11.4003 5.33464C11.067 5.33464 10.7336 5.39575 10.4003 5.51797C10.067 5.64019 9.76698 5.83464 9.50031 6.1013L4.80031 10.8346C4.60031 11.0346 4.43365 11.268 4.30031 11.5346C4.16698 11.8013 4.07809 12.068 4.03365 12.3346C3.9892 12.6013 3.9892 12.8735 4.03365 13.1513C4.07809 13.4291 4.16698 13.6902 4.30031 13.9346L2.36698 15.868C1.9892 15.3569 1.71142 14.7957 1.53365 14.1846C1.35587 13.5735 1.2892 12.9569 1.33365 12.3346C1.37809 11.7124 1.53365 11.1069 1.80031 10.518C2.06698 9.92908 2.43365 9.4013 2.90031 8.93464L7.60031 4.23464C8.13365 3.72352 8.72809 3.33464 9.38365 3.06797C10.0392 2.8013 10.7114 2.66797 11.4003 2.66797C12.0892 2.66797 12.7614 2.8013 13.417 3.06797C14.0725 3.33464 14.6559 3.72352 15.167 4.23464L15.5336 4.6013L15.9003 4.23464C16.4336 3.72352 17.0281 3.33464 17.6836 3.06797C18.3392 2.8013 19.0114 2.66797 19.7003 2.66797C20.3892 2.66797 21.0614 2.8013 21.717 3.06797C22.3725 3.33464 22.9559 3.72352 23.467 4.23464L29.1003 9.86797C29.6114 10.3791 30.0003 10.968 30.267 11.6346C30.5336 12.3013 30.667 12.9791 30.667 13.668C30.667 14.3569 30.5336 15.0291 30.267 15.6846C30.0003 16.3402 29.6114 16.9235 29.1003 17.4346L18.167 28.3346C17.8559 28.6457 17.4948 28.8902 17.0836 29.068C16.6725 29.2457 16.2448 29.3346 15.8003 29.3346Z" fill="white"/>
</g>
</svg>
