<svg width="32" height="32" viewBox="0 0 32 32" fill="none" xmlns="http://www.w3.org/2000/svg">
<mask id="mask0_2065_2862" style="mask-type:alpha" maskUnits="userSpaceOnUse" x="0" y="0" width="32" height="32">
<rect width="32" height="32" fill="#D9D9D9"/>
</mask>
<g mask="url(#mask0_2065_2862)">
<path d="M7.2 8H24.8L23.6667 6.66667H8.33333L7.2 8ZM13.3333 17L16 15.6667L18.6667 17V10.6667H13.3333V17ZM6.66667 28C5.93333 28 5.30556 27.7389 4.78333 27.2167C4.26111 26.6944 4 26.0667 4 25.3333V8.7C4 8.38889 4.05 8.08889 4.15 7.8C4.25 7.51111 4.4 7.24444 4.6 7L6.26667 4.96667C6.51111 4.65556 6.81667 4.41667 7.18333 4.25C7.55 4.08333 7.93333 4 8.33333 4H23.6667C24.0667 4 24.45 4.08333 24.8167 4.25C25.1833 4.41667 25.4889 4.65556 25.7333 4.96667L27.4 7C27.6 7.24444 27.75 7.51111 27.85 7.8C27.95 8.08889 28 8.38889 28 8.7V13.3333C27.5333 13.3333 27.0722 13.3667 26.6167 13.4333C26.1611 13.5 25.7333 13.6333 25.3333 13.8333V10.6667H21.3333V17.5L18.7667 20.0667L16 18.6667L10.6667 21.3333V10.6667H6.66667V25.3333H16V28H6.66667ZM18.6667 28V23.9L26.0333 16.5667C26.2333 16.3667 26.4556 16.2222 26.7 16.1333C26.9444 16.0444 27.1889 16 27.4333 16C27.7 16 27.9556 16.05 28.2 16.15C28.4444 16.25 28.6667 16.4 28.8667 16.6L30.1 17.8333C30.2778 18.0333 30.4167 18.2556 30.5167 18.5C30.6167 18.7444 30.6667 18.9889 30.6667 19.2333C30.6667 19.4778 30.6222 19.7278 30.5333 19.9833C30.4444 20.2389 30.3 20.4667 30.1 20.6667L22.7667 28H18.6667ZM20.6667 26H21.9333L25.9667 21.9333L25.3667 21.3L24.7333 20.7L20.6667 24.7333V26ZM25.3667 21.3L24.7333 20.7L25.9667 21.9333L25.3667 21.3Z" fill="white"/>
</g>
</svg>
