<svg width="32" height="32" viewBox="0 0 32 32" fill="none" xmlns="http://www.w3.org/2000/svg">
<mask id="mask0_2065_2926" style="mask-type:alpha" maskUnits="userSpaceOnUse" x="0" y="0" width="32" height="32">
<rect width="32" height="32" fill="#D9D9D9"/>
</mask>
<g mask="url(#mask0_2065_2926)">
<path d="M14.667 14.6654V5.33203H29.3337V14.6654H14.667ZM2.66699 26.6654V17.332H16.0003V26.6654H2.66699ZM2.66699 14.6654V5.33203H12.0003V14.6654H2.66699ZM17.3337 11.9987H26.667V7.9987H17.3337V11.9987ZM5.33366 23.9987H13.3337V19.9987H5.33366V23.9987ZM5.33366 11.9987H9.33366V7.9987H5.33366V11.9987ZM22.667 29.332L22.267 27.332C22.0003 27.2209 21.7503 27.1043 21.517 26.982C21.2837 26.8598 21.0448 26.7098 20.8003 26.532L18.867 27.132L17.5337 24.8654L19.067 23.532C19.0225 23.2431 19.0003 22.9543 19.0003 22.6654C19.0003 22.3765 19.0225 22.0876 19.067 21.7987L17.5337 20.4654L18.867 18.1987L20.8003 18.7987C21.0448 18.6209 21.2837 18.4709 21.517 18.3487C21.7503 18.2265 22.0003 18.1098 22.267 17.9987L22.667 15.9987H25.3337L25.7337 17.9987C26.0003 18.1098 26.2503 18.2265 26.4837 18.3487C26.717 18.4709 26.9559 18.6209 27.2003 18.7987L29.1337 18.1987L30.467 20.4654L28.9337 21.7987C28.9781 22.0876 29.0003 22.3765 29.0003 22.6654C29.0003 22.9543 28.9781 23.2431 28.9337 23.532L30.467 24.8654L29.1337 27.132L27.2003 26.532C26.9559 26.7098 26.717 26.8598 26.4837 26.982C26.2503 27.1043 26.0003 27.2209 25.7337 27.332L25.3337 29.332H22.667ZM24.0003 25.332C24.7337 25.332 25.3614 25.0709 25.8837 24.5487C26.4059 24.0265 26.667 23.3987 26.667 22.6654C26.667 21.932 26.4059 21.3043 25.8837 20.782C25.3614 20.2598 24.7337 19.9987 24.0003 19.9987C23.267 19.9987 22.6392 20.2598 22.117 20.782C21.5948 21.3043 21.3337 21.932 21.3337 22.6654C21.3337 23.3987 21.5948 24.0265 22.117 24.5487C22.6392 25.0709 23.267 25.332 24.0003 25.332Z" fill="white"/>
</g>
</svg>
