<svg width="32" height="32" viewBox="0 0 32 32" fill="none" xmlns="http://www.w3.org/2000/svg">
<mask id="mask0_2085_3866" style="mask-type:alpha" maskUnits="userSpaceOnUse" x="0" y="0" width="32" height="32">
<rect width="32" height="32" fill="#D9D9D9"/>
</mask>
<g mask="url(#mask0_2085_3866)">
<path d="M12.3329 29.3346L11.7996 25.068C11.5107 24.9569 11.2385 24.8235 10.9829 24.668C10.7274 24.5124 10.4774 24.3457 10.2329 24.168L6.26628 25.8346L2.59961 19.5013L6.03294 16.9013C6.01072 16.7457 5.99961 16.5957 5.99961 16.4513V15.5513C5.99961 15.4069 6.01072 15.2569 6.03294 15.1013L2.59961 12.5013L6.26628 6.16797L10.2329 7.83464C10.4774 7.65686 10.7329 7.49019 10.9996 7.33464C11.2663 7.17908 11.5329 7.04575 11.7996 6.93464L12.3329 2.66797H19.6663L20.1996 6.93464C20.4885 7.04575 20.7607 7.17908 21.0163 7.33464C21.2718 7.49019 21.5218 7.65686 21.7663 7.83464L25.7329 6.16797L29.3996 12.5013L26.9329 14.368C26.4441 14.1235 25.9441 13.918 25.4329 13.7513C24.9218 13.5846 24.3774 13.468 23.7996 13.4013L25.8996 11.8013L24.5996 9.53464L21.2996 10.9346C20.8107 10.4235 20.2718 9.99575 19.6829 9.6513C19.0941 9.30686 18.4552 9.04575 17.7663 8.86797L17.3329 5.33464H14.6996L14.2329 8.86797C13.5441 9.04575 12.9052 9.30686 12.3163 9.6513C11.7274 9.99575 11.1885 10.4124 10.6996 10.9013L7.39961 9.53464L6.09961 11.8013L8.96628 13.9346C8.85517 14.268 8.77739 14.6013 8.73294 14.9346C8.6885 15.268 8.66628 15.6235 8.66628 16.0013C8.66628 16.3569 8.6885 16.7013 8.73294 17.0346C8.77739 17.368 8.85517 17.7013 8.96628 18.0346L6.09961 20.2013L7.39961 22.468L10.6996 21.068C11.0774 21.4457 11.4829 21.7846 11.9163 22.0846C12.3496 22.3846 12.8218 22.6346 13.3329 22.8346C13.3552 24.1013 13.6163 25.2902 14.1163 26.4013C14.6163 27.5124 15.2885 28.4902 16.1329 29.3346H12.3329ZM13.6996 20.0346C13.8329 19.5902 13.9941 19.1624 14.1829 18.7513C14.3718 18.3402 14.5885 17.9457 14.8329 17.568C14.5885 17.3902 14.3996 17.1624 14.2663 16.8846C14.1329 16.6069 14.0663 16.3124 14.0663 16.0013C14.0663 15.4457 14.2607 14.9735 14.6496 14.5846C15.0385 14.1957 15.5107 14.0013 16.0663 14.0013C16.3774 14.0013 16.6774 14.0735 16.9663 14.218C17.2552 14.3624 17.4885 14.5569 17.6663 14.8013C18.0441 14.5569 18.4329 14.3402 18.8329 14.1513C19.2329 13.9624 19.6552 13.8124 20.0996 13.7013C19.6996 12.9902 19.1441 12.418 18.4329 11.9846C17.7218 11.5513 16.9329 11.3346 16.0663 11.3346C14.7552 11.3346 13.6496 11.7902 12.7496 12.7013C11.8496 13.6124 11.3996 14.7124 11.3996 16.0013C11.3996 16.8457 11.6052 17.6291 12.0163 18.3513C12.4274 19.0735 12.9885 19.6346 13.6996 20.0346ZM22.6663 26.668L26.6663 22.668L22.6663 18.668L21.7329 19.6013L24.1329 22.0013H18.6663V23.3346H24.0996L21.7329 25.7346L22.6663 26.668ZM22.6663 29.3346C20.8218 29.3346 19.2496 28.6846 17.9496 27.3846C16.6496 26.0846 15.9996 24.5124 15.9996 22.668C15.9996 20.8235 16.6496 19.2513 17.9496 17.9513C19.2496 16.6513 20.8218 16.0013 22.6663 16.0013C24.5107 16.0013 26.0829 16.6513 27.3829 17.9513C28.6829 19.2513 29.3329 20.8235 29.3329 22.668C29.3329 24.5124 28.6829 26.0846 27.3829 27.3846C26.0829 28.6846 24.5107 29.3346 22.6663 29.3346Z" fill="white"/>
</g>
</svg>
