<svg width="32" height="32" viewBox="0 0 32 32" fill="none" xmlns="http://www.w3.org/2000/svg">
<mask id="mask0_2085_3889" style="mask-type:alpha" maskUnits="userSpaceOnUse" x="0" y="0" width="32" height="32">
<rect width="32" height="32" fill="#D9D9D9"/>
</mask>
<g mask="url(#mask0_2085_3889)">
<path d="M6.66667 25.3333V6.66667V12.6333V12V25.3333ZM9.33333 17.3333H16.7C16.7444 16.8444 16.8556 16.3778 17.0333 15.9333C17.2111 15.4889 17.4333 15.0667 17.7 14.6667H9.33333V17.3333ZM9.33333 22.6667H14.5667C14.9444 22.2222 15.3778 21.8611 15.8667 21.5833C16.3556 21.3056 16.8667 21.0778 17.4 20.9C17.3111 20.7667 17.2333 20.6222 17.1667 20.4667C17.1 20.3111 17.0444 20.1556 17 20H9.33333V22.6667ZM9.33333 12H22.6667V9.33333H9.33333V12ZM6.66667 28C5.93333 28 5.30556 27.7389 4.78333 27.2167C4.26111 26.6944 4 26.0667 4 25.3333V6.66667C4 5.93333 4.26111 5.30556 4.78333 4.78333C5.30556 4.26111 5.93333 4 6.66667 4H25.3333C26.0667 4 26.6944 4.26111 27.2167 4.78333C27.7389 5.30556 28 5.93333 28 6.66667V15.2667C27.6889 14.6889 27.3111 14.1778 26.8667 13.7333C26.4222 13.2889 25.9111 12.9222 25.3333 12.6333V6.66667H6.66667V25.3333H13.4C13.3778 25.4667 13.3611 25.6 13.35 25.7333C13.3389 25.8667 13.3333 26 13.3333 26.1333V28H6.66667ZM22.6667 21.3333C21.7333 21.3333 20.9444 21.0111 20.3 20.3667C19.6556 19.7222 19.3333 18.9333 19.3333 18C19.3333 17.0667 19.6556 16.2778 20.3 15.6333C20.9444 14.9889 21.7333 14.6667 22.6667 14.6667C23.6 14.6667 24.3889 14.9889 25.0333 15.6333C25.6778 16.2778 26 17.0667 26 18C26 18.9333 25.6778 19.7222 25.0333 20.3667C24.3889 21.0111 23.6 21.3333 22.6667 21.3333ZM16 28V26.1333C16 25.6 16.1389 25.1056 16.4167 24.65C16.6944 24.1944 17.0889 23.8667 17.6 23.6667C18.4 23.3333 19.2278 23.0833 20.0833 22.9167C20.9389 22.75 21.8 22.6667 22.6667 22.6667C23.5333 22.6667 24.3944 22.75 25.25 22.9167C26.1056 23.0833 26.9333 23.3333 27.7333 23.6667C28.2444 23.8667 28.6389 24.1944 28.9167 24.65C29.1944 25.1056 29.3333 25.6 29.3333 26.1333V28H16Z" fill="white"/>
</g>
</svg>
