<svg width="39" height="37" viewBox="0 0 39 37" fill="none" xmlns="http://www.w3.org/2000/svg">
<path d="M17.5 36.75C15.0792 36.75 12.8042 36.2906 10.675 35.3719C8.54583 34.4531 6.69375 33.2063 5.11875 31.6313C3.54375 30.0563 2.29688 28.2042 1.37813 26.075C0.459375 23.9458 0 21.6708 0 19.25C0 16.8292 0.459375 14.5542 1.37813 12.425C2.29688 10.2958 3.54375 8.44375 5.11875 6.86875C6.69375 5.29375 8.54583 4.04688 10.675 3.12812C12.8042 2.20937 15.0792 1.75 17.5 1.75C18.4625 1.75 19.4104 1.82292 20.3438 1.96875C21.2771 2.11458 22.1812 2.33333 23.0562 2.625C23.7271 2.85833 24.15 3.20104 24.325 3.65313C24.5 4.10521 24.5146 4.55 24.3687 4.9875C24.2229 5.425 23.9531 5.76771 23.5594 6.01562C23.1656 6.26354 22.7208 6.28542 22.225 6.08125C21.4667 5.81875 20.701 5.61458 19.9281 5.46875C19.1552 5.32292 18.3458 5.25 17.5 5.25C13.6208 5.25 10.3177 6.61354 7.59063 9.34062C4.86354 12.0677 3.5 15.3708 3.5 19.25C3.5 23.1292 4.86354 26.4323 7.59063 29.1594C10.3177 31.8865 13.6208 33.25 17.5 33.25C21.3792 33.25 24.6823 31.8865 27.4094 29.1594C30.1365 26.4323 31.5 23.1292 31.5 19.25C31.5 18.725 31.4708 18.2 31.4125 17.675C31.3542 17.15 31.2667 16.6396 31.15 16.1438C31.0042 15.5896 31.0771 15.1375 31.3688 14.7875C31.6604 14.4375 32.025 14.2188 32.4625 14.1312C32.9 14.0437 33.3302 14.1094 33.7531 14.3281C34.176 14.5469 34.4604 14.9625 34.6063 15.575C34.7521 16.1583 34.8542 16.7563 34.9125 17.3687C34.9708 17.9813 35 18.6083 35 19.25C35 21.6708 34.5406 23.9458 33.6219 26.075C32.7031 28.2042 31.4563 30.0563 29.8813 31.6313C28.3063 33.2063 26.4542 34.4531 24.325 35.3719C22.1958 36.2906 19.9208 36.75 17.5 36.75ZM31.5 7H29.75C29.2542 7 28.8385 6.83229 28.5031 6.49688C28.1677 6.16146 28 5.74583 28 5.25C28 4.75417 28.1677 4.33854 28.5031 4.00313C28.8385 3.66771 29.2542 3.5 29.75 3.5H31.5V1.75C31.5 1.25417 31.6677 0.838542 32.0031 0.503125C32.3385 0.167708 32.7542 0 33.25 0C33.7458 0 34.1615 0.167708 34.4969 0.503125C34.8323 0.838542 35 1.25417 35 1.75V3.5H36.75C37.2458 3.5 37.6615 3.66771 37.9969 4.00313C38.3323 4.33854 38.5 4.75417 38.5 5.25C38.5 5.74583 38.3323 6.16146 37.9969 6.49688C37.6615 6.83229 37.2458 7 36.75 7H35V8.75C35 9.24583 34.8323 9.66146 34.4969 9.99687C34.1615 10.3323 33.7458 10.5 33.25 10.5C32.7542 10.5 32.3385 10.3323 32.0031 9.99687C31.6677 9.66146 31.5 9.24583 31.5 8.75V7ZM23.625 17.5C24.3542 17.5 24.974 17.2448 25.4844 16.7344C25.9948 16.224 26.25 15.6042 26.25 14.875C26.25 14.1458 25.9948 13.526 25.4844 13.0156C24.974 12.5052 24.3542 12.25 23.625 12.25C22.8958 12.25 22.276 12.5052 21.7656 13.0156C21.2552 13.526 21 14.1458 21 14.875C21 15.6042 21.2552 16.224 21.7656 16.7344C22.276 17.2448 22.8958 17.5 23.625 17.5ZM11.375 17.5C12.1042 17.5 12.724 17.2448 13.2344 16.7344C13.7448 16.224 14 15.6042 14 14.875C14 14.1458 13.7448 13.526 13.2344 13.0156C12.724 12.5052 12.1042 12.25 11.375 12.25C10.6458 12.25 10.026 12.5052 9.51562 13.0156C9.00521 13.526 8.75 14.1458 8.75 14.875C8.75 15.6042 9.00521 16.224 9.51562 16.7344C10.026 17.2448 10.6458 17.5 11.375 17.5ZM17.5 28.875C19.1917 28.875 20.7521 28.4667 22.1812 27.65C23.6104 26.8333 24.7625 25.725 25.6375 24.325C25.8125 23.975 25.7979 23.625 25.5938 23.275C25.3896 22.925 25.0833 22.75 24.675 22.75H10.325C9.91667 22.75 9.61042 22.925 9.40625 23.275C9.20208 23.625 9.1875 23.975 9.3625 24.325C10.2375 25.725 11.3969 26.8333 12.8406 27.65C14.2844 28.4667 15.8375 28.875 17.5 28.875Z" fill="white"/>
</svg>
