<?xml version="1.0" encoding="UTF-8"?>
<svg id="Layer_1" xmlns="http://www.w3.org/2000/svg" xmlns:xlink="http://www.w3.org/1999/xlink" version="1.1" viewBox="0 0 1920 756">
  <!-- Generator: Adobe Illustrator 30.1.0, SVG Export Plug-In . SVG Version: 2.1.1 Build 136)  -->
  <defs>
    <style>
      .st0 {
        fill: url(#linear-gradient2);
      }

      .st1 {
        fill: url(#linear-gradient1);
      }

      .st2 {
        fill: url(#linear-gradient9);
      }

      .st3 {
        fill: url(#linear-gradient3);
      }

      .st4 {
        fill: url(#linear-gradient6);
      }

      .st5 {
        fill: url(#linear-gradient8);
      }

      .st6 {
        fill: url(#linear-gradient7);
      }

      .st7 {
        fill: url(#linear-gradient5);
      }

      .st8 {
        fill: url(#linear-gradient4);
      }

      .st9 {
        fill: url(#linear-gradient18);
      }

      .st10 {
        fill: url(#linear-gradient13);
      }

      .st11 {
        fill: url(#linear-gradient12);
      }

      .st12 {
        fill: url(#linear-gradient15);
      }

      .st13 {
        fill: url(#linear-gradient16);
      }

      .st14 {
        fill: url(#linear-gradient11);
      }

      .st15 {
        fill: url(#linear-gradient10);
      }

      .st16 {
        fill: url(#linear-gradient17);
      }

      .st17 {
        fill: url(#linear-gradient14);
      }

      .st18 {
        fill: url(#linear-gradient19);
      }

      .st19 {
        fill: url(#linear-gradient21);
      }

      .st20 {
        fill: url(#linear-gradient20);
      }

      .st21 {
        fill: url(#linear-gradient);
      }

      .st22 {
        opacity: .4;
      }
    </style>
    <linearGradient id="linear-gradient" x1="2314.93" y1="-1241.76" x2="-76.63" y2="-1016.08" gradientTransform="translate(0 -2182.31) scale(1 -1)" gradientUnits="userSpaceOnUse">
      <stop offset="0" stop-color="#0000b8"/>
      <stop offset=".99" stop-color="#87ceeb"/>
    </linearGradient>
    <linearGradient id="linear-gradient1" x1="2316.35" y1="-1226.76" x2="-75.21" y2="-1001.08" gradientTransform="translate(0 -2182.31) scale(1 -1)" gradientUnits="userSpaceOnUse">
      <stop offset="0" stop-color="#0000b8"/>
      <stop offset=".99" stop-color="#87ceeb"/>
    </linearGradient>
    <linearGradient id="linear-gradient2" x1="2317.92" y1="-1210.05" x2="-73.63" y2="-984.37" gradientTransform="translate(0 -2182.31) scale(1 -1)" gradientUnits="userSpaceOnUse">
      <stop offset="0" stop-color="#0000b8"/>
      <stop offset=".99" stop-color="#87ceeb"/>
    </linearGradient>
    <linearGradient id="linear-gradient3" x1="2321.48" y1="-1172.28" x2="-70.07" y2="-946.59" gradientTransform="translate(0 -2182.31) scale(1 -1)" gradientUnits="userSpaceOnUse">
      <stop offset="0" stop-color="#0000b8"/>
      <stop offset=".99" stop-color="#87ceeb"/>
    </linearGradient>
    <linearGradient id="linear-gradient4" x1="2326.16" y1="-1122.71" x2="-65.39" y2="-897.02" gradientTransform="translate(0 -2182.31) scale(1 -1)" gradientUnits="userSpaceOnUse">
      <stop offset="0" stop-color="#0000b8"/>
      <stop offset=".99" stop-color="#87ceeb"/>
    </linearGradient>
    <linearGradient id="linear-gradient5" x1="2330.69" y1="-1074.72" x2="-60.86" y2="-849.04" gradientTransform="translate(0 -2182.31) scale(1 -1)" gradientUnits="userSpaceOnUse">
      <stop offset="0" stop-color="#0000b8"/>
      <stop offset=".99" stop-color="#87ceeb"/>
    </linearGradient>
    <linearGradient id="linear-gradient6" x1="2334.92" y1="-1029.85" x2="-56.62" y2="-804.17" gradientTransform="translate(0 -2182.31) scale(1 -1)" gradientUnits="userSpaceOnUse">
      <stop offset="0" stop-color="#0000b8"/>
      <stop offset=".99" stop-color="#87ceeb"/>
    </linearGradient>
    <linearGradient id="linear-gradient7" x1="2335.33" y1="-1025.52" x2="-56.21" y2="-799.84" gradientTransform="translate(0 -2182.31) scale(1 -1)" gradientUnits="userSpaceOnUse">
      <stop offset="0" stop-color="#0000b8"/>
      <stop offset=".99" stop-color="#87ceeb"/>
    </linearGradient>
    <linearGradient id="linear-gradient8" x1="2334.87" y1="-1030.37" x2="-56.67" y2="-804.69" gradientTransform="translate(0 -2182.31) scale(1 -1)" gradientUnits="userSpaceOnUse">
      <stop offset="0" stop-color="#0000b8"/>
      <stop offset=".99" stop-color="#87ceeb"/>
    </linearGradient>
    <linearGradient id="linear-gradient9" x1="2334.22" y1="-1037.14" x2="-57.31" y2="-811.46" gradientTransform="translate(0 -2182.31) scale(1 -1)" gradientUnits="userSpaceOnUse">
      <stop offset="0" stop-color="#0000b8"/>
      <stop offset=".99" stop-color="#87ceeb"/>
    </linearGradient>
    <linearGradient id="linear-gradient10" x1="2333.47" y1="-1045.1" x2="-58.06" y2="-819.41" gradientTransform="translate(0 -2182.31) scale(1 -1)" gradientUnits="userSpaceOnUse">
      <stop offset="0" stop-color="#0000b8"/>
      <stop offset=".99" stop-color="#87ceeb"/>
    </linearGradient>
    <linearGradient id="linear-gradient11" x1="1885.78" y1="284.86" x2="266.39" y2="437.67" gradientTransform="matrix(1,0,0,1,0,0)" xlink:href="#linear-gradient9"/>
    <linearGradient id="linear-gradient12" x1="1892.06" y1="291.37" x2="268.84" y2="444.55" gradientTransform="matrix(1,0,0,1,0,0)" xlink:href="#linear-gradient10"/>
    <linearGradient id="linear-gradient13" x1="1879.48" y1="280.2" x2="264.1" y2="432.63" gradientTransform="matrix(1,0,0,1,0,0)" xlink:href="#linear-gradient8"/>
    <linearGradient id="linear-gradient14" x1="1873.15" y1="278.13" x2="261.99" y2="430.18" gradientTransform="matrix(1,0,0,1,0,0)" xlink:href="#linear-gradient7"/>
    <linearGradient id="linear-gradient15" x1="1855.86" y1="240.48" x2="253.85" y2="391.66" gradientTransform="matrix(1,0,0,1,0,0)" xlink:href="#linear-gradient5"/>
    <linearGradient id="linear-gradient16" x1="1866.52" y1="278.19" x2="259.86" y2="429.8" gradientTransform="matrix(1,0,0,1,0,0)" xlink:href="#linear-gradient6"/>
    <linearGradient id="linear-gradient17" x1="1845.19" y1="207.45" x2="247.86" y2="358.19" gradientTransform="matrix(1,0,0,1,0,0)" xlink:href="#linear-gradient4"/>
    <linearGradient id="linear-gradient18" x1="1836.89" y1="205.24" x2="244.24" y2="355.54" gradientTransform="matrix(1,0,0,1,0,0)" xlink:href="#linear-gradient3"/>
    <linearGradient id="linear-gradient19" x1="1829.51" y1="219.86" x2="241.76" y2="369.69" gradientTransform="matrix(1,0,0,1,0,0)" xlink:href="#linear-gradient2"/>
    <linearGradient id="linear-gradient20" x1="1822.04" y1="242.68" x2="239.61" y2="392.01" gradientTransform="matrix(1,0,0,1,0,0)" xlink:href="#linear-gradient1"/>
    <linearGradient id="linear-gradient21" x1="1814.11" y1="272.22" x2="237.41" y2="421.01" gradientTransform="matrix(1,0,0,1,0,0)" xlink:href="#linear-gradient"/>
  </defs>
  <g class="st22">
    <path class="st21" d="M-276.87-1629.96c17.38-.04,35.35,2.24,53.49,6.8,37.71,9.48,74.95,28.34,107.7,54.55,53.8,43.05,94.4,100.66,133.67,156.38,6.37,9.04,12.96,18.39,19.49,27.5,46.25,64.6,98.91,129.19,170.51,164.15,68.78,33.58,153.63,40.36,267.01,21.33,81.68-13.71,162.84-36.61,241.33-58.76,77.4-21.83,157.43-44.42,237.99-58.2,42.24-7.23,84.02-11.47,124.16-12.6,43.43-1.22,85.29,1.2,124.42,7.2,88.18,13.52,163.13,45.03,222.79,93.67,22.83,18.62,43.61,39.68,63.53,64.39,17.75,22.01,34.39,46.43,50.89,74.66,30.63,52.41,56.1,110.4,80.74,166.48,45.94,104.6,93.45,212.75,176.61,290.24,80.44,74.95,194.02,116.23,303.81,110.43,109.79-5.8,218.38-58.82,290.48-141.83l1.86,1.62c-18.06,20.79-38.53,39.94-60.83,56.94-22.03,16.78-45.9,31.49-70.96,43.72-25.06,12.24-51.34,22.01-78.11,29.06-27.12,7.14-54.81,11.5-82.31,12.95-27.5,1.46-55.5.04-83.22-4.2-27.36-4.19-54.53-11.14-80.74-20.67-26.21-9.52-51.5-21.64-75.17-36-23.97-14.55-46.34-31.44-66.49-50.21-37.48-34.92-70.99-79.04-102.43-134.87-27.99-49.72-51.77-103.84-74.76-156.19-49.14-111.88-99.95-227.56-194.46-304.61-148.26-120.88-357.73-106.86-469.4-87.75-80.42,13.77-160.39,36.33-237.73,58.15-78.55,22.16-159.79,45.08-241.59,58.81-51.73,8.69-96.58,11.93-137.13,9.92-50.1-2.48-93.07-12.77-131.36-31.46-72.09-35.19-124.99-100.07-171.43-164.92-6.53-9.12-13.12-18.48-19.49-27.52-39.17-55.57-79.67-113.04-133.19-155.87-55.14-44.13-142.51-80.26-222.34-49.33l-.89-2.3c18.14-7.03,37.66-10.92,58.01-11.55,1.85-.06,3.71-.09,5.58-.09h0Z"/>
    <path class="st1" d="M-319.95-1590.76c6.82-.02,13.8.34,20.92,1.08,18.38,1.9,37.75,6.31,57.57,13.1,37.18,12.74,75.11,33.5,109.67,60.02,39.14,30.05,72.97,65.07,98.07,92.21,12.8,13.79,25.42,27.87,37.63,41.5,11.33,12.64,23.05,25.72,34.63,38.24,51.3,55.63,109.28,110.83,185.44,137.8,7.11,2.53,14.51,4.82,21.96,6.83,67.56,18.15,147.2,15.48,250.61-8.39,36.08-8.33,74.6-18.76,121.24-32.84,29.57-8.93,59.63-18.48,88.7-27.72,91.7-29.14,186.52-59.28,283.06-75.39,40.75-6.88,81.12-10.92,120-12.01,41.85-1.17,82.3,1.09,120.23,6.72,85.01,12.61,157.95,41.94,216.81,87.19,42.47,32.67,80.39,75.54,115.93,131.05,31.67,49.48,58.63,104.32,84.71,157.36,9.6,19.54,19.54,39.74,29.58,59.42,37.51,73.5,81.24,149.76,146.6,209.64,78.9,72.29,184.69,113.59,290.3,113.34h.57c104.82-.41,206.15-41.51,278.01-112.78l1.67,1.68c-35.1,34.82-78.99,63.54-126.91,83.07-23.98,9.78-49.04,17.32-74.48,22.42-25.84,5.19-52.18,7.87-78.28,7.97h-.56c-25.99.06-52.43-2.43-78.6-7.42-26.07-4.96-51.97-12.42-76.98-22.15-25.04-9.74-49.27-21.81-72.03-35.86-23.05-14.22-44.69-30.55-64.31-48.52-65.64-60.14-109.49-136.62-147.11-210.31-10.05-19.7-19.98-39.91-29.59-59.45-52-105.76-105.76-215.11-199.97-287.57-80.66-62.02-190.33-93.98-316.84-93.68-44.24.1-90.51,4.15-138.36,12.23-96.38,16.08-191.12,46.19-282.74,75.31-29.08,9.24-59.14,18.8-88.73,27.73-46.69,14.1-85.26,24.54-121.4,32.88-47.52,10.97-89.14,17.33-127.25,19.45-46.42,2.58-87.14-1.05-124.51-11.08-7.52-2.03-14.96-4.34-22.14-6.89-34.59-12.25-67.77-31.1-101.44-57.62-26.37-20.77-52.57-45.69-84.95-80.8-11.59-12.53-23.31-25.61-34.65-38.27-12.2-13.62-24.82-27.7-37.6-41.47-25.04-27.08-58.78-62-97.78-91.95-57.86-44.4-146.1-86.17-220.26-70.25l-.49-2.31c10.75-2.31,22.14-3.48,34.03-3.51h0Z"/>
    <path class="st0" d="M-365.59-1556.17c30.34-.07,66,8.73,106.04,26.18,36.64,15.97,75.25,38.61,111.66,65.48,38.11,28.16,73.44,59.28,106.36,88.76,6.12,5.44,12.2,10.88,18.23,16.27,21.57,19.29,41.94,37.51,62.89,55.01,53.03,44.52,118.3,92.57,200.39,111.45,7.39,1.7,15.04,3.18,22.74,4.39,69.68,10.84,150.84,1.67,255.41-28.85,45.51-13.28,89.85-28.45,123.38-40.18,18.91-6.62,38.18-13.49,56.82-20.13,105.29-37.54,214.17-76.37,326.49-94.64,82.16-13.67,160.17-15.42,231.87-5.17,81.82,11.69,152.76,38.85,210.83,80.72,42.48,30.65,81.03,70.97,117.87,123.28,32.85,46.65,61.44,98.45,89.08,148.55,9.08,16.45,18.47,33.46,27.89,50.08,39.1,68.92,83.98,140.52,147.04,197.27,76.46,68.8,177.76,111.16,277.93,116.23,98.17,4.96,194.97-25.56,265.56-83.73l1.44,1.75c-34.4,28.34-76.59,50.99-122.01,65.48-46.84,14.95-95.66,21.26-145.11,18.76-100.68-5.1-202.49-47.67-279.32-116.81-63.31-56.97-108.31-128.75-147.5-197.84-9.43-16.63-18.82-33.65-27.9-50.1-55.1-99.85-112.07-203.1-206.29-271.08-107.96-77.84-264.58-104.52-441.01-75.15-112.12,18.24-220.9,57.03-326.1,94.54-18.64,6.65-37.91,13.52-56.82,20.14-33.57,11.74-77.93,26.93-123.5,40.22-104.9,30.62-186.38,39.8-256.4,28.91-7.76-1.21-15.46-2.7-22.9-4.42-36.24-8.34-71.42-22.72-107.56-43.96-29.2-17.17-58.99-38.76-93.78-67.97-20.98-17.52-41.36-35.75-62.95-55.05-6.03-5.4-12.11-10.83-18.23-16.27-32.89-29.44-68.17-60.53-106.19-88.62-77.72-57.36-158.43-91.35-216.42-91.21-.6,0-1.19,0-1.79.01l-.04-2.27c.62,0,1.26-.01,1.89-.02h-.01Z"/>
    <path class="st3" d="M-380.96-1525c28.22,6.2,62.98,20.19,103.3,41.6,35.98,19.1,75.28,43.64,113.65,70.95,26.48,18.87,52.16,38.27,76.99,57.03,12.98,9.81,25.24,19.07,37.65,28.29,28.38,20.92,58.92,43.01,89.99,62.83,79.14,50.85,145.55,77.1,215.36,85.1,7.66.88,15.58,1.54,23.52,1.95,94.05,4.65,193.55-25.92,260.21-49.32,42.49-14.9,85.43-31.65,125.51-47.52,7.76-3.07,15.52-6.16,23.3-9.25,119.24-47.37,242.54-96.36,371.54-117.19,78.94-12.74,154.15-14.4,223.54-4.93,78.67,10.74,147.58,35.68,204.83,74.11,42.67,28.69,82.07,66.58,120.43,115.83,34.22,43.94,64.62,92.86,94.02,140.17,8.16,13.12,16.59,26.7,25,39.99,47.14,74.46,90.27,134.41,147.49,184.9,73.87,65.19,170.45,108.62,264.98,119.14,91.48,10.16,183.73-9.78,253.13-54.69l1.18,1.82c-69.81,45.18-162.59,65.23-254.55,55.02-47.32-5.27-94.59-18.37-140.49-38.95-46.17-20.7-88.46-47.86-125.69-80.72-27.85-24.57-54.27-53.25-80.78-87.66-26.15-33.96-49.6-70.05-67.11-97.7-8.41-13.3-16.85-26.88-25.01-40-58.57-94.24-119.13-191.69-213.82-255.34-106.64-71.61-258.22-96.06-426.81-68.85-128.77,20.79-251.96,69.73-371.09,117.06-7.77,3.09-15.54,6.18-23.3,9.25-40.09,15.88-83.06,32.63-125.58,47.55-49.02,17.2-91.85,29.51-130.94,37.62-47.77,9.92-90.32,13.78-130.1,11.81-7.99-.41-15.95-1.07-23.66-1.96-38.05-4.36-75.24-14.28-113.67-30.3-32.24-13.44-65.8-31.47-102.61-55.13-31.13-19.85-61.71-41.97-90.12-62.91-12.41-9.23-24.68-18.49-37.66-28.3-24.82-18.75-50.49-38.13-76.95-56.99-82.36-58.62-163.18-100.56-216.16-112.2l.47-2.11h0Z"/>
    <path class="st8" d="M-394.45-1493.8c64.19,31.94,161.85,97.29,214.36,133.39l8.18,5.63c39.71,27.36,77.22,53.2,114.75,76.25,35.7,21.92,68.04,39.71,98.87,54.39,82.24,39.53,155.43,58.2,230.33,58.74,7.94.06,16.11-.1,24.3-.5,95.09-4.78,191.57-39.81,265.01-69.8,42.12-17.19,84.79-35.98,126.05-54.16l1.58-.7c122.44-53.96,261.22-115.12,406.37-138.1,75.5-11.95,147.89-13.56,215.19-4.8,75.43,9.83,142.33,32.58,198.85,67.63,43.18,26.81,83.71,62.41,123.91,108.83,35.88,41.42,68.39,87.67,99.82,132.4,6.65,9.45,13.52,19.23,20.33,28.83,39.75,55.98,87.25,120.09,147.93,172.53,72.35,62.53,161.86,105.87,252.05,122.05,84.69,15.17,172.43,5.82,240.71-25.65l.87,1.88c-33.54,15.45-71.29,25.64-112.2,30.27-42.59,4.83-86.25,3.32-129.75-4.47-44.64-8.01-89.27-22.69-132.67-43.64-43.74-21.12-84.24-47.66-120.37-78.88-60.86-52.59-108.44-116.82-148.27-172.89-6.81-9.6-13.68-19.38-20.33-28.83-65.47-93.16-127.31-181.15-223.13-240.67-77.75-48.22-177.43-73.01-288.29-72.75-40.16.1-81.75,3.47-124.34,10.21-144.88,22.93-283.53,84.04-405.86,137.95l-1.58.7c-41.27,18.18-83.95,36.98-126.1,54.18-49.94,20.39-93.37,35.68-132.79,46.71-48.5,13.59-91.97,21.19-132.9,23.24-8.22.4-16.43.57-24.41.5-40.02-.29-79.2-5.74-119.77-16.66-35.87-9.65-72.32-23.48-111.43-42.29-30.89-14.71-63.29-32.53-99.06-54.49-37.58-23.08-75.11-48.94-114.84-76.31l-8.18-5.64c-52.45-36.07-150.02-101.35-214.1-133.24l.92-1.85h.01Z"/>
    <path class="st7" d="M1251.61-1466.52c29.3-.07,57.94,1.61,85.81,5.06,72.14,8.91,137.03,29.49,192.87,61.16,44.15,25.08,86.3,58.62,128.88,102.52,38,39.19,73.07,83.12,106.98,125.6,4.26,5.34,8.53,10.68,12.8,16.02,43.76,54.58,91.26,111.89,148.38,160.14,69.77,58.95,154.7,103.33,239.11,124.96,78.99,20.22,160.08,21.43,228.34,3.41l.5,1.91c-32.92,8.69-69,12.95-107.26,12.67-40.47-.29-81.54-5.7-122.07-16.08-84.7-21.71-169.9-66.23-239.9-125.37-57.25-48.36-104.82-105.77-148.64-160.42-4.27-5.34-8.54-10.69-12.8-16.02-70.6-88.43-137.29-171.95-235.3-227.64-105.39-59.78-246.89-79.75-398.43-56.24-146.73,22.77-286.63,86.38-417.34,149.58-9.54,4.61-19.06,9.23-28.57,13.84-33.15,16.08-67.42,32.7-101.2,48.37-74.95,34.77-173.39,76.48-270.35,90.46-8.46,1.2-16.93,2.2-25.17,2.96-80.62,7.5-161.13-3.12-246.13-32.47-35.42-12.08-70.74-27.15-107.99-46.06-38.8-19.7-80.56-44.66-131.42-78.58-82.2-54.74-163.43-113.87-211.98-154.33l1.26-1.51c48.5,40.41,129.66,99.5,211.81,154.2,50.8,33.87,92.49,58.81,131.23,78.46,37.17,18.87,72.41,33.9,107.74,45.95,84.73,29.26,164.97,39.84,245.3,32.37,8.21-.76,16.64-1.74,25.07-2.95,96.7-13.94,194.98-55.58,269.79-90.3,33.77-15.66,68.04-32.28,101.17-48.35,9.52-4.61,19.04-9.23,28.59-13.85,74.53-36.04,137.61-65.18,203.23-90.28,77.45-29.63,147.67-49.08,214.66-59.47,41.25-6.4,81.72-9.65,121.03-9.75h0Z"/>
    <path class="st4" d="M1282.38-1494.03c27.85-.07,55.2,1.45,81.94,4.56,68.77,8,131.65,26.4,186.89,54.7,45.93,23.57,90.53,55.41,136.36,97.35,40.93,37.46,79.34,79.62,116.49,120.4l.43.47c43.27,47.43,92.32,101.2,148.82,147.76,67.27,55.44,147.59,100.86,226.18,127.89,71.9,24.7,148.6,36.24,215.97,32.49l.1,1.87c-67.6,3.76-144.55-7.81-216.68-32.59-39.22-13.49-78.59-31.32-117.02-52.99-38.85-21.92-75.77-47.22-109.73-75.22-56.61-46.65-105.71-100.47-149.02-147.95l-.44-.47c-77.3-84.86-150.32-165.01-252.31-217.35-105.18-53.88-241.64-71.6-384.24-49.93-157.99,24.02-304.19,95.81-428.82,161.23-17.99,9.43-36.19,19.1-53.78,28.43-25.59,13.58-52.05,27.62-78.1,41.11-81.37,42.15-177.67,88.29-275.01,110.96-8.69,2.01-17.42,3.84-25.93,5.41-43.75,8.18-88.15,11.75-131.98,10.61-42.59-1.11-86.02-6.7-129.07-16.61-38.38-8.71-77.72-21.37-116.92-37.62-44.31-18.56-91.36-43.86-139.82-75.21-89.73-57.97-168.16-123.54-209.78-175.41l1.46-1.17c41.51,51.72,119.77,117.14,209.34,175.01,48.37,31.29,95.32,56.55,139.53,75.05,39.11,16.21,78.34,28.84,116.62,37.53,88.11,20.29,173.25,22.25,260.29,5.99,8.49-1.58,17.18-3.39,25.85-5.4,97.14-22.61,193.31-68.7,274.57-110.8,26.05-13.48,52.5-27.52,78.08-41.1,17.6-9.34,35.8-19,53.79-28.44,60.52-31.76,132.54-68.3,208.01-98.53,79.14-31.7,151.56-52.27,221.4-62.89,39.52-6.01,78.49-9.06,116.55-9.15h-.01Z"/>
    <path class="st6" d="M1313.21-1521.56c26.37-.06,52.41,1.29,78.01,4.07,65.29,7.09,126.16,23.32,180.92,48.25,99.97,45.6,179.03,116.99,257.87,192.3,5.1,4.86,10.19,9.73,15.29,14.6,42.35,40.51,86.15,82.4,133.99,120.78,65.84,52.83,139.58,98.06,213.22,130.81,82.91,36.83,156.49,53.83,203.61,61.61l-.29,1.75c-67.72-11.18-138.28-32.52-204.04-61.74-73.78-32.81-147.65-78.12-213.62-131.05-47.9-38.43-91.73-80.34-134.11-120.88-5.09-4.88-10.19-9.74-15.28-14.6-78.73-75.21-157.67-146.48-257.38-191.97-106.87-48.66-234.84-63.75-370.05-43.61-160.11,23.84-306.24,97.17-440.31,172.87-25.93,14.64-52.07,29.72-77.36,44.32-18.55,10.71-37.74,21.79-56.62,32.55-87.78,50.07-182.41,100.65-279.69,131.45-8.92,2.81-17.9,5.46-26.69,7.87-92.65,25.47-185.51,32.35-275.97,20.45-42.1-5.43-84.44-15.25-125.84-29.18-48.96-16.63-98.83-40.8-148.21-71.84-44.68-28.05-86.9-60.22-122.07-93.04-37.82-35.28-66.57-70.08-85.45-103.44l1.54-.87c36.81,65.01,112.23,136.4,206.93,195.85,49.27,30.96,99.01,55.07,147.84,71.66,41.29,13.89,83.52,23.69,125.51,29.1,90.23,11.86,182.85,5,275.27-20.4,8.76-2.4,17.72-5.05,26.62-7.85,97.12-30.75,191.65-81.28,279.35-131.3,18.88-10.76,38.06-21.84,56.62-32.55,25.28-14.6,51.43-29.69,77.37-44.33,84.26-47.58,149.88-80.51,212.78-106.79,80.9-33.8,155.53-55.48,228.14-66.29,37.76-5.62,75.26-8.48,112.11-8.57h0Z"/>
    <path class="st5" d="M1344.19-1549.21c24.81-.06,49.49,1.14,73.92,3.6,61.56,6.19,120.42,20.29,174.96,41.9,101.71,40.38,186.26,103.83,262.47,166.39,16.91,13.86,34.06,28.2,50.64,42.07,31.97,26.74,65.03,54.39,99.09,80.92,63.99,49.85,133.24,96.09,200.28,133.74,59.02,33.13,123.36,63.67,191.22,90.76l-.62,1.55c-67.93-27.12-132.33-57.68-191.42-90.85-67.11-37.69-136.43-83.99-200.49-133.88-34.08-26.55-67.15-54.21-99.13-80.95-16.58-13.87-33.73-28.2-50.63-42.07-76.11-62.47-160.53-125.83-262.03-166.13-108.03-42.81-231.08-55.72-355.85-37.3-168.72,24.24-323.07,106.88-451.81,184.51-33.34,20.11-66.86,41.03-99.27,61.26-12.06,7.53-24.54,15.32-36.82,22.95-84.44,52.48-183.02,111.82-284.36,151.94-9.16,3.62-18.39,7.09-27.45,10.32-99.04,35.41-196.91,51.2-290.89,46.9-45.64-2.01-90.98-8.98-134.76-20.74-53.14-14.38-105.82-37.41-156.59-68.45-46.57-28.45-89.52-62.54-124.21-98.58-37.34-38.8-64.6-78.81-81.03-118.92l1.55-.63c31.83,77.75,106.39,156.73,204.56,216.71,50.64,30.96,103.18,53.93,156.15,68.26,43.66,11.72,88.88,18.68,134.4,20.68,93.76,4.28,191.41-11.47,290.25-46.81,9.04-3.23,18.25-6.69,27.4-10.31,101.22-40.07,199.71-99.37,284.1-151.81,12.27-7.62,24.75-15.41,36.81-22.95,32.41-20.24,65.93-41.16,99.29-61.28,128.88-77.72,283.42-160.45,452.44-184.73,35.97-5.31,72.04-8.01,107.83-8.1v.02Z"/>
    <path class="st2" d="M1374.97-1576.69c81.07-.19,162.2,12.78,239.02,38.52,85.32,28.62,170.19,73.26,267.08,140.47,44.98,31.19,89.85,65.06,133.24,97.81,5.63,4.26,11.28,8.52,16.94,12.79,69.99,52.77,131.26,97.47,187.32,136.67,54.02,37.76,110.83,75.87,178.8,119.92l-.86,1.32c-67.98-44.06-124.81-82.17-178.84-119.95-56.08-39.21-117.37-83.93-187.36-136.71-5.66-4.27-11.31-8.53-16.95-12.79-43.38-32.75-88.23-66.61-133.19-97.78-96.76-67.12-181.5-111.7-266.67-140.27-109.36-36.64-227.5-47.36-341.66-30.99-178.4,25.19-341.31,118.06-463.31,196.15-40.32,25.81-80.69,52.92-119.74,79.15-6.15,4.13-12.3,8.26-18.45,12.39-95.63,64.16-189.69,125.62-289.06,172.43-9.39,4.42-18.88,8.72-28.21,12.78-105.13,45.77-208.01,70.45-305.81,73.34-49.07,1.49-97.4-2.65-143.67-12.29-56.27-11.8-113.32-34.29-164.97-65.06-48.41-28.82-92.09-64.83-126.33-104.13-36.85-42.29-62.62-87.5-76.59-134.39l1.51-.45c26.97,90.54,100.68,177.15,202.21,237.61,51.5,30.68,108.38,53.11,164.48,64.87,46.14,9.62,94.36,13.75,143.3,12.26,97.59-2.89,200.29-27.52,305.23-73.22,9.31-4.05,18.79-8.34,28.17-12.76,99.28-46.77,193.28-108.2,288.85-172.32,6.15-4.13,12.3-8.26,18.46-12.39,39.05-26.23,79.43-53.35,119.76-79.17,83.86-53.68,154.5-92.89,222.3-123.41,84.64-38.1,163.68-61.97,241.64-72.97,34.2-4.91,68.79-7.38,103.36-7.47h0Z"/>
    <path class="st15" d="M1406.07-1604.21c68.23-.16,138.62,8.77,210.34,26.75,96.64,24.23,194.27,64.4,290.17,119.4,182.09,104.41,339.3,248.02,491.33,386.89l-1,1.09c-151.97-138.82-309.12-282.37-491.06-386.7-122.1-70.02-300.97-146.5-499-146.03-32.8.08-66.1,2.26-99.78,6.94-186.73,25.92-351.84,124.67-474.82,207.8-46.83,31.66-93.56,65.27-138.76,97.77-94.21,67.75-191.64,137.81-295.29,194.03-82.84,44.93-164.92,77.52-243.95,96.85-90.38,22.1-177.29,26.92-258.33,14.31-86.48-13.45-170.97-51.29-237.92-106.55-34.48-28.47-63.54-60.8-86.37-96.09-24.04-37.17-40.74-77.05-49.63-118.51l1.44-.31c34.24,159.61,187.5,291.21,372.7,320.01,153.01,23.8,321.69-13.55,501.35-111,103.57-56.18,200.96-126.21,295.13-193.93,45.21-32.51,91.95-66.12,138.8-97.79,84.39-57.04,156.54-98.88,227.07-131.65,86.52-40.21,167.76-65.19,248.37-76.39,32.47-4.51,65.58-6.8,99.2-6.88h0Z"/>
  </g>
  <path class="st14" d="M1920,116.66c-68-19.66-138.86-29.54-209.67-29.37h0c-34.57.08-69.16,2.56-103.36,7.46-77.96,11.01-157,34.88-241.64,72.97-67.8,30.52-138.44,69.73-222.3,123.41-40.33,25.81-80.71,52.94-119.76,79.17-6.16,4.13-12.31,8.26-18.46,12.39-95.57,64.12-189.58,125.55-288.85,172.32-9.38,4.41-18.86,8.7-28.17,12.76-104.94,45.7-207.63,70.33-305.23,73.22-48.94,1.48-97.15-2.64-143.3-12.26-56.1-11.76-112.97-34.19-164.48-64.87-27.02-16.09-52.06-34.03-74.78-53.4v1.99c22.76,19.29,47.67,37.09,73.98,52.76,51.65,30.77,108.7,53.27,164.97,65.06,46.27,9.65,94.6,13.79,143.67,12.29,97.79-2.89,200.68-27.57,305.81-73.34,9.33-4.06,18.82-8.35,28.21-12.78,99.38-46.81,193.43-108.28,289.06-172.43,6.15-4.13,12.3-8.26,18.45-12.39,39.05-26.23,79.42-53.34,119.74-79.15,122-78.09,284.91-170.96,463.31-196.15,104.19-14.94,211.69-7.31,312.8,21.99v-1.65Z"/>
  <path class="st11" d="M1920,79.15c-60.75-13.03-120.45-19.52-178.57-19.38h-.01c-33.62.07-66.73,2.36-99.2,6.87-80.61,11.2-161.85,36.18-248.37,76.39-70.53,32.78-142.68,74.61-227.07,131.65-46.85,31.67-93.59,65.28-138.8,97.79-94.17,67.72-191.56,137.75-295.13,193.93-179.66,97.45-348.34,134.79-501.35,111-87.31-13.58-167.51-50.01-231.5-101.44v1.73c65.85,52.34,147.63,88.16,231.27,101.17,81.04,12.61,167.96,7.79,258.33-14.31,79.03-19.33,161.11-51.91,243.95-96.85,103.66-56.22,201.08-126.28,295.29-194.03,45.2-32.5,91.93-66.1,138.76-97.77,122.98-83.13,288.09-181.87,474.82-207.8,33.68-4.68,66.98-6.86,99.78-6.94,61.49-.15,121.13,7.13,177.79,19.33v-1.34Z"/>
  <path class="st10" d="M1920,157.02c-52.16-19.77-108.13-32.77-166.53-38.65-24.43-2.46-49.11-3.66-73.92-3.6v-.02c-35.79.09-71.86,2.79-107.83,8.1-169.02,24.29-323.56,107.01-452.44,184.73-33.36,20.12-66.88,41.04-99.29,61.28-12.06,7.53-24.54,15.32-36.81,22.95-84.39,52.44-182.88,111.74-284.1,151.81-9.14,3.61-18.36,7.08-27.4,10.31-98.83,35.34-196.49,51.09-290.25,46.81-45.52-2-90.74-8.96-134.4-20.68-52.98-14.33-105.52-37.3-156.15-68.26-33.25-20.31-63.79-42.81-90.88-66.7v2.12c27.24,23.89,57.75,46.3,90.01,66.01,50.77,31.04,103.46,54.07,156.59,68.45,43.78,11.76,89.12,18.73,134.76,20.74,93.98,4.29,191.85-11.49,290.89-46.9,9.05-3.24,18.29-6.71,27.45-10.32,101.35-40.12,199.92-99.47,284.36-151.94,12.28-7.63,24.76-15.42,36.82-22.95,32.41-20.24,65.93-41.16,99.27-61.26,128.74-77.63,283.09-160.27,451.81-184.51,121.78-17.97,241.91-6.09,348.04,34.29v-1.79Z"/>
  <path class="st17" d="M1920,200.65c-4.14-2.01-8.29-3.99-12.5-5.91-54.76-24.93-115.63-41.17-180.92-48.25-25.6-2.78-51.64-4.13-78.01-4.07h0c-36.85.08-74.35,2.94-112.11,8.56-72.61,10.81-147.24,32.5-228.14,66.29-62.9,26.28-128.52,59.21-212.78,106.79-25.94,14.63-52.09,29.73-77.37,44.33-18.56,10.71-37.74,21.79-56.62,32.55-87.7,50.03-182.23,100.55-279.35,131.3-8.9,2.8-17.86,5.45-26.62,7.85-92.42,25.4-185.04,32.27-275.27,20.4-41.99-5.42-84.21-15.21-125.51-29.1-48.83-16.59-98.57-40.7-147.84-71.66-39.48-24.78-75.59-51.64-106.97-79.25v2.2c31.67,27.74,67.94,54.64,106.02,78.55,49.38,31.03,99.25,55.2,148.21,71.84,41.4,13.93,83.75,23.75,125.84,29.18,90.46,11.9,183.31,5.02,275.97-20.45,8.79-2.41,17.77-5.06,26.69-7.87,97.28-30.8,191.91-81.38,279.69-131.45,18.88-10.77,38.07-21.84,56.62-32.55,25.29-14.6,51.43-29.68,77.36-44.32,134.07-75.69,280.2-149.03,440.31-172.86,135.21-20.13,263.18-5.04,370.05,43.61,4.46,2.03,8.86,4.14,13.24,6.27v-1.97Z"/>
  <path class="st12" d="M1920,299.6c-17.89-13.53-35.95-25.47-54.35-35.92-55.84-31.67-120.73-52.25-192.87-61.16-27.87-3.44-56.51-5.12-85.81-5.06h0c-39.31.09-79.78,3.34-121.03,9.74-66.99,10.39-137.21,29.85-214.66,59.47-65.62,25.1-128.7,54.25-203.23,90.28-9.55,4.61-19.07,9.23-28.59,13.85-33.13,16.08-67.4,32.69-101.17,48.35-74.82,34.72-173.1,76.36-269.79,90.3-8.43,1.2-16.87,2.19-25.07,2.95-80.33,7.47-160.57-3.11-245.3-32.37-35.33-12.06-70.57-27.09-107.74-45.95-38.73-19.66-80.43-44.59-131.23-78.46C90.18,323.01,41.56,288.84,0,258v2.45c41.33,30.63,89.52,64.49,138.06,96.81,50.87,33.92,92.63,58.89,131.42,78.58,37.25,18.91,72.58,33.97,107.99,46.06,85,29.35,165.51,39.97,246.13,32.47,8.24-.76,16.71-1.76,25.17-2.96,96.96-13.98,195.41-55.68,270.35-90.46,33.78-15.67,68.05-32.29,101.2-48.37,9.51-4.62,19.03-9.23,28.57-13.84,130.71-63.21,270.61-126.82,417.34-149.58,151.54-23.51,293.04-3.54,398.43,56.23,19.61,11.14,37.95,23.41,55.33,36.6v-2.38Z"/>
  <path class="st13" d="M1920,247.97c-11.09-6.77-22.22-13.01-33.43-18.77-55.24-28.29-118.12-46.7-186.89-54.7-26.74-3.11-54.09-4.63-81.94-4.56v-.02c-38.05.09-77.02,3.14-116.54,9.15-69.84,10.62-142.26,31.19-221.4,62.89-75.47,30.23-147.49,66.77-208.01,98.53-17.99,9.44-36.19,19.1-53.79,28.44-25.58,13.58-52.03,27.62-78.08,41.1-81.26,42.1-177.43,88.18-274.57,110.8-8.67,2.01-17.36,3.82-25.85,5.4-87.04,16.27-172.18,14.31-260.29-5.99-38.28-8.69-77.51-21.31-116.62-37.53-44.21-18.51-91.15-43.77-139.53-75.05-44.94-29.03-87.03-59.97-123.06-90.12v2.43c35.83,29.89,77.54,60.51,122.04,89.26,48.47,31.35,95.51,56.65,139.82,75.21,39.2,16.25,78.54,28.91,116.92,37.62,43.05,9.91,86.48,15.5,129.07,16.61,43.82,1.14,88.23-2.43,131.98-10.6,8.51-1.58,17.24-3.4,25.93-5.41,97.34-22.66,193.64-68.81,275.01-110.96,26.05-13.49,52.51-27.53,78.1-41.11,17.59-9.34,35.79-19,53.78-28.43,124.63-65.41,270.83-137.2,428.82-161.22,142.6-21.68,279.06-3.95,384.24,49.92,11.8,6.06,23.2,12.5,34.28,19.27v-2.16Z"/>
  <path class="st16" d="M1920,356.27c-24.47-22.82-49.4-42.04-75.27-58.11-56.52-35.05-123.42-57.8-198.85-67.63-67.3-8.76-139.69-7.14-215.19,4.8-145.15,22.98-283.93,84.14-406.37,138.1l-1.58.7c-41.26,18.18-83.93,36.97-126.05,54.16-73.44,29.99-169.92,65.02-265.01,69.8-8.18.4-16.35.56-24.3.5-74.9-.54-148.08-19.21-230.33-58.74-30.82-14.68-63.16-32.47-98.87-54.39-37.54-23.04-75.04-48.89-114.75-76.25l-8.18-5.63C117.23,277.42,55.53,235.94,0,202.92v2.42c55.19,32.88,116.31,73.98,154.07,99.94l8.18,5.64c39.73,27.37,77.26,53.23,114.84,76.31,35.77,21.96,68.17,39.78,99.06,54.49,39.12,18.8,75.57,32.64,111.43,42.29,40.57,10.92,79.75,16.37,119.77,16.66,7.98.07,16.19-.1,24.41-.5,40.93-2.05,84.4-9.66,132.9-23.24,39.41-11.04,82.85-26.32,132.79-46.71,42.15-17.2,84.83-36,126.1-54.18l1.58-.7c122.33-53.91,260.98-115.02,405.86-137.95,42.59-6.75,84.18-10.12,124.34-10.21,110.86-.27,210.54,24.53,288.29,72.75,28.06,17.43,53.19,37.32,76.37,59.05v-2.69Z"/>
  <path class="st9" d="M1920,419.03c-30.76-35.27-62.46-63.72-96.2-86.4-57.25-38.44-126.16-63.38-204.83-74.11-69.39-9.47-144.6-7.81-223.54,4.93-129,20.83-252.3,69.81-371.54,117.19-7.78,3.09-15.54,6.18-23.3,9.25-40.08,15.87-83.02,32.61-125.51,47.52-66.66,23.4-166.16,53.97-260.21,49.32-7.94-.41-15.85-1.06-23.52-1.95-69.8-8-136.22-34.25-215.36-85.1-31.07-19.81-61.62-41.91-89.99-62.83-12.41-9.22-24.67-18.48-37.65-28.29-24.83-18.76-50.51-38.15-76.99-57.03-38.37-27.31-77.67-51.84-113.66-70.95-20.76-11.02-40.02-20.06-57.7-27.1v2.44c48.68,19.56,108.95,53.87,170.09,97.38,26.46,18.86,52.12,38.24,76.95,56.99,12.99,9.81,25.25,19.07,37.66,28.3,28.41,20.94,58.99,43.06,90.12,62.91,36.81,23.65,70.37,41.68,102.61,55.13,38.43,16.03,75.62,25.94,113.67,30.3,7.71.9,15.67,1.55,23.66,1.96,39.78,1.97,82.33-1.89,130.1-11.81,39.09-8.11,81.93-20.42,130.94-37.62,42.52-14.92,85.49-31.67,125.58-47.55,7.76-3.07,15.53-6.16,23.3-9.25,119.13-47.33,242.32-96.27,371.09-117.06,168.59-27.21,320.17-2.77,426.81,68.84,37.07,24.91,68.89,55.02,97.42,88.08v-3.48Z"/>
  <path class="st18" d="M1920,489.33c-36.61-51.79-74.93-91.79-117.12-122.23-58.07-41.87-129.01-69.03-210.83-80.72-71.7-10.24-149.71-8.5-231.87,5.17-112.32,18.27-221.2,57.1-326.49,94.64-18.64,6.64-37.91,13.51-56.82,20.13-33.53,11.73-77.87,26.9-123.38,40.18-104.57,30.52-185.73,39.69-255.41,28.85-7.7-1.21-15.35-2.69-22.74-4.39-82.09-18.88-147.37-66.93-200.39-111.45-20.95-17.49-41.32-35.72-62.89-55.01-6.04-5.39-12.11-10.83-18.23-16.27-32.92-29.47-68.25-60.6-106.36-88.76-36.41-26.87-75.02-49.51-111.66-65.48-27.42-11.95-52.79-19.84-75.8-23.61v2.36c54.12,9.01,121.17,40.61,186.13,88.55,38.02,28.09,73.31,59.18,106.19,88.62,6.12,5.44,12.2,10.87,18.23,16.27,21.58,19.3,41.97,37.54,62.95,55.05,34.79,29.21,64.58,50.8,93.78,67.97,36.14,21.24,71.32,35.62,107.56,43.96,7.44,1.72,15.15,3.21,22.9,4.42,70.02,10.89,151.49,1.71,256.4-28.91,45.57-13.29,89.93-28.47,123.5-40.22,18.91-6.62,38.18-13.49,56.82-20.14,105.2-37.5,213.98-76.29,326.1-94.54,176.43-29.37,333.05-2.69,441.01,75.15,47.41,34.21,85.39,77.35,118.44,124.5v-4.11Z"/>
  <path class="st20" d="M1920,569.23c-7.14-12.45-14.49-24.69-22.12-36.61-35.54-55.51-73.46-98.38-115.93-131.05-58.86-45.25-131.8-74.59-216.81-87.19-37.93-5.63-78.38-7.89-120.23-6.72-38.88,1.08-79.25,5.12-120,12.01-96.54,16.1-191.36,46.24-283.06,75.39-29.07,9.24-59.13,18.79-88.7,27.72-46.64,14.08-85.16,24.52-121.24,32.84-103.42,23.87-183.05,26.54-250.61,8.39-7.45-2.01-14.85-4.31-21.96-6.83-76.17-26.98-134.14-82.17-185.44-137.8-11.58-12.52-23.3-25.59-34.63-38.24-12.21-13.62-24.83-27.71-37.63-41.5-25.11-27.15-58.93-62.16-98.07-92.21-34.56-26.52-72.48-47.27-109.67-60.02-19.82-6.79-39.2-11.2-57.57-13.1-7.12-.74-14.1-1.1-20.92-1.08h0c-5.23.02-10.37.27-15.4.73v2.36c70.01-6.43,148.91,32.17,202.11,73,38.99,29.95,72.74,64.87,97.78,91.95,12.78,13.77,25.4,27.85,37.6,41.47,11.34,12.65,23.06,25.73,34.65,38.27,32.38,35.11,58.58,60.03,84.95,80.8,33.67,26.52,66.85,45.38,101.44,57.62,7.18,2.54,14.62,4.86,22.14,6.89,37.36,10.03,78.09,13.66,124.51,11.08,38.11-2.12,79.73-8.48,127.25-19.45,36.14-8.34,74.71-18.79,121.4-32.88,29.59-8.93,59.65-18.49,88.73-27.73,91.62-29.12,186.36-59.24,282.74-75.31,47.85-8.08,94.12-12.13,138.36-12.23,126.51-.29,236.18,31.66,316.84,93.68,59.32,45.62,102.6,105.88,139.5,170.65v-4.87Z"/>
  <path class="st19" d="M1920,661.07c-13.85-29.48-28.49-58.5-44.55-85.99-16.5-28.23-33.14-52.65-50.89-74.66-19.92-24.71-40.7-45.77-63.53-64.39-59.66-48.63-134.61-80.15-222.79-93.67-39.13-6-80.99-8.42-124.42-7.2-40.14,1.13-81.92,5.37-124.16,12.6-80.56,13.78-160.59,36.36-237.99,58.2-78.49,22.15-159.65,45.04-241.33,58.76-113.38,19.03-198.22,12.26-267.01-21.33-71.59-34.95-124.26-99.55-170.51-164.15-6.53-9.12-13.11-18.47-19.49-27.5-39.27-55.71-79.87-113.33-133.67-156.38-32.75-26.21-69.99-45.07-107.7-54.55-18.14-4.56-36.1-6.84-53.48-6.8h0c-1.86.01-3.73.04-5.58.1-18.46.57-36.23,3.84-52.91,9.68v2.61c78.68-28.09,163.96,7.54,218.14,50.89,53.52,42.83,94.02,100.3,133.19,155.87,6.37,9.04,12.97,18.4,19.49,27.52,46.44,64.86,99.34,129.73,171.43,164.92,38.29,18.7,81.26,28.99,131.36,31.46,40.55,2,85.4-1.24,137.13-9.92,81.8-13.73,163.04-36.65,241.59-58.81,77.34-21.82,157.31-44.38,237.73-58.15,111.67-19.11,321.14-33.13,469.4,87.75,73.23,59.7,120.22,142.6,160.53,228.95v-5.82Z"/>
</svg>