<svg width="32" height="35" viewBox="0 0 32 35" fill="none" xmlns="http://www.w3.org/2000/svg">
<path d="M3.5 35C2.5375 35 1.71354 34.6573 1.02813 33.9719C0.342708 33.2865 0 32.4625 0 31.5V7C0 6.0375 0.342708 5.21354 1.02813 4.52813C1.71354 3.84271 2.5375 3.5 3.5 3.5H10.85C11.2292 2.45 11.8635 1.60417 12.7531 0.9625C13.6427 0.320833 14.6417 0 15.75 0C16.8583 0 17.8573 0.320833 18.7469 0.9625C19.6365 1.60417 20.2708 2.45 20.65 3.5H28C28.9625 3.5 29.7865 3.84271 30.4719 4.52813C31.1573 5.21354 31.5 6.0375 31.5 7V31.5C31.5 32.4625 31.1573 33.2865 30.4719 33.9719C29.7865 34.6573 28.9625 35 28 35H3.5ZM3.5 31.5H28V7H3.5V31.5ZM7 28H19.25V24.5H7V28ZM7 21H24.5V17.5H7V21ZM7 14H24.5V10.5H7V14ZM15.75 5.6875C16.1292 5.6875 16.4427 5.56354 16.6906 5.31563C16.9385 5.06771 17.0625 4.75417 17.0625 4.375C17.0625 3.99583 16.9385 3.68229 16.6906 3.43438C16.4427 3.18646 16.1292 3.0625 15.75 3.0625C15.3708 3.0625 15.0573 3.18646 14.8094 3.43438C14.5615 3.68229 14.4375 3.99583 14.4375 4.375C14.4375 4.75417 14.5615 5.06771 14.8094 5.31563C15.0573 5.56354 15.3708 5.6875 15.75 5.6875Z" fill="white"/>
</svg>
