<svg width="28" height="28" viewBox="0 0 28 28" fill="none" xmlns="http://www.w3.org/2000/svg">
<path d="M14 14C12.075 14 10.4271 13.3146 9.05625 11.9438C7.68542 10.5729 7 8.925 7 7C7 5.075 7.68542 3.42708 9.05625 2.05625C10.4271 0.685417 12.075 0 14 0C15.925 0 17.5729 0.685417 18.9438 2.05625C20.3146 3.42708 21 5.075 21 7C21 8.925 20.3146 10.5729 18.9438 11.9438C17.5729 13.3146 15.925 14 14 14ZM0 28V23.1C0 22.1083 0.255208 21.1969 0.765625 20.3656C1.27604 19.5344 1.95417 18.9 2.8 18.4625C4.60833 17.5583 6.44583 16.8802 8.3125 16.4281C10.1792 15.976 12.075 15.75 14 15.75C15.925 15.75 17.8208 15.976 19.6875 16.4281C21.5542 16.8802 23.3917 17.5583 25.2 18.4625C26.0458 18.9 26.724 19.5344 27.2344 20.3656C27.7448 21.1969 28 22.1083 28 23.1V28H0ZM3.5 24.5H24.5V23.1C24.5 22.7792 24.4198 22.4875 24.2594 22.225C24.099 21.9625 23.8875 21.7583 23.625 21.6125C22.05 20.825 20.4604 20.2344 18.8563 19.8406C17.2521 19.4469 15.6333 19.25 14 19.25C12.3667 19.25 10.7479 19.4469 9.14375 19.8406C7.53958 20.2344 5.95 20.825 4.375 21.6125C4.1125 21.7583 3.90104 21.9625 3.74063 22.225C3.58021 22.4875 3.5 22.7792 3.5 23.1V24.5ZM14 10.5C14.9625 10.5 15.7865 10.1573 16.4719 9.47188C17.1573 8.78646 17.5 7.9625 17.5 7C17.5 6.0375 17.1573 5.21354 16.4719 4.52813C15.7865 3.84271 14.9625 3.5 14 3.5C13.0375 3.5 12.2135 3.84271 11.5281 4.52813C10.8427 5.21354 10.5 6.0375 10.5 7C10.5 7.9625 10.8427 8.78646 11.5281 9.47188C12.2135 10.1573 13.0375 10.5 14 10.5Z" fill="white"/>
</svg>
