<svg width="37" height="35" viewBox="0 0 37 35" fill="none" xmlns="http://www.w3.org/2000/svg">
<path d="M28 35H8.75V12.25L21 0L23.1875 2.1875C23.3917 2.39167 23.5594 2.66875 23.6906 3.01875C23.8219 3.36875 23.8875 3.70417 23.8875 4.025V4.6375L21.9625 12.25H33.25C34.1833 12.25 35 12.6 35.7 13.3C36.4 14 36.75 14.8167 36.75 15.75V19.25C36.75 19.4542 36.7208 19.6729 36.6625 19.9062C36.6042 20.1396 36.5458 20.3583 36.4875 20.5625L31.2375 32.9C30.975 33.4833 30.5375 33.9792 29.925 34.3875C29.3125 34.7958 28.6708 35 28 35ZM12.25 31.5H28L33.25 19.25V15.75H17.5L19.8625 6.125L12.25 13.7375V31.5ZM8.75 12.25V15.75H3.5V31.5H8.75V35H0V12.25H8.75Z" fill="white"/>
</svg>
