<svg width="39" height="32" viewBox="0 0 39 32" fill="none" xmlns="http://www.w3.org/2000/svg">
<path d="M29.75 29.75V24.5H24.5V21H29.75V15.75H33.25V21H38.5V24.5H33.25V29.75H29.75ZM3.5 31.5C2.5375 31.5 1.71354 31.1573 1.02813 30.4719C0.342708 29.7865 0 28.9625 0 28V3.5C0 2.5375 0.342708 1.71354 1.02813 1.02813C1.71354 0.342708 2.5375 0 3.5 0H28C28.9625 0 29.7865 0.342708 30.4719 1.02813C31.1573 1.71354 31.5 2.5375 31.5 3.5V12.25H28V8.75H3.5V28H26.25V31.5H3.5ZM3.5 5.25H28V3.5H3.5V5.25Z" fill="white"/>
</svg>
