<svg width="117" height="139" viewBox="0 0 117 139" fill="none" xmlns="http://www.w3.org/2000/svg">
<path d="M77.232 106.778H40.4542C39.4371 106.778 38.6113 107.607 38.6113 108.628V118.619C38.6113 119.64 39.4371 120.469 40.4542 120.469H77.232C78.2491 120.469 79.0749 119.64 79.0749 118.619V108.628C79.0749 107.607 78.2491 106.778 77.232 106.778ZM75.3891 116.769H42.2971V110.478H75.3891V116.769Z" fill="#6FB018"/>
<path d="M114.526 50.8248H108.604V47.096C108.604 41.6737 104.208 37.2635 98.8085 37.2635H60.0276V17.623C64.0406 16.7696 67.0609 13.1882 67.0609 8.90981C67.0609 3.9969 63.079 0 58.1847 0C53.2903 0 49.3085 3.9969 49.3085 8.90981C49.3085 13.1882 52.3288 16.7696 56.3418 17.623V37.2635H17.5609C12.1591 37.2635 7.76553 41.6737 7.76553 47.096V50.8248H1.8429C0.825742 50.8248 0 51.6536 0 52.6746V95.6776C0 96.6986 0.825742 97.5275 1.8429 97.5275H7.76553V128.652C7.76553 134.074 12.1613 138.484 17.5609 138.484H98.8107C104.213 138.484 108.606 134.074 108.606 128.652V97.5275H114.529C115.546 97.5275 116.372 96.6986 116.372 95.6776V52.6746C116.372 51.6536 115.546 50.8248 114.529 50.8248H114.526ZM112.681 93.83H3.68134V54.5268H112.681V93.83ZM17.5587 134.786C14.1889 134.786 11.4491 132.036 11.4491 128.654V102.409L11.458 97.5297H104.918V128.654C104.918 132.034 102.178 134.786 98.8085 134.786H17.5587ZM104.916 50.8248H11.4491V47.096C11.4491 43.7157 14.1889 40.9632 17.5587 40.9632H98.8085C102.178 40.9632 104.918 43.7135 104.918 47.096V50.8248H104.916ZM58.1825 3.70199C61.0447 3.70199 63.3728 6.03892 63.3728 8.90981C63.3728 11.7807 61.0447 14.1176 58.1825 14.1176C55.3202 14.1176 52.9921 11.7807 52.9921 8.90981C52.9921 6.03892 55.3202 3.70199 58.1825 3.70199Z" fill="#4B0081"/>
<path d="M46.0226 79.5588V68.1535C46.0226 67.1682 45.2258 66.3684 44.2442 66.3684H24.3018C23.3202 66.3684 22.5234 67.1682 22.5234 68.1535V79.5588C22.5234 80.5441 23.3202 81.3439 24.3018 81.3439H44.2442C45.2258 81.3439 46.0226 80.5441 46.0226 79.5588ZM42.4681 77.7738H26.0824V69.9386H42.4681V77.7738Z" fill="#6FB018"/>
<path d="M71.125 68.1535V79.5588C71.125 80.5441 71.9218 81.3439 72.9034 81.3439H92.8458C93.8273 81.3439 94.6241 80.5441 94.6241 79.5588V68.1535C94.6241 67.1682 93.8273 66.3684 92.8458 66.3684H72.9034C71.9218 66.3684 71.125 67.1682 71.125 68.1535ZM74.6795 69.9386H91.0652V77.7738H74.6795V69.9386Z" fill="#6FB018"/>
</svg>
