<svg width="42" height="42" viewBox="0 0 42 42" fill="none" xmlns="http://www.w3.org/2000/svg">
<mask id="mask0_229_2602" style="mask-type:alpha" maskUnits="userSpaceOnUse" x="0" y="0" width="42" height="42">
<rect width="42" height="42" fill="#D9D9D9"/>
</mask>
<g mask="url(#mask0_229_2602)">
<path d="M8.75 38.5C7.7875 38.5 6.96354 38.1573 6.27813 37.4719C5.59271 36.7865 5.25 35.9625 5.25 35V10.5C5.25 9.5375 5.59271 8.71354 6.27813 8.02813C6.96354 7.34271 7.7875 7 8.75 7H10.5V3.5H14V7H28V3.5H31.5V7H33.25C34.2125 7 35.0365 7.34271 35.7219 8.02813C36.4073 8.71354 36.75 9.5375 36.75 10.5V35C36.75 35.9625 36.4073 36.7865 35.7219 37.4719C35.0365 38.1573 34.2125 38.5 33.25 38.5H8.75ZM8.75 35H33.25V17.5H8.75V35ZM8.75 14H33.25V10.5H8.75V14ZM21 24.5C20.5042 24.5 20.0885 24.3323 19.7531 23.9969C19.4177 23.6615 19.25 23.2458 19.25 22.75C19.25 22.2542 19.4177 21.8385 19.7531 21.5031C20.0885 21.1677 20.5042 21 21 21C21.4958 21 21.9115 21.1677 22.2469 21.5031C22.5823 21.8385 22.75 22.2542 22.75 22.75C22.75 23.2458 22.5823 23.6615 22.2469 23.9969C21.9115 24.3323 21.4958 24.5 21 24.5ZM14 24.5C13.5042 24.5 13.0885 24.3323 12.7531 23.9969C12.4177 23.6615 12.25 23.2458 12.25 22.75C12.25 22.2542 12.4177 21.8385 12.7531 21.5031C13.0885 21.1677 13.5042 21 14 21C14.4958 21 14.9115 21.1677 15.2469 21.5031C15.5823 21.8385 15.75 22.2542 15.75 22.75C15.75 23.2458 15.5823 23.6615 15.2469 23.9969C14.9115 24.3323 14.4958 24.5 14 24.5ZM28 24.5C27.5042 24.5 27.0885 24.3323 26.7531 23.9969C26.4177 23.6615 26.25 23.2458 26.25 22.75C26.25 22.2542 26.4177 21.8385 26.7531 21.5031C27.0885 21.1677 27.5042 21 28 21C28.4958 21 28.9115 21.1677 29.2469 21.5031C29.5823 21.8385 29.75 22.2542 29.75 22.75C29.75 23.2458 29.5823 23.6615 29.2469 23.9969C28.9115 24.3323 28.4958 24.5 28 24.5ZM21 31.5C20.5042 31.5 20.0885 31.3323 19.7531 30.9969C19.4177 30.6615 19.25 30.2458 19.25 29.75C19.25 29.2542 19.4177 28.8385 19.7531 28.5031C20.0885 28.1677 20.5042 28 21 28C21.4958 28 21.9115 28.1677 22.2469 28.5031C22.5823 28.8385 22.75 29.2542 22.75 29.75C22.75 30.2458 22.5823 30.6615 22.2469 30.9969C21.9115 31.3323 21.4958 31.5 21 31.5ZM14 31.5C13.5042 31.5 13.0885 31.3323 12.7531 30.9969C12.4177 30.6615 12.25 30.2458 12.25 29.75C12.25 29.2542 12.4177 28.8385 12.7531 28.5031C13.0885 28.1677 13.5042 28 14 28C14.4958 28 14.9115 28.1677 15.2469 28.5031C15.5823 28.8385 15.75 29.2542 15.75 29.75C15.75 30.2458 15.5823 30.6615 15.2469 30.9969C14.9115 31.3323 14.4958 31.5 14 31.5ZM28 31.5C27.5042 31.5 27.0885 31.3323 26.7531 30.9969C26.4177 30.6615 26.25 30.2458 26.25 29.75C26.25 29.2542 26.4177 28.8385 26.7531 28.5031C27.0885 28.1677 27.5042 28 28 28C28.4958 28 28.9115 28.1677 29.2469 28.5031C29.5823 28.8385 29.75 29.2542 29.75 29.75C29.75 30.2458 29.5823 30.6615 29.2469 30.9969C28.9115 31.3323 28.4958 31.5 28 31.5Z" fill="white"/>
</g>
</svg>
