<svg width="42" height="42" viewBox="0 0 42 42" fill="none" xmlns="http://www.w3.org/2000/svg">
<mask id="mask0_229_2665" style="mask-type:alpha" maskUnits="userSpaceOnUse" x="0" y="0" width="42" height="42">
<rect width="42" height="42" fill="#D9D9D9"/>
</mask>
<g mask="url(#mask0_229_2665)">
<path d="M31.5 35V29.75H26.25V26.25H31.5V21H35V26.25H40.25V29.75H35V35H31.5ZM5.25 36.75C4.2875 36.75 3.46354 36.4073 2.77813 35.7219C2.09271 35.0365 1.75 34.2125 1.75 33.25V8.75C1.75 7.7875 2.09271 6.96354 2.77813 6.27813C3.46354 5.59271 4.2875 5.25 5.25 5.25H29.75C30.7125 5.25 31.5365 5.59271 32.2219 6.27813C32.9073 6.96354 33.25 7.7875 33.25 8.75V17.5H29.75V14H5.25V33.25H28V36.75H5.25ZM5.25 10.5H29.75V8.75H5.25V10.5Z" fill="white"/>
</g>
</svg>
