<svg width="42" height="42" viewBox="0 0 42 42" fill="none" xmlns="http://www.w3.org/2000/svg">
<mask id="mask0_229_2647" style="mask-type:alpha" maskUnits="userSpaceOnUse" x="0" y="0" width="42" height="42">
<rect width="42" height="42" fill="#D9D9D9"/>
</mask>
<g mask="url(#mask0_229_2647)">
<path d="M3.5 38.5V7C3.5 6.0375 3.84271 5.21354 4.52813 4.52813C5.21354 3.84271 6.0375 3.5 7 3.5H35C35.9625 3.5 36.7865 3.84271 37.4719 4.52813C38.1573 5.21354 38.5 6.0375 38.5 7V28C38.5 28.9625 38.1573 29.7865 37.4719 30.4719C36.7865 31.1573 35.9625 31.5 35 31.5H10.5L3.5 38.5ZM9.0125 28H35V7H7V29.9688L9.0125 28Z" fill="white"/>
</g>
</svg>
