<svg width="42" height="42" viewBox="0 0 42 42" fill="none" xmlns="http://www.w3.org/2000/svg">
<mask id="mask0_229_2638" style="mask-type:alpha" maskUnits="userSpaceOnUse" x="0" y="0" width="42" height="42">
<rect width="42" height="42" fill="#D9D9D9"/>
</mask>
<g mask="url(#mask0_229_2638)">
<path d="M21 38.5C18.5792 38.5 16.3042 38.0406 14.175 37.1219C12.0458 36.2031 10.1937 34.9563 8.61875 33.3813C7.04375 31.8063 5.79688 29.9542 4.87813 27.825C3.95937 25.6958 3.5 23.4208 3.5 21C3.5 18.5792 3.95937 16.3042 4.87813 14.175C5.79688 12.0458 7.04375 10.1938 8.61875 8.61875C10.1937 7.04375 12.0458 5.79688 14.175 4.87812C16.3042 3.95937 18.5792 3.5 21 3.5C21.9625 3.5 22.9104 3.57292 23.8438 3.71875C24.7771 3.86458 25.6812 4.08333 26.5562 4.375C27.2271 4.60833 27.65 4.95104 27.825 5.40313C28 5.85521 28.0146 6.3 27.8687 6.7375C27.7229 7.175 27.4531 7.51771 27.0594 7.76562C26.6656 8.01354 26.2208 8.03542 25.725 7.83125C24.9667 7.56875 24.201 7.36458 23.4281 7.21875C22.6552 7.07292 21.8458 7 21 7C17.1208 7 13.8177 8.36354 11.0906 11.0906C8.36354 13.8177 7 17.1208 7 21C7 24.8792 8.36354 28.1823 11.0906 30.9094C13.8177 33.6365 17.1208 35 21 35C24.8792 35 28.1823 33.6365 30.9094 30.9094C33.6365 28.1823 35 24.8792 35 21C35 20.475 34.9708 19.95 34.9125 19.425C34.8542 18.9 34.7667 18.3896 34.65 17.8938C34.5042 17.3396 34.5771 16.8875 34.8688 16.5375C35.1604 16.1875 35.525 15.9688 35.9625 15.8812C36.4 15.7937 36.8302 15.8594 37.2531 16.0781C37.676 16.2969 37.9604 16.7125 38.1063 17.325C38.2521 17.9083 38.3542 18.5063 38.4125 19.1187C38.4708 19.7313 38.5 20.3583 38.5 21C38.5 23.4208 38.0406 25.6958 37.1219 27.825C36.2031 29.9542 34.9563 31.8063 33.3813 33.3813C31.8063 34.9563 29.9542 36.2031 27.825 37.1219C25.6958 38.0406 23.4208 38.5 21 38.5ZM35 8.75H33.25C32.7542 8.75 32.3385 8.58229 32.0031 8.24688C31.6677 7.91146 31.5 7.49583 31.5 7C31.5 6.50417 31.6677 6.08854 32.0031 5.75313C32.3385 5.41771 32.7542 5.25 33.25 5.25H35V3.5C35 3.00417 35.1677 2.58854 35.5031 2.25313C35.8385 1.91771 36.2542 1.75 36.75 1.75C37.2458 1.75 37.6615 1.91771 37.9969 2.25313C38.3323 2.58854 38.5 3.00417 38.5 3.5V5.25H40.25C40.7458 5.25 41.1615 5.41771 41.4969 5.75313C41.8323 6.08854 42 6.50417 42 7C42 7.49583 41.8323 7.91146 41.4969 8.24688C41.1615 8.58229 40.7458 8.75 40.25 8.75H38.5V10.5C38.5 10.9958 38.3323 11.4115 37.9969 11.7469C37.6615 12.0823 37.2458 12.25 36.75 12.25C36.2542 12.25 35.8385 12.0823 35.5031 11.7469C35.1677 11.4115 35 10.9958 35 10.5V8.75ZM27.125 19.25C27.8542 19.25 28.474 18.9948 28.9844 18.4844C29.4948 17.974 29.75 17.3542 29.75 16.625C29.75 15.8958 29.4948 15.276 28.9844 14.7656C28.474 14.2552 27.8542 14 27.125 14C26.3958 14 25.776 14.2552 25.2656 14.7656C24.7552 15.276 24.5 15.8958 24.5 16.625C24.5 17.3542 24.7552 17.974 25.2656 18.4844C25.776 18.9948 26.3958 19.25 27.125 19.25ZM14.875 19.25C15.6042 19.25 16.224 18.9948 16.7344 18.4844C17.2448 17.974 17.5 17.3542 17.5 16.625C17.5 15.8958 17.2448 15.276 16.7344 14.7656C16.224 14.2552 15.6042 14 14.875 14C14.1458 14 13.526 14.2552 13.0156 14.7656C12.5052 15.276 12.25 15.8958 12.25 16.625C12.25 17.3542 12.5052 17.974 13.0156 18.4844C13.526 18.9948 14.1458 19.25 14.875 19.25ZM21 30.625C22.6917 30.625 24.2521 30.2167 25.6812 29.4C27.1104 28.5833 28.2625 27.475 29.1375 26.075C29.3125 25.725 29.2979 25.375 29.0938 25.025C28.8896 24.675 28.5833 24.5 28.175 24.5H13.825C13.4167 24.5 13.1104 24.675 12.9062 25.025C12.7021 25.375 12.6875 25.725 12.8625 26.075C13.7375 27.475 14.8969 28.5833 16.3406 29.4C17.7844 30.2167 19.3375 30.625 21 30.625Z" fill="white"/>
</g>
</svg>
