<svg width="42" height="42" viewBox="0 0 42 42" fill="none" xmlns="http://www.w3.org/2000/svg">
<mask id="mask0_229_2653" style="mask-type:alpha" maskUnits="userSpaceOnUse" x="0" y="0" width="42" height="42">
<rect width="42" height="42" fill="#D9D9D9"/>
</mask>
<g mask="url(#mask0_229_2653)">
<path d="M31.5 36.75H12.25V14L24.5 1.75L26.6875 3.9375C26.8917 4.14167 27.0594 4.41875 27.1906 4.76875C27.3219 5.11875 27.3875 5.45417 27.3875 5.775V6.3875L25.4625 14H36.75C37.6833 14 38.5 14.35 39.2 15.05C39.9 15.75 40.25 16.5667 40.25 17.5V21C40.25 21.2042 40.2208 21.4229 40.1625 21.6562C40.1042 21.8896 40.0458 22.1083 39.9875 22.3125L34.7375 34.65C34.475 35.2333 34.0375 35.7292 33.425 36.1375C32.8125 36.5458 32.1708 36.75 31.5 36.75ZM15.75 33.25H31.5L36.75 21V17.5H21L23.3625 7.875L15.75 15.4875V33.25ZM12.25 14V17.5H7V33.25H12.25V36.75H3.5V14H12.25Z" fill="white"/>
</g>
</svg>
