<svg width="32" height="35" viewBox="0 0 32 35" fill="none" xmlns="http://www.w3.org/2000/svg">
<path d="M3.5 35C2.5375 35 1.71354 34.6573 1.02813 33.9719C0.342708 33.2865 0 32.4625 0 31.5V7C0 6.0375 0.342708 5.21354 1.02813 4.52813C1.71354 3.84271 2.5375 3.5 3.5 3.5H5.25V0H8.75V3.5H22.75V0H26.25V3.5H28C28.9625 3.5 29.7865 3.84271 30.4719 4.52813C31.1573 5.21354 31.5 6.0375 31.5 7V31.5C31.5 32.4625 31.1573 33.2865 30.4719 33.9719C29.7865 34.6573 28.9625 35 28 35H3.5ZM3.5 31.5H28V14H3.5V31.5ZM3.5 10.5H28V7H3.5V10.5ZM15.75 21C15.2542 21 14.8385 20.8323 14.5031 20.4969C14.1677 20.1615 14 19.7458 14 19.25C14 18.7542 14.1677 18.3385 14.5031 18.0031C14.8385 17.6677 15.2542 17.5 15.75 17.5C16.2458 17.5 16.6615 17.6677 16.9969 18.0031C17.3323 18.3385 17.5 18.7542 17.5 19.25C17.5 19.7458 17.3323 20.1615 16.9969 20.4969C16.6615 20.8323 16.2458 21 15.75 21ZM8.75 21C8.25417 21 7.83854 20.8323 7.50312 20.4969C7.16771 20.1615 7 19.7458 7 19.25C7 18.7542 7.16771 18.3385 7.50312 18.0031C7.83854 17.6677 8.25417 17.5 8.75 17.5C9.24583 17.5 9.66146 17.6677 9.99687 18.0031C10.3323 18.3385 10.5 18.7542 10.5 19.25C10.5 19.7458 10.3323 20.1615 9.99687 20.4969C9.66146 20.8323 9.24583 21 8.75 21ZM22.75 21C22.2542 21 21.8385 20.8323 21.5031 20.4969C21.1677 20.1615 21 19.7458 21 19.25C21 18.7542 21.1677 18.3385 21.5031 18.0031C21.8385 17.6677 22.2542 17.5 22.75 17.5C23.2458 17.5 23.6615 17.6677 23.9969 18.0031C24.3323 18.3385 24.5 18.7542 24.5 19.25C24.5 19.7458 24.3323 20.1615 23.9969 20.4969C23.6615 20.8323 23.2458 21 22.75 21ZM15.75 28C15.2542 28 14.8385 27.8323 14.5031 27.4969C14.1677 27.1615 14 26.7458 14 26.25C14 25.7542 14.1677 25.3385 14.5031 25.0031C14.8385 24.6677 15.2542 24.5 15.75 24.5C16.2458 24.5 16.6615 24.6677 16.9969 25.0031C17.3323 25.3385 17.5 25.7542 17.5 26.25C17.5 26.7458 17.3323 27.1615 16.9969 27.4969C16.6615 27.8323 16.2458 28 15.75 28ZM8.75 28C8.25417 28 7.83854 27.8323 7.50312 27.4969C7.16771 27.1615 7 26.7458 7 26.25C7 25.7542 7.16771 25.3385 7.50312 25.0031C7.83854 24.6677 8.25417 24.5 8.75 24.5C9.24583 24.5 9.66146 24.6677 9.99687 25.0031C10.3323 25.3385 10.5 25.7542 10.5 26.25C10.5 26.7458 10.3323 27.1615 9.99687 27.4969C9.66146 27.8323 9.24583 28 8.75 28ZM22.75 28C22.2542 28 21.8385 27.8323 21.5031 27.4969C21.1677 27.1615 21 26.7458 21 26.25C21 25.7542 21.1677 25.3385 21.5031 25.0031C21.8385 24.6677 22.2542 24.5 22.75 24.5C23.2458 24.5 23.6615 24.6677 23.9969 25.0031C24.3323 25.3385 24.5 25.7542 24.5 26.25C24.5 26.7458 24.3323 27.1615 23.9969 27.4969C23.6615 27.8323 23.2458 28 22.75 28Z" fill="white"/>
</svg>
