<svg width="24" height="27" viewBox="0 0 24 27" fill="none" xmlns="http://www.w3.org/2000/svg">
<path d="M12.4667 20.6667C11.5778 21.5556 10.5 22 9.23333 22C7.96667 22 6.88889 21.5556 6 20.6667C5.11111 19.7778 4.66667 18.7056 4.66667 17.45C4.66667 16.1944 5.11111 15.1222 6 14.2333L11.5333 8.66667C12.4222 7.77778 13.5 7.33333 14.7667 7.33333C16.0333 7.33333 17.1111 7.77778 18 8.66667C18.8889 9.55556 19.3333 10.6278 19.3333 11.8833C19.3333 13.1389 18.8889 14.2111 18 15.1L12.4667 20.6667ZM7.86667 18.7667C8.37778 19.2778 8.90556 19.4611 9.45 19.3167C9.99444 19.1722 10.3667 19 10.5667 18.8L12.4 16.9333L9.73333 14.2667L7.86667 16.1C7.48889 16.4778 7.3 16.9222 7.3 17.4333C7.3 17.9444 7.48889 18.3889 7.86667 18.7667ZM16.1333 10.5667C15.6222 10.0556 15.0944 9.87222 14.55 10.0167C14.0056 10.1611 13.6333 10.3333 13.4333 10.5333L11.6 12.4L14.2667 15.0667L16.1333 13.2333C16.5111 12.8556 16.7 12.4111 16.7 11.9C16.7 11.3889 16.5111 10.9444 16.1333 10.5667ZM2.66667 26.6667C1.93333 26.6667 1.30556 26.4056 0.783333 25.8833C0.261111 25.3611 0 24.7333 0 24V5.33333C0 4.6 0.261111 3.97222 0.783333 3.45C1.30556 2.92778 1.93333 2.66667 2.66667 2.66667H8.26667C8.55556 1.86667 9.03889 1.22222 9.71667 0.733333C10.3944 0.244444 11.1556 0 12 0C12.8444 0 13.6056 0.244444 14.2833 0.733333C14.9611 1.22222 15.4444 1.86667 15.7333 2.66667H21.3333C22.0667 2.66667 22.6944 2.92778 23.2167 3.45C23.7389 3.97222 24 4.6 24 5.33333V24C24 24.7333 23.7389 25.3611 23.2167 25.8833C22.6944 26.4056 22.0667 26.6667 21.3333 26.6667H2.66667ZM2.66667 24H21.3333V5.33333H2.66667V24ZM12 4.33333C12.2889 4.33333 12.5278 4.23889 12.7167 4.05C12.9056 3.86111 13 3.62222 13 3.33333C13 3.04444 12.9056 2.80556 12.7167 2.61667C12.5278 2.42778 12.2889 2.33333 12 2.33333C11.7111 2.33333 11.4722 2.42778 11.2833 2.61667C11.0944 2.80556 11 3.04444 11 3.33333C11 3.62222 11.0944 3.86111 11.2833 4.05C11.4722 4.23889 11.7111 4.33333 12 4.33333Z" fill="white"/>
</svg>
