<svg width="27" height="27" viewBox="0 0 27 27" fill="none" xmlns="http://www.w3.org/2000/svg">
<path d="M8 9.33333V6.66667H20V9.33333H8ZM8 13.3333V10.6667H20V13.3333H8ZM12 26.6667H4C2.88889 26.6667 1.94444 26.2778 1.16667 25.5C0.388889 24.7222 0 23.7778 0 22.6667V18.6667H4V0H24V12.0333C23.5556 11.9889 23.1056 12.0056 22.65 12.0833C22.1944 12.1611 21.7556 12.3 21.3333 12.5V2.66667H6.66667V18.6667H14.6667L12 21.3333H2.66667V22.6667C2.66667 23.0444 2.79444 23.3611 3.05 23.6167C3.30556 23.8722 3.62222 24 4 24H12V26.6667ZM14.6667 26.6667V22.5667L22.0333 15.2333C22.2333 15.0333 22.4556 14.8889 22.7 14.8C22.9444 14.7111 23.1889 14.6667 23.4333 14.6667C23.7 14.6667 23.9556 14.7167 24.2 14.8167C24.4444 14.9167 24.6667 15.0667 24.8667 15.2667L26.1 16.5C26.2778 16.7 26.4167 16.9222 26.5167 17.1667C26.6167 17.4111 26.6667 17.6556 26.6667 17.9C26.6667 18.1444 26.6222 18.3944 26.5333 18.65C26.4444 18.9056 26.3 19.1333 26.1 19.3333L18.7667 26.6667H14.6667ZM16.6667 24.6667H17.9333L21.9667 20.6L21.3667 19.9667L20.7333 19.3667L16.6667 23.4V24.6667ZM21.3667 19.9667L20.7333 19.3667L21.9667 20.6L21.3667 19.9667Z" fill="white"/>
</svg>
