<svg width="24" height="24" viewBox="0 0 24 24" fill="none" xmlns="http://www.w3.org/2000/svg">
<mask id="mask0_2003_3260" style="mask-type:alpha" maskUnits="userSpaceOnUse" x="0" y="0" width="24" height="24">
<rect width="24" height="24" fill="#D9D9D9"/>
</mask>
<g mask="url(#mask0_2003_3260)">
<path d="M6 14H9.05L14.05 9C14.2 8.85 14.3125 8.67917 14.3875 8.4875C14.4625 8.29583 14.5 8.10833 14.5 7.925C14.5 7.74167 14.4583 7.5625 14.375 7.3875C14.2917 7.2125 14.1833 7.05 14.05 6.9L13.15 5.95C13 5.8 12.8333 5.6875 12.65 5.6125C12.4667 5.5375 12.275 5.5 12.075 5.5C11.8917 5.5 11.7042 5.5375 11.5125 5.6125C11.3208 5.6875 11.15 5.8 11 5.95L6 10.95V14ZM7.5 12.5V11.55L10.025 9.025L10.525 9.475L10.975 9.975L8.45 12.5H7.5ZM10.525 9.475L10.975 9.975L10.025 9.025L10.525 9.475ZM11.175 14H18V12H13.175L11.175 14ZM2 22V4C2 3.45 2.19583 2.97917 2.5875 2.5875C2.97917 2.19583 3.45 2 4 2H20C20.55 2 21.0208 2.19583 21.4125 2.5875C21.8042 2.97917 22 3.45 22 4V16C22 16.55 21.8042 17.0208 21.4125 17.4125C21.0208 17.8042 20.55 18 20 18H6L2 22ZM5.15 16H20V4H4V17.125L5.15 16Z" fill="white"/>
</g>
</svg>
