<svg width="24" height="24" viewBox="0 0 24 24" fill="none" xmlns="http://www.w3.org/2000/svg">
<mask id="mask0_2003_3252" style="mask-type:alpha" maskUnits="userSpaceOnUse" x="0" y="0" width="24" height="24">
<rect width="24" height="24" fill="#D9D9D9"/>
</mask>
<g mask="url(#mask0_2003_3252)">
<path d="M12 7C12.2833 7 12.5208 6.90417 12.7125 6.7125C12.9042 6.52083 13 6.28333 13 6C13 5.71667 12.9042 5.47917 12.7125 5.2875C12.5208 5.09583 12.2833 5 12 5C11.7167 5 11.4792 5.09583 11.2875 5.2875C11.0958 5.47917 11 5.71667 11 6C11 6.28333 11.0958 6.52083 11.2875 6.7125C11.4792 6.90417 11.7167 7 12 7ZM11 15H13V9H11V15ZM2 22V4C2 3.45 2.19583 2.97917 2.5875 2.5875C2.97917 2.19583 3.45 2 4 2H20C20.55 2 21.0208 2.19583 21.4125 2.5875C21.8042 2.97917 22 3.45 22 4V16C22 16.55 21.8042 17.0208 21.4125 17.4125C21.0208 17.8042 20.55 18 20 18H6L2 22ZM5.15 16H20V4H4V17.125L5.15 16Z" fill="white"/>
</g>
</svg>
