<svg width="24" height="24" viewBox="0 0 24 24" fill="none" xmlns="http://www.w3.org/2000/svg">
<mask id="mask0_2003_3236" style="mask-type:alpha" maskUnits="userSpaceOnUse" x="0" y="0" width="24" height="24">
<rect width="24" height="24" fill="#D9D9D9"/>
</mask>
<g mask="url(#mask0_2003_3236)">
<path d="M3.24951 19.275L2.02451 10.35C1.94118 9.81667 2.07034 9.33333 2.41201 8.9C2.75368 8.46667 3.19118 8.20833 3.72451 8.125L5.24951 19L12.3245 18H18.9995C18.8662 18.35 18.662 18.6458 18.387 18.8875C18.112 19.1292 17.7745 19.275 17.3745 19.325L5.44951 20.975C4.89951 21.0583 4.41618 20.9333 3.99951 20.6C3.58284 20.2667 3.33284 19.825 3.24951 19.275ZM7.99951 16.1C7.44951 16.1 6.97868 15.9042 6.58701 15.5125C6.19534 15.1208 5.99951 14.65 5.99951 14.1V5C5.99951 4.45 6.19534 3.97917 6.58701 3.5875C6.97868 3.19583 7.44951 3 7.99951 3H19.9995C20.5495 3 21.0203 3.19583 21.412 3.5875C21.8037 3.97917 21.9995 4.45 21.9995 5V14.1C21.9995 14.65 21.8037 15.1208 21.412 15.5125C21.0203 15.9042 20.5495 16.1 19.9995 16.1H7.99951ZM7.99951 14.1H19.9995V5H7.99951V14.1ZM9.99951 9H17.9995V7H9.99951V9ZM9.99951 12H14.9995V10H9.99951V12Z" fill="white"/>
</g>
</svg>
