<svg width="30" height="30" viewBox="0 0 30 30" fill="none" xmlns="http://www.w3.org/2000/svg">
<rect width="30" height="30" rx="15" fill="#C7B0D8"/>
<path d="M8.01073 14.0001C7.45848 13.9941 7.00598 14.437 7.00006 14.9893C6.99413 15.5415 7.43702 15.994 7.98927 15.9999L8 15L8.01073 14.0001ZM23.6986 15.8756C24.0933 15.4893 24.1001 14.8562 23.7138 14.4615L17.4185 8.02959C17.0322 7.63489 16.399 7.6281 16.0043 8.01441C15.6097 8.40072 15.6029 9.03385 15.9892 9.42854L21.585 15.1458L15.8678 20.7416C15.4731 21.1279 15.4663 21.761 15.8526 22.1557C16.2389 22.5504 16.872 22.5572 17.2667 22.1709L23.6986 15.8756ZM8 15L7.98927 15.9999L22.9884 16.1609L22.9991 15.1609L23.0099 14.161L8.01073 14.0001L8 15Z" fill="white"/>
</svg>
