<svg width="30" height="30" viewBox="0 0 30 30" fill="none" xmlns="http://www.w3.org/2000/svg">
<rect width="30" height="30" rx="15" transform="matrix(-1 0 0 1 30 0)" fill="#C7B0D8"/>
<path d="M21.9893 14.0001C22.5415 13.9941 22.994 14.437 22.9999 14.9893C23.0059 15.5415 22.563 15.994 22.0107 15.9999L22 15L21.9893 14.0001ZM6.30138 15.8756C5.90669 15.4893 5.8999 14.8562 6.28621 14.4615L12.5815 8.02959C12.9678 7.63489 13.601 7.6281 13.9957 8.01441C14.3903 8.40072 14.3971 9.03385 14.0108 9.42854L8.415 15.1458L14.1322 20.7416C14.5269 21.1279 14.5337 21.761 14.1474 22.1557C13.7611 22.5504 13.128 22.5572 12.7333 22.1709L6.30138 15.8756ZM22 15L22.0107 15.9999L7.01159 16.1609L7.00086 15.1609L6.99013 14.161L21.9893 14.0001L22 15Z" fill="white"/>
</svg>
