<svg width="20" height="20" viewBox="0 0 20 20" fill="none" xmlns="http://www.w3.org/2000/svg">
<mask id="mask0_2132_4306" style="mask-type:alpha" maskUnits="userSpaceOnUse" x="0" y="0" width="20" height="20">
<rect width="20" height="20" fill="#D9D9D9"/>
</mask>
<g mask="url(#mask0_2132_4306)">
<path d="M9.83333 17.6667C8.36111 17.6667 7.15972 17.434 6.22917 16.9688C5.29861 16.5035 4.83333 15.9028 4.83333 15.1667C4.83333 14.8333 4.93403 14.5243 5.13542 14.2396C5.33681 13.9549 5.61806 13.7083 5.97917 13.5L7.29167 14.7292C7.16667 14.7847 7.03125 14.8472 6.88542 14.9167C6.73958 14.9861 6.625 15.0694 6.54167 15.1667C6.72222 15.3889 7.13889 15.5833 7.79167 15.75C8.44445 15.9167 9.125 16 9.83333 16C10.5417 16 11.2257 15.9167 11.8854 15.75C12.5451 15.5833 12.9653 15.3889 13.1458 15.1667C13.0486 15.0556 12.9236 14.9653 12.7708 14.8958C12.6181 14.8264 12.4722 14.7639 12.3333 14.7083L13.625 13.4583C14.0139 13.6806 14.3125 13.934 14.5208 14.2188C14.7292 14.5035 14.8333 14.8194 14.8333 15.1667C14.8333 15.9028 14.3681 16.5035 13.4375 16.9688C12.5069 17.434 11.3056 17.6667 9.83333 17.6667ZM9.85417 13.0833C11.2292 12.0694 12.2639 11.0521 12.9583 10.0312C13.6528 9.01042 14 7.98611 14 6.95833C14 5.54167 13.5486 4.47222 12.6458 3.75C11.7431 3.02778 10.8056 2.66667 9.83333 2.66667C8.86111 2.66667 7.92361 3.02778 7.02083 3.75C6.11806 4.47222 5.66667 5.54167 5.66667 6.95833C5.66667 7.88889 6.00694 8.85764 6.6875 9.86458C7.36806 10.8715 8.42361 11.9444 9.85417 13.0833ZM9.83333 15.1667C7.875 13.7222 6.41319 12.3194 5.44792 10.9583C4.48264 9.59722 4 8.26389 4 6.95833C4 5.97222 4.17708 5.10764 4.53125 4.36458C4.88542 3.62153 5.34028 3 5.89583 2.5C6.45139 2 7.07639 1.625 7.77083 1.375C8.46528 1.125 9.15278 1 9.83333 1C10.5139 1 11.2014 1.125 11.8958 1.375C12.5903 1.625 13.2153 2 13.7708 2.5C14.3264 3 14.7813 3.62153 15.1354 4.36458C15.4896 5.10764 15.6667 5.97222 15.6667 6.95833C15.6667 8.26389 15.184 9.59722 14.2188 10.9583C13.2535 12.3194 11.7917 13.7222 9.83333 15.1667ZM9.83333 8.5C10.2917 8.5 10.684 8.33681 11.0104 8.01042C11.3368 7.68403 11.5 7.29167 11.5 6.83333C11.5 6.375 11.3368 5.98264 11.0104 5.65625C10.684 5.32986 10.2917 5.16667 9.83333 5.16667C9.375 5.16667 8.98264 5.32986 8.65625 5.65625C8.32986 5.98264 8.16667 6.375 8.16667 6.83333C8.16667 7.29167 8.32986 7.68403 8.65625 8.01042C8.98264 8.33681 9.375 8.5 9.83333 8.5Z" fill="black"/>
</g>
</svg>
