<svg width="20" height="20" viewBox="0 0 20 20" fill="none" xmlns="http://www.w3.org/2000/svg">
<mask id="mask0_2132_4298" style="mask-type:alpha" maskUnits="userSpaceOnUse" x="0" y="0" width="20" height="20">
<rect width="20" height="20" fill="#D9D9D9"/>
</mask>
<g mask="url(#mask0_2132_4298)">
<path d="M3.33268 16.6663C2.87435 16.6663 2.48199 16.5031 2.1556 16.1768C1.82921 15.8504 1.66602 15.458 1.66602 14.9997V4.99967C1.66602 4.54134 1.82921 4.14898 2.1556 3.82259C2.48199 3.4962 2.87435 3.33301 3.33268 3.33301H16.666C17.1243 3.33301 17.5167 3.4962 17.8431 3.82259C18.1695 4.14898 18.3327 4.54134 18.3327 4.99967V14.9997C18.3327 15.458 18.1695 15.8504 17.8431 16.1768C17.5167 16.5031 17.1243 16.6663 16.666 16.6663H3.33268ZM9.99935 10.833L3.33268 6.66634V14.9997H16.666V6.66634L9.99935 10.833ZM9.99935 9.16634L16.666 4.99967H3.33268L9.99935 9.16634ZM3.33268 6.66634V4.99967V14.9997V6.66634Z" fill="#1C1B1F"/>
</g>
</svg>
