<svg width="20" height="20" viewBox="0 0 20 20" fill="none" xmlns="http://www.w3.org/2000/svg">
<mask id="mask0_2132_4290" style="mask-type:alpha" maskUnits="userSpaceOnUse" x="0" y="0" width="20" height="20">
<rect width="20" height="20" fill="#D9D9D9"/>
</mask>
<g mask="url(#mask0_2132_4290)">
<path d="M12.8333 8.66667V6.16667H10.3333V4.5H12.8333V2H14.5V4.5H17V6.16667H14.5V8.66667H12.8333ZM16.125 17C14.3889 17 12.6736 16.6215 10.9792 15.8646C9.28472 15.1076 7.74306 14.0347 6.35417 12.6458C4.96528 11.2569 3.89236 9.71528 3.13542 8.02083C2.37847 6.32639 2 4.61111 2 2.875C2 2.625 2.08333 2.41667 2.25 2.25C2.41667 2.08333 2.625 2 2.875 2H6.25C6.44444 2 6.61806 2.06597 6.77083 2.19792C6.92361 2.32986 7.01389 2.48611 7.04167 2.66667L7.58333 5.58333C7.61111 5.80556 7.60417 5.99306 7.5625 6.14583C7.52083 6.29861 7.44444 6.43056 7.33333 6.54167L5.3125 8.58333C5.59028 9.09722 5.92014 9.59375 6.30208 10.0729C6.68403 10.5521 7.10417 11.0139 7.5625 11.4583C7.99306 11.8889 8.44445 12.2882 8.91667 12.6563C9.38889 13.0243 9.88889 13.3611 10.4167 13.6667L12.375 11.7083C12.5 11.5833 12.6632 11.4896 12.8646 11.4271C13.066 11.3646 13.2639 11.3472 13.4583 11.375L16.3333 11.9583C16.5278 12.0139 16.6875 12.1146 16.8125 12.2604C16.9375 12.4063 17 12.5694 17 12.75V16.125C17 16.375 16.9167 16.5833 16.75 16.75C16.5833 16.9167 16.375 17 16.125 17ZM4.52083 7L5.89583 5.625L5.54167 3.66667H3.6875C3.75694 4.23611 3.85417 4.79861 3.97917 5.35417C4.10417 5.90972 4.28472 6.45833 4.52083 7ZM11.9792 14.4583C12.5208 14.6944 13.0729 14.8819 13.6354 15.0208C14.1979 15.1597 14.7639 15.25 15.3333 15.2917V13.4583L13.375 13.0625L11.9792 14.4583Z" fill="black"/>
<path d="M12.8333 8.66667V6.16667H10.3333V4.5H12.8333V2H14.5V4.5H17V6.16667H14.5V8.66667H12.8333ZM16.125 17C14.3889 17 12.6736 16.6215 10.9792 15.8646C9.28472 15.1076 7.74306 14.0347 6.35417 12.6458C4.96528 11.2569 3.89236 9.71528 3.13542 8.02083C2.37847 6.32639 2 4.61111 2 2.875C2 2.625 2.08333 2.41667 2.25 2.25C2.41667 2.08333 2.625 2 2.875 2H6.25C6.44444 2 6.61806 2.06597 6.77083 2.19792C6.92361 2.32986 7.01389 2.48611 7.04167 2.66667L7.58333 5.58333C7.61111 5.80556 7.60417 5.99306 7.5625 6.14583C7.52083 6.29861 7.44444 6.43056 7.33333 6.54167L5.3125 8.58333C5.59028 9.09722 5.92014 9.59375 6.30208 10.0729C6.68403 10.5521 7.10417 11.0139 7.5625 11.4583C7.99306 11.8889 8.44445 12.2882 8.91667 12.6563C9.38889 13.0243 9.88889 13.3611 10.4167 13.6667L12.375 11.7083C12.5 11.5833 12.6632 11.4896 12.8646 11.4271C13.066 11.3646 13.2639 11.3472 13.4583 11.375L16.3333 11.9583C16.5278 12.0139 16.6875 12.1146 16.8125 12.2604C16.9375 12.4063 17 12.5694 17 12.75V16.125C17 16.375 16.9167 16.5833 16.75 16.75C16.5833 16.9167 16.375 17 16.125 17ZM4.52083 7L5.89583 5.625L5.54167 3.66667H3.6875C3.75694 4.23611 3.85417 4.79861 3.97917 5.35417C4.10417 5.90972 4.28472 6.45833 4.52083 7ZM11.9792 14.4583C12.5208 14.6944 13.0729 14.8819 13.6354 15.0208C14.1979 15.1597 14.7639 15.25 15.3333 15.2917V13.4583L13.375 13.0625L11.9792 14.4583Z" fill="black" fill-opacity="0.2"/>
<path d="M12.8333 8.66667V6.16667H10.3333V4.5H12.8333V2H14.5V4.5H17V6.16667H14.5V8.66667H12.8333ZM16.125 17C14.3889 17 12.6736 16.6215 10.9792 15.8646C9.28472 15.1076 7.74306 14.0347 6.35417 12.6458C4.96528 11.2569 3.89236 9.71528 3.13542 8.02083C2.37847 6.32639 2 4.61111 2 2.875C2 2.625 2.08333 2.41667 2.25 2.25C2.41667 2.08333 2.625 2 2.875 2H6.25C6.44444 2 6.61806 2.06597 6.77083 2.19792C6.92361 2.32986 7.01389 2.48611 7.04167 2.66667L7.58333 5.58333C7.61111 5.80556 7.60417 5.99306 7.5625 6.14583C7.52083 6.29861 7.44444 6.43056 7.33333 6.54167L5.3125 8.58333C5.59028 9.09722 5.92014 9.59375 6.30208 10.0729C6.68403 10.5521 7.10417 11.0139 7.5625 11.4583C7.99306 11.8889 8.44445 12.2882 8.91667 12.6563C9.38889 13.0243 9.88889 13.3611 10.4167 13.6667L12.375 11.7083C12.5 11.5833 12.6632 11.4896 12.8646 11.4271C13.066 11.3646 13.2639 11.3472 13.4583 11.375L16.3333 11.9583C16.5278 12.0139 16.6875 12.1146 16.8125 12.2604C16.9375 12.4063 17 12.5694 17 12.75V16.125C17 16.375 16.9167 16.5833 16.75 16.75C16.5833 16.9167 16.375 17 16.125 17ZM4.52083 7L5.89583 5.625L5.54167 3.66667H3.6875C3.75694 4.23611 3.85417 4.79861 3.97917 5.35417C4.10417 5.90972 4.28472 6.45833 4.52083 7ZM11.9792 14.4583C12.5208 14.6944 13.0729 14.8819 13.6354 15.0208C14.1979 15.1597 14.7639 15.25 15.3333 15.2917V13.4583L13.375 13.0625L11.9792 14.4583Z" fill="black" fill-opacity="0.2"/>
<path d="M12.8333 8.66667V6.16667H10.3333V4.5H12.8333V2H14.5V4.5H17V6.16667H14.5V8.66667H12.8333ZM16.125 17C14.3889 17 12.6736 16.6215 10.9792 15.8646C9.28472 15.1076 7.74306 14.0347 6.35417 12.6458C4.96528 11.2569 3.89236 9.71528 3.13542 8.02083C2.37847 6.32639 2 4.61111 2 2.875C2 2.625 2.08333 2.41667 2.25 2.25C2.41667 2.08333 2.625 2 2.875 2H6.25C6.44444 2 6.61806 2.06597 6.77083 2.19792C6.92361 2.32986 7.01389 2.48611 7.04167 2.66667L7.58333 5.58333C7.61111 5.80556 7.60417 5.99306 7.5625 6.14583C7.52083 6.29861 7.44444 6.43056 7.33333 6.54167L5.3125 8.58333C5.59028 9.09722 5.92014 9.59375 6.30208 10.0729C6.68403 10.5521 7.10417 11.0139 7.5625 11.4583C7.99306 11.8889 8.44445 12.2882 8.91667 12.6563C9.38889 13.0243 9.88889 13.3611 10.4167 13.6667L12.375 11.7083C12.5 11.5833 12.6632 11.4896 12.8646 11.4271C13.066 11.3646 13.2639 11.3472 13.4583 11.375L16.3333 11.9583C16.5278 12.0139 16.6875 12.1146 16.8125 12.2604C16.9375 12.4063 17 12.5694 17 12.75V16.125C17 16.375 16.9167 16.5833 16.75 16.75C16.5833 16.9167 16.375 17 16.125 17ZM4.52083 7L5.89583 5.625L5.54167 3.66667H3.6875C3.75694 4.23611 3.85417 4.79861 3.97917 5.35417C4.10417 5.90972 4.28472 6.45833 4.52083 7ZM11.9792 14.4583C12.5208 14.6944 13.0729 14.8819 13.6354 15.0208C14.1979 15.1597 14.7639 15.25 15.3333 15.2917V13.4583L13.375 13.0625L11.9792 14.4583Z" fill="black" fill-opacity="0.2"/>
</g>
</svg>
