<svg width="14" height="18" viewBox="0 0 14 18" fill="none" xmlns="http://www.w3.org/2000/svg">
<path d="M6.66667 17.5L0.666667 13C0.458333 12.8472 0.295139 12.6528 0.177083 12.4167C0.0590278 12.1806 0 11.9306 0 11.6667V1.66667C0 1.20833 0.163194 0.815972 0.489583 0.489583C0.815972 0.163194 1.20833 0 1.66667 0H11.6667C12.125 0 12.5174 0.163194 12.8438 0.489583C13.1701 0.815972 13.3333 1.20833 13.3333 1.66667V11.6667C13.3333 11.9306 13.2743 12.1806 13.1562 12.4167C13.0382 12.6528 12.875 12.8472 12.6667 13L6.66667 17.5ZM6.66667 15.4167L11.6667 11.6667V1.66667H1.66667V11.6667L6.66667 15.4167ZM5.79167 10.8333L10.5 6.125L9.33333 4.91667L5.79167 8.45833L4.04167 6.70833L2.83333 7.875L5.79167 10.8333Z" fill="white"/>
</svg>
