<svg width="20" height="15" viewBox="0 0 20 15" fill="none" xmlns="http://www.w3.org/2000/svg">
<path d="M1.66667 15C1.20833 15 0.815972 14.8368 0.489583 14.5104C0.163194 14.184 0 13.7917 0 13.3333V1.66667C0 1.20833 0.163194 0.815972 0.489583 0.489583C0.815972 0.163194 1.20833 0 1.66667 0H18.3333C18.7917 0 19.184 0.163194 19.5104 0.489583C19.8368 0.815972 20 1.20833 20 1.66667V13.3333C20 13.7917 19.8368 14.184 19.5104 14.5104C19.184 14.8368 18.7917 15 18.3333 15H1.66667ZM13.25 13.3333H18.3333V1.66667H1.66667V13.3333H1.75C2.33333 12.2917 3.13889 11.4757 4.16667 10.8854C5.19444 10.2951 6.30556 10 7.5 10C8.69444 10 9.80556 10.2951 10.8333 10.8854C11.8611 11.4757 12.6667 12.2917 13.25 13.3333ZM7.5 9.16667C8.19444 9.16667 8.78472 8.92361 9.27083 8.4375C9.75694 7.95139 10 7.36111 10 6.66667C10 5.97222 9.75694 5.38194 9.27083 4.89583C8.78472 4.40972 8.19444 4.16667 7.5 4.16667C6.80556 4.16667 6.21528 4.40972 5.72917 4.89583C5.24306 5.38194 5 5.97222 5 6.66667C5 7.36111 5.24306 7.95139 5.72917 8.4375C6.21528 8.92361 6.80556 9.16667 7.5 9.16667ZM15.8333 12.5L17.5 10.8333L16.25 9.16667H14.875C14.7917 8.91667 14.7222 8.64931 14.6667 8.36458C14.6111 8.07986 14.5833 7.79167 14.5833 7.5C14.5833 7.20833 14.6111 6.92708 14.6667 6.65625C14.7222 6.38542 14.7917 6.11111 14.875 5.83333H16.25L17.5 4.16667L15.8333 2.5C15.0833 3.08333 14.4792 3.82292 14.0208 4.71875C13.5625 5.61458 13.3333 6.54167 13.3333 7.5C13.3333 8.45833 13.5625 9.38542 14.0208 10.2812C14.4792 11.1771 15.0833 11.9167 15.8333 12.5ZM3.79167 13.3333H11.2083C10.7361 12.8056 10.1771 12.3958 9.53125 12.1042C8.88542 11.8125 8.20833 11.6667 7.5 11.6667C6.79167 11.6667 6.11806 11.8125 5.47917 12.1042C4.84028 12.3958 4.27778 12.8056 3.79167 13.3333ZM7.5 7.5C7.26389 7.5 7.06597 7.42014 6.90625 7.26042C6.74653 7.10069 6.66667 6.90278 6.66667 6.66667C6.66667 6.43056 6.74653 6.23264 6.90625 6.07292C7.06597 5.91319 7.26389 5.83333 7.5 5.83333C7.73611 5.83333 7.93403 5.91319 8.09375 6.07292C8.25347 6.23264 8.33333 6.43056 8.33333 6.66667C8.33333 6.90278 8.25347 7.10069 8.09375 7.26042C7.93403 7.42014 7.73611 7.5 7.5 7.5Z" fill="white"/>
</svg>
