<svg width="20" height="20" viewBox="0 0 20 20" fill="none" xmlns="http://www.w3.org/2000/svg">
<mask id="mask0_2157_2441" style="mask-type:alpha" maskUnits="userSpaceOnUse" x="0" y="0" width="20" height="20">
<rect width="20" height="20" fill="#D9D9D9"/>
</mask>
<g mask="url(#mask0_2157_2441)">
<path d="M4.16667 15.8333V4.16667V7.89583V7.5V15.8333ZM5.83333 10.8333H10.4375C10.4653 10.5278 10.5347 10.2361 10.6458 9.95833C10.7569 9.68056 10.8958 9.41667 11.0625 9.16667H5.83333V10.8333ZM5.83333 14.1667H9.10417C9.34028 13.8889 9.61111 13.6632 9.91667 13.4896C10.2222 13.316 10.5417 13.1736 10.875 13.0625C10.8194 12.9792 10.7708 12.8889 10.7292 12.7917C10.6875 12.6944 10.6528 12.5972 10.625 12.5H5.83333V14.1667ZM5.83333 7.5H14.1667V5.83333H5.83333V7.5ZM4.16667 17.5C3.70833 17.5 3.31597 17.3368 2.98958 17.0104C2.66319 16.684 2.5 16.2917 2.5 15.8333V4.16667C2.5 3.70833 2.66319 3.31597 2.98958 2.98958C3.31597 2.66319 3.70833 2.5 4.16667 2.5H15.8333C16.2917 2.5 16.684 2.66319 17.0104 2.98958C17.3368 3.31597 17.5 3.70833 17.5 4.16667V9.54167C17.3056 9.18056 17.0694 8.86111 16.7917 8.58333C16.5139 8.30556 16.1944 8.07639 15.8333 7.89583V4.16667H4.16667V15.8333H8.375C8.36111 15.9167 8.35069 16 8.34375 16.0833C8.33681 16.1667 8.33333 16.25 8.33333 16.3333V17.5H4.16667ZM14.1667 13.3333C13.5833 13.3333 13.0903 13.1319 12.6875 12.7292C12.2847 12.3264 12.0833 11.8333 12.0833 11.25C12.0833 10.6667 12.2847 10.1736 12.6875 9.77083C13.0903 9.36806 13.5833 9.16667 14.1667 9.16667C14.75 9.16667 15.2431 9.36806 15.6458 9.77083C16.0486 10.1736 16.25 10.6667 16.25 11.25C16.25 11.8333 16.0486 12.3264 15.6458 12.7292C15.2431 13.1319 14.75 13.3333 14.1667 13.3333ZM10 17.5V16.3333C10 16 10.0868 15.691 10.2604 15.4062C10.434 15.1215 10.6806 14.9167 11 14.7917C11.5 14.5833 12.0174 14.4271 12.5521 14.3229C13.0868 14.2187 13.625 14.1667 14.1667 14.1667C14.7083 14.1667 15.2465 14.2187 15.7813 14.3229C16.316 14.4271 16.8333 14.5833 17.3333 14.7917C17.6528 14.9167 17.8993 15.1215 18.0729 15.4062C18.2465 15.691 18.3333 16 18.3333 16.3333V17.5H10Z" fill="white"/>
</g>
</svg>
