<svg width="20" height="20" viewBox="0 0 20 20" fill="none" xmlns="http://www.w3.org/2000/svg">
<mask id="mask0_302_7043" style="mask-type:alpha" maskUnits="userSpaceOnUse" x="0" y="0" width="20" height="20">
<rect width="20" height="20" fill="#D9D9D9"/>
</mask>
<g mask="url(#mask0_302_7043)">
<path d="M3.33464 17.4998C2.8763 17.4998 2.48394 17.3366 2.15755 17.0103C1.83116 16.6839 1.66797 16.2915 1.66797 15.8332V6.6665C1.66797 6.20817 1.83116 5.81581 2.15755 5.48942C2.48394 5.16303 2.8763 4.99984 3.33464 4.99984H6.66797V3.33317C6.66797 2.87484 6.83116 2.48248 7.15755 2.15609C7.48394 1.8297 7.8763 1.6665 8.33464 1.6665H11.668C12.1263 1.6665 12.5187 1.8297 12.8451 2.15609C13.1714 2.48248 13.3346 2.87484 13.3346 3.33317V4.99984H16.668C17.1263 4.99984 17.5187 5.16303 17.8451 5.48942C18.1714 5.81581 18.3346 6.20817 18.3346 6.6665V15.8332C18.3346 16.2915 18.1714 16.6839 17.8451 17.0103C17.5187 17.3366 17.1263 17.4998 16.668 17.4998H3.33464ZM8.33464 4.99984H11.668V3.33317H8.33464V4.99984ZM16.668 12.4998H12.5013V14.1665H7.5013V12.4998H3.33464V15.8332H16.668V12.4998ZM9.16797 12.4998H10.8346V10.8332H9.16797V12.4998ZM3.33464 10.8332H7.5013V9.1665H12.5013V10.8332H16.668V6.6665H3.33464V10.8332Z" fill="white"/>
</g>
</svg>
