<svg width="20" height="20" viewBox="0 0 20 20" fill="none" xmlns="http://www.w3.org/2000/svg">
<mask id="mask0_302_7057" style="mask-type:alpha" maskUnits="userSpaceOnUse" x="0" y="0" width="20" height="20">
<rect width="20" height="20" fill="#D9D9D9"/>
</mask>
<g mask="url(#mask0_302_7057)">
<path d="M9.9987 19.1665L3.9987 14.6665C3.79036 14.5137 3.62717 14.3193 3.50911 14.0832C3.39106 13.8471 3.33203 13.5971 3.33203 13.3332V3.33317C3.33203 2.87484 3.49523 2.48248 3.82161 2.15609C4.148 1.8297 4.54036 1.6665 4.9987 1.6665H14.9987C15.457 1.6665 15.8494 1.8297 16.1758 2.15609C16.5022 2.48248 16.6654 2.87484 16.6654 3.33317V13.3332C16.6654 13.5971 16.6063 13.8471 16.4883 14.0832C16.3702 14.3193 16.207 14.5137 15.9987 14.6665L9.9987 19.1665ZM9.9987 17.0832L14.9987 13.3332V3.33317H4.9987V13.3332L9.9987 17.0832ZM9.1237 12.4998L13.832 7.7915L12.6654 6.58317L9.1237 10.1248L7.3737 8.37484L6.16536 9.5415L9.1237 12.4998Z" fill="white"/>
</g>
</svg>
