<svg width="20" height="20" viewBox="0 0 20 20" fill="none" xmlns="http://www.w3.org/2000/svg">
<mask id="mask0_302_7064" style="mask-type:alpha" maskUnits="userSpaceOnUse" x="0" y="0" width="20" height="20">
<rect width="20" height="20" fill="#D9D9D9"/>
</mask>
<g mask="url(#mask0_302_7064)">
<path d="M8.7487 12.4998H11.2487L10.7695 9.81234C11.0473 9.67345 11.2661 9.47206 11.4258 9.20817C11.5855 8.94428 11.6654 8.65262 11.6654 8.33317C11.6654 7.87484 11.5022 7.48248 11.1758 7.15609C10.8494 6.8297 10.457 6.6665 9.9987 6.6665C9.54036 6.6665 9.148 6.8297 8.82161 7.15609C8.49523 7.48248 8.33203 7.87484 8.33203 8.33317C8.33203 8.65262 8.41189 8.94428 8.57161 9.20817C8.73134 9.47206 8.95009 9.67345 9.22786 9.81234L8.7487 12.4998ZM9.9987 18.3332C8.06814 17.8471 6.47439 16.7394 5.21745 15.0103C3.9605 13.2811 3.33203 11.3609 3.33203 9.24984V4.1665L9.9987 1.6665L16.6654 4.1665V9.24984C16.6654 11.3609 16.0369 13.2811 14.7799 15.0103C13.523 16.7394 11.9293 17.8471 9.9987 18.3332ZM9.9987 16.5832C11.4431 16.1248 12.6376 15.2082 13.582 13.8332C14.5265 12.4582 14.9987 10.9304 14.9987 9.24984V5.31234L9.9987 3.43734L4.9987 5.31234V9.24984C4.9987 10.9304 5.47092 12.4582 6.41536 13.8332C7.35981 15.2082 8.55425 16.1248 9.9987 16.5832Z" fill="white"/>
</g>
</svg>
