<svg width="17" height="16" viewBox="0 0 17 16" fill="none" xmlns="http://www.w3.org/2000/svg">
<path d="M1.66667 15.8333C1.20833 15.8333 0.815972 15.6701 0.489583 15.3438C0.163194 15.0174 0 14.625 0 14.1667V5C0 4.54167 0.163194 4.14931 0.489583 3.82292C0.815972 3.49653 1.20833 3.33333 1.66667 3.33333H5V1.66667C5 1.20833 5.16319 0.815972 5.48958 0.489583C5.81597 0.163194 6.20833 0 6.66667 0H10C10.4583 0 10.8507 0.163194 11.1771 0.489583C11.5035 0.815972 11.6667 1.20833 11.6667 1.66667V3.33333H15C15.4583 3.33333 15.8507 3.49653 16.1771 3.82292C16.5035 4.14931 16.6667 4.54167 16.6667 5V14.1667C16.6667 14.625 16.5035 15.0174 16.1771 15.3438C15.8507 15.6701 15.4583 15.8333 15 15.8333H1.66667ZM6.66667 3.33333H10V1.66667H6.66667V3.33333ZM15 10.8333H10.8333V12.5H5.83333V10.8333H1.66667V14.1667H15V10.8333ZM7.5 10.8333H9.16667V9.16667H7.5V10.8333ZM1.66667 9.16667H5.83333V7.5H10.8333V9.16667H15V5H1.66667V9.16667Z" fill="white"/>
</svg>
