<svg width="14" height="17" viewBox="0 0 14 17" fill="none" xmlns="http://www.w3.org/2000/svg">
<path d="M5.41667 10.8333H7.91667L7.4375 8.14583C7.71528 8.00694 7.93403 7.80556 8.09375 7.54167C8.25347 7.27778 8.33333 6.98611 8.33333 6.66667C8.33333 6.20833 8.17014 5.81597 7.84375 5.48958C7.51736 5.16319 7.125 5 6.66667 5C6.20833 5 5.81597 5.16319 5.48958 5.48958C5.16319 5.81597 5 6.20833 5 6.66667C5 6.98611 5.07986 7.27778 5.23958 7.54167C5.39931 7.80556 5.61806 8.00694 5.89583 8.14583L5.41667 10.8333ZM6.66667 16.6667C4.73611 16.1806 3.14236 15.0729 1.88542 13.3438C0.628472 11.6146 0 9.69444 0 7.58333V2.5L6.66667 0L13.3333 2.5V7.58333C13.3333 9.69444 12.7049 11.6146 11.4479 13.3438C10.191 15.0729 8.59722 16.1806 6.66667 16.6667ZM6.66667 14.9167C8.11111 14.4583 9.30556 13.5417 10.25 12.1667C11.1944 10.7917 11.6667 9.26389 11.6667 7.58333V3.64583L6.66667 1.77083L1.66667 3.64583V7.58333C1.66667 9.26389 2.13889 10.7917 3.08333 12.1667C4.02778 13.5417 5.22222 14.4583 6.66667 14.9167Z" fill="white"/>
</svg>
