<svg width="20" height="20" viewBox="0 0 20 20" fill="none" xmlns="http://www.w3.org/2000/svg">
<mask id="mask0_302_7071" style="mask-type:alpha" maskUnits="userSpaceOnUse" x="0" y="0" width="20" height="20">
<rect width="20" height="20" fill="#D9D9D9"/>
</mask>
<g mask="url(#mask0_302_7071)">
<path d="M1.66667 17.5C1.20833 17.5 0.815972 17.3368 0.489583 17.0104C0.163194 16.684 0 16.2917 0 15.8333V4.16667C0 3.70833 0.163194 3.31597 0.489583 2.98958C0.815972 2.66319 1.20833 2.5 1.66667 2.5H18.3333C18.7917 2.5 19.184 2.66319 19.5104 2.98958C19.8368 3.31597 20 3.70833 20 4.16667V15.8333C20 16.2917 19.8368 16.684 19.5104 17.0104C19.184 17.3368 18.7917 17.5 18.3333 17.5H1.66667ZM13.25 15.8333H18.3333V4.16667H1.66667V15.8333H1.75C2.33333 14.7917 3.13889 13.9757 4.16667 13.3854C5.19444 12.7951 6.30556 12.5 7.5 12.5C8.69444 12.5 9.80556 12.7951 10.8333 13.3854C11.8611 13.9757 12.6667 14.7917 13.25 15.8333ZM7.5 11.6667C8.19444 11.6667 8.78472 11.4236 9.27083 10.9375C9.75694 10.4514 10 9.86111 10 9.16667C10 8.47222 9.75694 7.88194 9.27083 7.39583C8.78472 6.90972 8.19444 6.66667 7.5 6.66667C6.80556 6.66667 6.21528 6.90972 5.72917 7.39583C5.24306 7.88194 5 8.47222 5 9.16667C5 9.86111 5.24306 10.4514 5.72917 10.9375C6.21528 11.4236 6.80556 11.6667 7.5 11.6667ZM15.8333 15L17.5 13.3333L16.25 11.6667H14.875C14.7917 11.4167 14.7222 11.1493 14.6667 10.8646C14.6111 10.5799 14.5833 10.2917 14.5833 10C14.5833 9.70833 14.6111 9.42708 14.6667 9.15625C14.7222 8.88542 14.7917 8.61111 14.875 8.33333H16.25L17.5 6.66667L15.8333 5C15.0833 5.58333 14.4792 6.32292 14.0208 7.21875C13.5625 8.11458 13.3333 9.04167 13.3333 10C13.3333 10.9583 13.5625 11.8854 14.0208 12.7812C14.4792 13.6771 15.0833 14.4167 15.8333 15ZM3.79167 15.8333H11.2083C10.7361 15.3056 10.1771 14.8958 9.53125 14.6042C8.88542 14.3125 8.20833 14.1667 7.5 14.1667C6.79167 14.1667 6.11806 14.3125 5.47917 14.6042C4.84028 14.8958 4.27778 15.3056 3.79167 15.8333ZM7.5 10C7.26389 10 7.06597 9.92014 6.90625 9.76042C6.74653 9.60069 6.66667 9.40278 6.66667 9.16667C6.66667 8.93056 6.74653 8.73264 6.90625 8.57292C7.06597 8.41319 7.26389 8.33333 7.5 8.33333C7.73611 8.33333 7.93403 8.41319 8.09375 8.57292C8.25347 8.73264 8.33333 8.93056 8.33333 9.16667C8.33333 9.40278 8.25347 9.60069 8.09375 9.76042C7.93403 9.92014 7.73611 10 7.5 10Z" fill="white"/>
</g>
</svg>
