<svg width="22" height="22" viewBox="0 0 22 22" fill="none" xmlns="http://www.w3.org/2000/svg">
<mask id="mask0_302_7127" style="mask-type:alpha" maskUnits="userSpaceOnUse" x="0" y="0" width="22" height="22">
<rect width="21.3333" height="21.3333" fill="#D9D9D9"/>
</mask>
<g mask="url(#mask0_302_7127)">
<path d="M15.9993 18.6669L14.7549 17.4003L16.1549 16.0003H10.666V14.2225H16.1549L14.7549 12.8003L15.9993 11.5558L19.5549 15.1114L15.9993 18.6669ZM18.666 9.77805H16.8882V4.44472H15.1105V7.11138H6.22157V4.44472H4.44379V16.8892H8.88824V18.6669H4.44379C3.9549 18.6669 3.53639 18.4929 3.18824 18.1447C2.84009 17.7966 2.66602 17.378 2.66602 16.8892V4.44472C2.66602 3.95583 2.84009 3.53731 3.18824 3.18916C3.53639 2.84101 3.9549 2.66694 4.44379 2.66694H8.1549C8.31787 2.14842 8.63639 1.72249 9.11046 1.38916C9.58453 1.05583 10.1031 0.88916 10.666 0.88916C11.2586 0.88916 11.7882 1.05583 12.2549 1.38916C12.7216 1.72249 13.0364 2.14842 13.1993 2.66694H16.8882C17.3771 2.66694 17.7956 2.84101 18.1438 3.18916C18.4919 3.53731 18.666 3.95583 18.666 4.44472V9.77805ZM10.666 4.44472C10.9179 4.44472 11.129 4.35953 11.2993 4.18916C11.4697 4.01879 11.5549 3.80768 11.5549 3.55583C11.5549 3.30398 11.4697 3.09286 11.2993 2.92249C11.129 2.75212 10.9179 2.66694 10.666 2.66694C10.4142 2.66694 10.2031 2.75212 10.0327 2.92249C9.86231 3.09286 9.77713 3.30398 9.77713 3.55583C9.77713 3.80768 9.86231 4.01879 10.0327 4.18916C10.2031 4.35953 10.4142 4.44472 10.666 4.44472Z" fill="white"/>
</g>
</svg>
