<svg width="22" height="22" viewBox="0 0 22 22" fill="none" xmlns="http://www.w3.org/2000/svg">
<mask id="mask0_302_7120" style="mask-type:alpha" maskUnits="userSpaceOnUse" x="0" y="0" width="22" height="22">
<rect width="21.3333" height="21.3333" fill="#D9D9D9"/>
</mask>
<g mask="url(#mask0_302_7120)">
<path d="M3.55512 16.0001V8.889V9.17789V5.33344V16.0001ZM3.55512 7.11122H17.7773V5.33344H3.55512V7.11122ZM10.2885 17.7779H3.55512C3.06623 17.7779 2.64771 17.6038 2.29957 17.2557C1.95142 16.9075 1.77734 16.489 1.77734 16.0001V5.33344C1.77734 4.84455 1.95142 4.42603 2.29957 4.07789C2.64771 3.72974 3.06623 3.55566 3.55512 3.55566H17.7773C18.2662 3.55566 18.6848 3.72974 19.0329 4.07789C19.381 4.42603 19.5551 4.84455 19.5551 5.33344V10.0668C19.0366 9.6964 18.4699 9.40752 17.8551 9.20011C17.2403 8.9927 16.5922 8.889 15.9107 8.889C15.0662 8.889 14.2699 9.04826 13.5218 9.36678C12.7736 9.68529 12.1181 10.1186 11.5551 10.6668H3.55512V16.0001H9.75512C9.79957 16.3112 9.86623 16.6149 9.95512 16.9112C10.044 17.2075 10.1551 17.4964 10.2885 17.7779ZM15.0218 19.5557L14.7551 18.2223C14.5773 18.1483 14.4107 18.0705 14.2551 17.989C14.0996 17.9075 13.9403 17.8075 13.7773 17.689L12.4885 18.089L11.5996 16.5779L12.6218 15.689C12.5922 15.4964 12.5773 15.3038 12.5773 15.1112C12.5773 14.9186 12.5922 14.726 12.6218 14.5334L11.5996 13.6446L12.4885 12.1334L13.7773 12.5334C13.9403 12.4149 14.0996 12.3149 14.2551 12.2334C14.4107 12.152 14.5773 12.0742 14.7551 12.0001L15.0218 10.6668H16.7996L17.0662 12.0001C17.244 12.0742 17.4107 12.152 17.5662 12.2334C17.7218 12.3149 17.881 12.4149 18.044 12.5334L19.3329 12.1334L20.2218 13.6446L19.1996 14.5334C19.2292 14.726 19.244 14.9186 19.244 15.1112C19.244 15.3038 19.2292 15.4964 19.1996 15.689L20.2218 16.5779L19.3329 18.089L18.044 17.689C17.881 17.8075 17.7218 17.9075 17.5662 17.989C17.4107 18.0705 17.244 18.1483 17.0662 18.2223L16.7996 19.5557H15.0218ZM15.9107 16.889C16.3996 16.889 16.8181 16.7149 17.1662 16.3668C17.5144 16.0186 17.6885 15.6001 17.6885 15.1112C17.6885 14.6223 17.5144 14.2038 17.1662 13.8557C16.8181 13.5075 16.3996 13.3334 15.9107 13.3334C15.4218 13.3334 15.0033 13.5075 14.6551 13.8557C14.307 14.2038 14.1329 14.6223 14.1329 15.1112C14.1329 15.6001 14.307 16.0186 14.6551 16.3668C15.0033 16.7149 15.4218 16.889 15.9107 16.889Z" fill="white"/>
</g>
</svg>
