<svg width="16" height="18" viewBox="0 0 16 18" fill="none" xmlns="http://www.w3.org/2000/svg">
<path d="M6.75556 13.3778L13.0222 7.11111L11.7778 5.86667L6.75556 10.8889L4.22222 8.35556L2.97778 9.6L6.75556 13.3778ZM1.77778 17.7778C1.28889 17.7778 0.87037 17.6037 0.522222 17.2556C0.174074 16.9074 0 16.4889 0 16V3.55556C0 3.06667 0.174074 2.64815 0.522222 2.3C0.87037 1.95185 1.28889 1.77778 1.77778 1.77778H5.51111C5.7037 1.24444 6.02593 0.814815 6.47778 0.488889C6.92963 0.162963 7.43704 0 8 0C8.56296 0 9.07037 0.162963 9.52222 0.488889C9.97407 0.814815 10.2963 1.24444 10.4889 1.77778H14.2222C14.7111 1.77778 15.1296 1.95185 15.4778 2.3C15.8259 2.64815 16 3.06667 16 3.55556V16C16 16.4889 15.8259 16.9074 15.4778 17.2556C15.1296 17.6037 14.7111 17.7778 14.2222 17.7778H1.77778ZM1.77778 16H14.2222V3.55556H1.77778V16ZM8 2.88889C8.19259 2.88889 8.35185 2.82593 8.47778 2.7C8.6037 2.57407 8.66667 2.41481 8.66667 2.22222C8.66667 2.02963 8.6037 1.87037 8.47778 1.74444C8.35185 1.61852 8.19259 1.55556 8 1.55556C7.80741 1.55556 7.64815 1.61852 7.52222 1.74444C7.3963 1.87037 7.33333 2.02963 7.33333 2.22222C7.33333 2.41481 7.3963 2.57407 7.52222 2.7C7.64815 2.82593 7.80741 2.88889 8 2.88889Z" fill="white"/>
</svg>
