<svg width="18" height="16" viewBox="0 0 18 16" fill="none" xmlns="http://www.w3.org/2000/svg">
<path d="M5.33333 16V14.2222H1.77778C1.28889 14.2222 0.870371 14.0481 0.522222 13.7C0.174074 13.3519 0 12.9333 0 12.4444V1.77778C0 1.28889 0.174074 0.87037 0.522222 0.522222C0.870371 0.174074 1.28889 0 1.77778 0H8.88889V1.77778H1.77778V12.4444H16V9.77778H17.7778V12.4444C17.7778 12.9333 17.6037 13.3519 17.2556 13.7C16.9074 14.0481 16.4889 14.2222 16 14.2222H12.4444V16H5.33333ZM13.3333 9.77778L8.88889 5.33333L10.1333 4.08889L12.4444 6.37778V0H14.2222V6.37778L16.5333 4.08889L17.7778 5.33333L13.3333 9.77778Z" fill="white"/>
</svg>
