<svg width="17" height="18" viewBox="0 0 17 18" fill="none" xmlns="http://www.w3.org/2000/svg">
<path d="M2.66667 17.7778V13.9556C1.82222 13.1852 1.16667 12.2852 0.7 11.2556C0.233333 10.2259 0 9.14074 0 8C0 5.77778 0.777778 3.88889 2.33333 2.33333C3.88889 0.777778 5.77778 0 8 0C9.85185 0 11.4926 0.544444 12.9222 1.63333C14.3519 2.72222 15.2815 4.14074 15.7111 5.88889L16.8667 10.4444C16.9407 10.7259 16.8889 10.9815 16.7111 11.2111C16.5333 11.4407 16.2963 11.5556 16 11.5556H14.2222V14.2222C14.2222 14.7111 14.0481 15.1296 13.7 15.4778C13.3519 15.8259 12.9333 16 12.4444 16H10.6667V17.7778H8.88889V14.2222H12.4444V9.77778H14.8444L14 6.33333C13.6593 4.98519 12.9333 3.88889 11.8222 3.04444C10.7111 2.2 9.43704 1.77778 8 1.77778C6.28148 1.77778 4.81482 2.37778 3.6 3.57778C2.38519 4.77778 1.77778 6.23704 1.77778 7.95556C1.77778 8.84445 1.95926 9.68889 2.32222 10.4889C2.68519 11.2889 3.2 12 3.86667 12.6222L4.44444 13.1556V17.7778H2.66667ZM8 12.4444C8.25185 12.4444 8.46296 12.3593 8.63333 12.1889C8.80371 12.0185 8.88889 11.8074 8.88889 11.5556C8.88889 11.3037 8.80371 11.0926 8.63333 10.9222C8.46296 10.7519 8.25185 10.6667 8 10.6667C7.74815 10.6667 7.53704 10.7519 7.36667 10.9222C7.1963 11.0926 7.11111 11.3037 7.11111 11.5556C7.11111 11.8074 7.1963 12.0185 7.36667 12.1889C7.53704 12.3593 7.74815 12.4444 8 12.4444ZM7.33333 9.6H8.68889C8.68889 9.22963 8.73704 8.92963 8.83333 8.7C8.92963 8.47037 9.12593 8.19259 9.42222 7.86667C9.68889 7.57037 9.94815 7.27037 10.2 6.96667C10.4519 6.66296 10.5778 6.26667 10.5778 5.77778C10.5778 5.15556 10.337 4.62963 9.85556 4.2C9.37407 3.77037 8.77778 3.55556 8.06667 3.55556C7.47407 3.55556 6.93704 3.72593 6.45556 4.06667C5.97407 4.40741 5.63704 4.85185 5.44444 5.4L6.66667 5.91111C6.77037 5.58519 6.95185 5.32222 7.21111 5.12222C7.47037 4.92222 7.75556 4.82222 8.06667 4.82222C8.39259 4.82222 8.66296 4.91111 8.87778 5.08889C9.09259 5.26667 9.2 5.4963 9.2 5.77778C9.2 6.08889 9.10741 6.36667 8.92222 6.61111C8.73704 6.85556 8.51852 7.1037 8.26667 7.35556C7.97037 7.66667 7.74074 7.97778 7.57778 8.28889C7.41482 8.6 7.33333 9.03704 7.33333 9.6Z" fill="white"/>
</svg>
