<svg width="22" height="22" viewBox="0 0 22 22" fill="none" xmlns="http://www.w3.org/2000/svg">
<mask id="mask0_302_7149" style="mask-type:alpha" maskUnits="userSpaceOnUse" x="0" y="0" width="22" height="22">
<rect width="21.3333" height="21.3333" fill="#D9D9D9"/>
</mask>
<g mask="url(#mask0_302_7149)">
<path d="M7.11068 18.6665V16.8887H3.55512C3.06623 16.8887 2.64771 16.7147 2.29957 16.3665C1.95142 16.0184 1.77734 15.5998 1.77734 15.1109V4.44428C1.77734 3.95539 1.95142 3.53687 2.29957 3.18873C2.64771 2.84058 3.06623 2.6665 3.55512 2.6665H10.6662V4.44428H3.55512V15.1109H17.7773V12.4443H19.5551V15.1109C19.5551 15.5998 19.381 16.0184 19.0329 16.3665C18.6848 16.7147 18.2662 16.8887 17.7773 16.8887H14.2218V18.6665H7.11068ZM15.1107 12.4443L10.6662 7.99984L11.9107 6.75539L14.2218 9.04428V2.6665H15.9996V9.04428L18.3107 6.75539L19.5551 7.99984L15.1107 12.4443Z" fill="white"/>
</g>
</svg>
