<svg width="19" height="16" viewBox="0 0 19 16" fill="none" xmlns="http://www.w3.org/2000/svg">
<path d="M1.77778 12.4444V5.33333V5.62222V1.77778V12.4444ZM1.77778 3.55556H16V1.77778H1.77778V3.55556ZM8.51111 14.2222H1.77778C1.28889 14.2222 0.87037 14.0481 0.522222 13.7C0.174074 13.3519 0 12.9333 0 12.4444V1.77778C0 1.28889 0.174074 0.87037 0.522222 0.522222C0.87037 0.174074 1.28889 0 1.77778 0H16C16.4889 0 16.9074 0.174074 17.2556 0.522222C17.6037 0.87037 17.7778 1.28889 17.7778 1.77778V6.51111C17.2593 6.14074 16.6926 5.85185 16.0778 5.64444C15.463 5.43704 14.8148 5.33333 14.1333 5.33333C13.2889 5.33333 12.4926 5.49259 11.7444 5.81111C10.9963 6.12963 10.3407 6.56296 9.77778 7.11111H1.77778V12.4444H7.97778C8.02222 12.7556 8.08889 13.0593 8.17778 13.3556C8.26667 13.6519 8.37778 13.9407 8.51111 14.2222ZM13.2444 16L12.9778 14.6667C12.8 14.5926 12.6333 14.5148 12.4778 14.4333C12.3222 14.3519 12.163 14.2519 12 14.1333L10.7111 14.5333L9.82222 13.0222L10.8444 12.1333C10.8148 11.9407 10.8 11.7481 10.8 11.5556C10.8 11.363 10.8148 11.1704 10.8444 10.9778L9.82222 10.0889L10.7111 8.57778L12 8.97778C12.163 8.85926 12.3222 8.75926 12.4778 8.67778C12.6333 8.5963 12.8 8.51852 12.9778 8.44444L13.2444 7.11111H15.0222L15.2889 8.44444C15.4667 8.51852 15.6333 8.5963 15.7889 8.67778C15.9444 8.75926 16.1037 8.85926 16.2667 8.97778L17.5556 8.57778L18.4444 10.0889L17.4222 10.9778C17.4519 11.1704 17.4667 11.363 17.4667 11.5556C17.4667 11.7481 17.4519 11.9407 17.4222 12.1333L18.4444 13.0222L17.5556 14.5333L16.2667 14.1333C16.1037 14.2519 15.9444 14.3519 15.7889 14.4333C15.6333 14.5148 15.4667 14.5926 15.2889 14.6667L15.0222 16H13.2444ZM14.1333 13.3333C14.6222 13.3333 15.0407 13.1593 15.3889 12.8111C15.737 12.463 15.9111 12.0444 15.9111 11.5556C15.9111 11.0667 15.737 10.6481 15.3889 10.3C15.0407 9.95185 14.6222 9.77778 14.1333 9.77778C13.6444 9.77778 13.2259 9.95185 12.8778 10.3C12.5296 10.6481 12.3556 11.0667 12.3556 11.5556C12.3556 12.0444 12.5296 12.463 12.8778 12.8111C13.2259 13.1593 13.6444 13.3333 14.1333 13.3333Z" fill="white"/>
</svg>
