<svg width="22" height="22" viewBox="0 0 22 22" fill="none" xmlns="http://www.w3.org/2000/svg">
<mask id="mask0_302_7142" style="mask-type:alpha" maskUnits="userSpaceOnUse" x="0" y="0" width="22" height="22">
<rect width="21.3333" height="21.3333" fill="#D9D9D9"/>
</mask>
<g mask="url(#mask0_302_7142)">
<path d="M4.44379 16.8887V4.44428V8.42206V7.99984V16.8887ZM6.22157 11.5554H11.1327C11.1623 11.2295 11.2364 10.9184 11.3549 10.6221C11.4734 10.3258 11.6216 10.0443 11.7993 9.77762H6.22157V11.5554ZM6.22157 15.1109H9.71046C9.96231 14.8147 10.2512 14.5739 10.5771 14.3887C10.9031 14.2035 11.2438 14.0517 11.5993 13.9332C11.5401 13.8443 11.4882 13.748 11.4438 13.6443C11.3993 13.5406 11.3623 13.4369 11.3327 13.3332H6.22157V15.1109ZM6.22157 7.99984H15.1105V6.22206H6.22157V7.99984ZM4.44379 18.6665C3.9549 18.6665 3.53639 18.4924 3.18824 18.1443C2.84009 17.7961 2.66602 17.3776 2.66602 16.8887V4.44428C2.66602 3.95539 2.84009 3.53687 3.18824 3.18873C3.53639 2.84058 3.9549 2.6665 4.44379 2.6665H16.8882C17.3771 2.6665 17.7956 2.84058 18.1438 3.18873C18.4919 3.53687 18.666 3.95539 18.666 4.44428V10.1776C18.4586 9.79243 18.2068 9.45169 17.9105 9.15539C17.6142 8.8591 17.2734 8.61465 16.8882 8.42206V4.44428H4.44379V16.8887H8.93268C8.91787 16.9776 8.90676 17.0665 8.89935 17.1554C8.89194 17.2443 8.88824 17.3332 8.88824 17.4221V18.6665H4.44379ZM15.1105 14.2221C14.4882 14.2221 13.9623 14.0072 13.5327 13.5776C13.1031 13.148 12.8882 12.6221 12.8882 11.9998C12.8882 11.3776 13.1031 10.8517 13.5327 10.4221C13.9623 9.99243 14.4882 9.77762 15.1105 9.77762C15.7327 9.77762 16.2586 9.99243 16.6882 10.4221C17.1179 10.8517 17.3327 11.3776 17.3327 11.9998C17.3327 12.6221 17.1179 13.148 16.6882 13.5776C16.2586 14.0072 15.7327 14.2221 15.1105 14.2221ZM10.666 18.6665V17.4221C10.666 17.0665 10.7586 16.7369 10.9438 16.4332C11.129 16.1295 11.3919 15.9109 11.7327 15.7776C12.266 15.5554 12.8179 15.3887 13.3882 15.2776C13.9586 15.1665 14.5327 15.1109 15.1105 15.1109C15.6882 15.1109 16.2623 15.1665 16.8327 15.2776C17.4031 15.3887 17.9549 15.5554 18.4882 15.7776C18.829 15.9109 19.0919 16.1295 19.2771 16.4332C19.4623 16.7369 19.5549 17.0665 19.5549 17.4221V18.6665H10.666Z" fill="white"/>
</g>
</svg>
