<svg width="22" height="22" viewBox="0 0 22 22" fill="none" xmlns="http://www.w3.org/2000/svg">
<mask id="mask0_302_7156" style="mask-type:alpha" maskUnits="userSpaceOnUse" x="0" y="0" width="22" height="22">
<rect width="21.3333" height="21.3333" fill="#D9D9D9"/>
</mask>
<g mask="url(#mask0_302_7156)">
<path d="M5.33268 19.5556V15.7334C4.48824 14.963 3.83268 14.063 3.36602 13.0334C2.89935 12.0038 2.66602 10.9186 2.66602 9.77783C2.66602 7.55561 3.44379 5.66672 4.99935 4.11117C6.5549 2.55561 8.44379 1.77783 10.666 1.77783C12.5179 1.77783 14.1586 2.32228 15.5882 3.41117C17.0179 4.50005 17.9475 5.91857 18.3771 7.66672L19.5327 12.2223C19.6068 12.5038 19.5549 12.7593 19.3771 12.9889C19.1994 13.2186 18.9623 13.3334 18.666 13.3334H16.8882V16.0001C16.8882 16.4889 16.7142 16.9075 16.366 17.2556C16.0179 17.6038 15.5993 17.7778 15.1105 17.7778H13.3327V19.5556H11.5549V16.0001H15.1105V11.5556H17.5105L16.666 8.11117C16.3253 6.76302 15.5993 5.66672 14.4882 4.82228C13.3771 3.97783 12.1031 3.55561 10.666 3.55561C8.9475 3.55561 7.48083 4.15561 6.26602 5.35561C5.0512 6.55561 4.44379 8.01487 4.44379 9.73339C4.44379 10.6223 4.62528 11.4667 4.98824 12.2667C5.3512 13.0667 5.86602 13.7778 6.53268 14.4001L7.11046 14.9334V19.5556H5.33268ZM10.666 14.2223C10.9179 14.2223 11.129 14.1371 11.2993 13.9667C11.4697 13.7964 11.5549 13.5852 11.5549 13.3334C11.5549 13.0815 11.4697 12.8704 11.2993 12.7001C11.129 12.5297 10.9179 12.4445 10.666 12.4445C10.4142 12.4445 10.2031 12.5297 10.0327 12.7001C9.86231 12.8704 9.77713 13.0815 9.77713 13.3334C9.77713 13.5852 9.86231 13.7964 10.0327 13.9667C10.2031 14.1371 10.4142 14.2223 10.666 14.2223ZM9.99935 11.3778H11.3549C11.3549 11.0075 11.4031 10.7075 11.4993 10.4778C11.5956 10.2482 11.7919 9.97043 12.0882 9.6445C12.3549 9.3482 12.6142 9.0482 12.866 8.7445C13.1179 8.4408 13.2438 8.0445 13.2438 7.55561C13.2438 6.93339 13.0031 6.40746 12.5216 5.97783C12.0401 5.5482 11.4438 5.33339 10.7327 5.33339C10.1401 5.33339 9.60305 5.50376 9.12157 5.8445C8.64009 6.18524 8.30305 6.62968 8.11046 7.17783L9.33268 7.68894C9.43639 7.36302 9.61787 7.10005 9.87713 6.90005C10.1364 6.70005 10.4216 6.60005 10.7327 6.60005C11.0586 6.60005 11.329 6.68894 11.5438 6.86672C11.7586 7.0445 11.866 7.27413 11.866 7.55561C11.866 7.86672 11.7734 8.1445 11.5882 8.38894C11.4031 8.63339 11.1845 8.88154 10.9327 9.13339C10.6364 9.4445 10.4068 9.75561 10.2438 10.0667C10.0808 10.3778 9.99935 10.8149 9.99935 11.3778Z" fill="white"/>
</g>
</svg>
