<svg width="22" height="22" viewBox="0 0 22 22" fill="none" xmlns="http://www.w3.org/2000/svg">
<mask id="mask0_302_7134" style="mask-type:alpha" maskUnits="userSpaceOnUse" x="0" y="0" width="22" height="22">
<rect width="21.3333" height="21.3333" fill="#D9D9D9"/>
</mask>
<g mask="url(#mask0_302_7134)">
<path d="M9.42157 14.2669L15.6882 8.00027L14.4438 6.75583L9.42157 11.778L6.88824 9.24472L5.64379 10.4892L9.42157 14.2669ZM4.44379 18.6669C3.9549 18.6669 3.53639 18.4929 3.18824 18.1447C2.84009 17.7966 2.66602 17.378 2.66602 16.8892V4.44472C2.66602 3.95583 2.84009 3.53731 3.18824 3.18916C3.53639 2.84101 3.9549 2.66694 4.44379 2.66694H8.17713C8.36972 2.1336 8.69194 1.70398 9.14379 1.37805C9.59565 1.05212 10.1031 0.88916 10.666 0.88916C11.229 0.88916 11.7364 1.05212 12.1882 1.37805C12.6401 1.70398 12.9623 2.1336 13.1549 2.66694H16.8882C17.3771 2.66694 17.7956 2.84101 18.1438 3.18916C18.4919 3.53731 18.666 3.95583 18.666 4.44472V16.8892C18.666 17.378 18.4919 17.7966 18.1438 18.1447C17.7956 18.4929 17.3771 18.6669 16.8882 18.6669H4.44379ZM4.44379 16.8892H16.8882V4.44472H4.44379V16.8892ZM10.666 3.77805C10.8586 3.77805 11.0179 3.71509 11.1438 3.58916C11.2697 3.46323 11.3327 3.30398 11.3327 3.11138C11.3327 2.91879 11.2697 2.75953 11.1438 2.6336C11.0179 2.50768 10.8586 2.44472 10.666 2.44472C10.4734 2.44472 10.3142 2.50768 10.1882 2.6336C10.0623 2.75953 9.99935 2.91879 9.99935 3.11138C9.99935 3.30398 10.0623 3.46323 10.1882 3.58916C10.3142 3.71509 10.4734 3.77805 10.666 3.77805Z" fill="white"/>
</g>
</svg>
