<svg width="17" height="18" viewBox="0 0 17 18" fill="none" xmlns="http://www.w3.org/2000/svg">
<path d="M13.3333 17.7778L12.0889 16.5111L13.4889 15.1111H8V13.3333H13.4889L12.0889 11.9111L13.3333 10.6667L16.8889 14.2222L13.3333 17.7778ZM16 8.88889H14.2222V3.55556H12.4444V6.22222H3.55556V3.55556H1.77778V16H6.22222V17.7778H1.77778C1.28889 17.7778 0.87037 17.6037 0.522222 17.2556C0.174074 16.9074 0 16.4889 0 16V3.55556C0 3.06667 0.174074 2.64815 0.522222 2.3C0.87037 1.95185 1.28889 1.77778 1.77778 1.77778H5.48889C5.65185 1.25926 5.97037 0.833333 6.44444 0.5C6.91852 0.166667 7.43704 0 8 0C8.59259 0 9.12222 0.166667 9.58889 0.5C10.0556 0.833333 10.3704 1.25926 10.5333 1.77778H14.2222C14.7111 1.77778 15.1296 1.95185 15.4778 2.3C15.8259 2.64815 16 3.06667 16 3.55556V8.88889ZM8 3.55556C8.25185 3.55556 8.46296 3.47037 8.63333 3.3C8.8037 3.12963 8.88889 2.91852 8.88889 2.66667C8.88889 2.41481 8.8037 2.2037 8.63333 2.03333C8.46296 1.86296 8.25185 1.77778 8 1.77778C7.74815 1.77778 7.53704 1.86296 7.36667 2.03333C7.1963 2.2037 7.11111 2.41481 7.11111 2.66667C7.11111 2.91852 7.1963 3.12963 7.36667 3.3C7.53704 3.47037 7.74815 3.55556 8 3.55556Z" fill="white"/>
</svg>
