<svg width="17" height="16" viewBox="0 0 17 16" fill="none" xmlns="http://www.w3.org/2000/svg">
<path d="M1.77778 14.2222V1.77778V5.75556V5.33333V14.2222ZM3.55556 8.88889H8.46667C8.4963 8.56296 8.57037 8.25185 8.68889 7.95556C8.80741 7.65926 8.95556 7.37778 9.13333 7.11111H3.55556V8.88889ZM3.55556 12.4444H7.04444C7.2963 12.1481 7.58519 11.9074 7.91111 11.7222C8.23704 11.537 8.57778 11.3852 8.93333 11.2667C8.87407 11.1778 8.82222 11.0815 8.77778 10.9778C8.73333 10.8741 8.6963 10.7704 8.66667 10.6667H3.55556V12.4444ZM3.55556 5.33333H12.4444V3.55556H3.55556V5.33333ZM1.77778 16C1.28889 16 0.87037 15.8259 0.522222 15.4778C0.174074 15.1296 0 14.7111 0 14.2222V1.77778C0 1.28889 0.174074 0.87037 0.522222 0.522222C0.87037 0.174074 1.28889 0 1.77778 0H14.2222C14.7111 0 15.1296 0.174074 15.4778 0.522222C15.8259 0.87037 16 1.28889 16 1.77778V7.51111C15.7926 7.12593 15.5407 6.78519 15.2444 6.48889C14.9481 6.19259 14.6074 5.94815 14.2222 5.75556V1.77778H1.77778V14.2222H6.26667C6.25185 14.3111 6.24074 14.4 6.23333 14.4889C6.22593 14.5778 6.22222 14.6667 6.22222 14.7556V16H1.77778ZM12.4444 11.5556C11.8222 11.5556 11.2963 11.3407 10.8667 10.9111C10.437 10.4815 10.2222 9.95556 10.2222 9.33333C10.2222 8.71111 10.437 8.18519 10.8667 7.75556C11.2963 7.32593 11.8222 7.11111 12.4444 7.11111C13.0667 7.11111 13.5926 7.32593 14.0222 7.75556C14.4519 8.18519 14.6667 8.71111 14.6667 9.33333C14.6667 9.95556 14.4519 10.4815 14.0222 10.9111C13.5926 11.3407 13.0667 11.5556 12.4444 11.5556ZM8 16V14.7556C8 14.4 8.09259 14.0704 8.27778 13.7667C8.46296 13.463 8.72593 13.2444 9.06667 13.1111C9.6 12.8889 10.1519 12.7222 10.7222 12.6111C11.2926 12.5 11.8667 12.4444 12.4444 12.4444C13.0222 12.4444 13.5963 12.5 14.1667 12.6111C14.737 12.7222 15.2889 12.8889 15.8222 13.1111C16.163 13.2444 16.4259 13.463 16.6111 13.7667C16.7963 14.0704 16.8889 14.4 16.8889 14.7556V16H8Z" fill="white"/>
</svg>
